<svg id="Vrstva_1" data-name="Vrstva 1" xmlns="http://www.w3.org/2000/svg" xmlns:xlink="http://www.w3.org/1999/xlink" viewBox="0 0 1299.65 516.05"><defs><style>.cls-1,.cls-3{fill:#515151;}.cls-1,.cls-2{fill-rule:evenodd;}.cls-2{fill:url(#GradientFill_1);}</style><linearGradient id="GradientFill_1" x1="16.43" y1="453.5" x2="312.27" y2="74.84" gradientUnits="userSpaceOnUse"><stop offset="0" stop-color="#58bcac"/><stop offset="0.3" stop-color="#55baa8"/><stop offset="1" stop-color="#009881"/></linearGradient></defs><title>Kreslicí plátno 1 kopie</title><path class="cls-1" d="M1217.11,211.36c-4.28,0-7.71,1-10.3,3a20.52,20.52,0,0,0-6.26,8.24,41.16,41.16,0,0,0-3.22,12,115.87,115.87,0,0,0-.87,14.59q0,12.13.73,20.95a54.59,54.59,0,0,0,2.93,14.74,18.58,18.58,0,0,0,6.07,8.81c2.65,1.92,6.07,2.89,10.35,2.89,8.52,0,14.16-3.71,16.85-11.12s4.09-18,4.09-31.64q0-20.8-4.09-31.63c-2.69-7.22-8.14-10.83-16.27-10.83Zm46.08-16.77h0Q1284,215.4,1284,254.11a104,104,0,0,1-4.48,31.49,68.46,68.46,0,0,1-13,24.13,56.45,56.45,0,0,1-21,15.31q-12.42,5.34-28.6,5.34t-28.46-5.49a58.31,58.31,0,0,1-20.8-15.46,66.55,66.55,0,0,1-12.86-24.12,115,115,0,0,1,0-62.55,69.46,69.46,0,0,1,12.72-24.12,56,56,0,0,1,20.8-15.6q12.42-5.49,28.6-5.49,28.6,0,46.22,17ZM1070.34,294h0q11.92,0,21.24-11.27V219.45q-11.92-6.94-18.93-6.94-19.79,0-19.79,43.33,0,38.14,17.48,38.14Zm75.15,26.26h0c-3.87,8.5-15.78,8.12-15.78,8.12q-21.09-.58-30.91-16.18-17.33,18.2-41.6,18.2t-37.27-20.22q-13-20.22-13-55.47a102.66,102.66,0,0,1,4.47-31.35,74.31,74.31,0,0,1,12.28-23.84A55,55,0,0,1,1042,184.35,49.34,49.34,0,0,1,1064.7,179a60.57,60.57,0,0,1,26.88,6.35V130.65l1.73-2h17.63q13.87,0,19.21,6.07t5.34,21.09V284.45q0,15.32,8.09,20.8s6.49,4.94,1.91,15ZM907.75,345.81h0c14.25,0,14.53,1.92,19.15-13.68l1.16-4.05q-25.14,0-30-18.2L864.49,185.35q13.29-6.06,24.85-6.07t16.9,4.34q5.34,4.34,7.94,15l13.29,55.47q2,7.8,6.64,38.14a2.11,2.11,0,0,0,2.32,2l25.13-112.09q6.94-2,18.79-2a75.42,75.42,0,0,1,23.11,3.17l1.73,3.18L969.66,322.3c-5.58,20.8-9.64,36-18.89,47.15-10.6,12.72-18.63,14.8-40.58,14.8,0,0-18.46.76-19.83-18s17.39-20.44,17.39-20.44ZM763.66,179.57h0q26.57,2,37,26.3,11-26,36.11-26a100.5,100.5,0,0,1,19.07,2.32,90.23,90.23,0,0,1-3,21.23,76.24,76.24,0,0,1-8.24,20.95,72.78,72.78,0,0,0-14.73-2.89q-14.45,0-23.69,14.74v89.85a126.3,126.3,0,0,1-22.4,1.74,131.36,131.36,0,0,1-22.68-1.74V232.74q0-21.67-11-30s-5.35-3.58-.38-14.77c4.88-11,14-8.35,14-8.35Zm-26,2h0a75.73,75.73,0,0,1,1.74,16,71.66,71.66,0,0,1-1.74,15.74l-34.38-.57v66.45q0,13.58,12.71,13.58h16.18A57.34,57.34,0,0,1,735.92,312q0,8.74-1.15,12.56a294.93,294.93,0,0,1-39.3,2.89q-36.41,0-36.4-40.25V213.09l-22.53.28a57.06,57.06,0,0,1-2-15.6,63.58,63.58,0,0,1,2-16.18l22.53.58V156.35q0-14.72,5.64-21t18.93-6.21h17.62l2,2v51l34.38-.58ZM625.28,230.71h0v59.23q0,19.08,6.93,28.6a38.08,38.08,0,0,1-26.29,9.83q-15,0-20.51-6.94t-5.49-21.09V238.81q0-9.82-2.6-14.44t-10.11-4.63a25.78,25.78,0,0,0-9.82,2.31,41,41,0,0,0-11.27,7.51v96.49a105.6,105.6,0,0,1-10.69,1.3q-5.78.43-11.85.44c-4,0-8-.15-11.84-.44a105.59,105.59,0,0,1-10.69-1.3V181.89l2-2h17q17.62,0,23.69,17.34Q564,179.29,584,179.29q20.22,0,30.77,14t10.55,37.41ZM351.39,155.79h0q0-12.42,7.08-19.64t19.5-7.23l100-.19a90.48,90.48,0,0,1,1.73,18.21,57.75,57.75,0,0,1-4,20.5H397l.28,20.8v20.23c5-.19,11.51-.29,19.55-.29h44a60.33,60.33,0,0,1,2.6,18.5,66,66,0,0,1-2.6,19.06H397.32v22L397,288.5v.28c8.81-.38,15.93-.57,21.32-.57h66.79c0,7.12-.87,16.46-.87,16.46q-3.46,22.25-29.47,22.26H378q-12.42,0-19.5-7.23t-7.08-19.65Z"/><path class="cls-2" d="M43,222.83C44.07,156,101,109.76,165.75,110c68.74.24,107.56,48.91,107.71,97.91.15,46-31.29,90.65-94.53,89.47a87.86,87.86,0,0,1-31.87-6.4,10.84,10.84,0,0,0-11.78-1.39A10.5,10.5,0,0,0,121.35,280a10.16,10.16,0,0,0-9.72-13.32,10.33,10.33,0,0,0-2.43.29,9.81,9.81,0,0,0,2.5-6.55,10,10,0,1,0-9.95,9.89,10.08,10.08,0,0,0,2.28-.26,10.06,10.06,0,0,0-2.63,6.79,10.22,10.22,0,0,0,13.46,9.64,10.23,10.23,0,0,0-.56,3.38,10.51,10.51,0,0,0,15,9.4,10.71,10.71,0,0,0,8,10.22c12.84,6.07,27.29,10.25,42.48,10.25,80.21,0,119-55.74,119.06-112.76C299,144.69,252.92,81.24,164.35,81h-.46C90.62,81,13.22,133.62,10.11,223.31,8.21,278,30.75,324.89,67.46,358.3l1.42,1.28,1.34,1.18.1.09.41.35,1,.87.55.46.87.73.8.65.72.59.68.55.87.7.61.49.94.73.7.54.79.6,1,.78.49.37,1,.74.71.52.86.62.78.56.82.58.88.62.77.53.86.59.89.6.81.55.86.57.9.59.8.52.92.59.89.58.81.51.93.58.75.46,1.13.7.62.38,1,.62.86.51,1,.6.54.31,1.36.78.26.15,1.5.84.48.27c2.29,1.27,4.61,2.52,7,3.72l1.87.94,0,0,1.85.91,3.56,1.7.27.13,1.7.78.19.09,1.87.84h0l1.83.8.11.06,1.69.72.3.12,1.57.65.41.17,1.56.63.37.15,1.72.67.19.07,1.68.64.36.14,1.57.57.42.15,1.56.55.44.16,1.6.55.28.1,1.76.58.17.06,1.81.58.17.05,1.79.55.22.07,3.79,1.1.11,0a151.47,151.47,0,0,0,31.1,5.48h.17l20,.09h.1V425a6.72,6.72,0,0,0,3.31,5.88,6.8,6.8,0,0,0,6.78.27l69.87-35.28a6.88,6.88,0,0,0,0-12.3l-69.87-35.28a6.8,6.8,0,0,0-6.78.27,6.72,6.72,0,0,0-3.31,5.88v15.79h0c-1.17-.1-20.63-.21-21.8-.33h-.08l-3.33-.39-.3,0-3.29-.46-.25,0-3.3-.54-.24,0-3.25-.6-.27-.05-3.16-.67-.36-.08-3.1-.72-.37-.09-3-.79-.42-.11-3-.85-.38-.11-3-.92-.39-.12-2.92-1-.48-.16-2.85-1-.47-.17-2.79-1.06-.55-.21L136,358.59l-.58-.24-2.68-1.16-.52-.23-2.65-1.21-.58-.27-2.54-1.23-.64-.32-2.49-1.27-.64-.33-2.4-1.3-.69-.39-2.41-1.36-.58-.34-2.38-1.42-.67-.42-2.23-1.4-.75-.48-2.16-1.43-.75-.5-2.07-1.44-.83-.58-2-1.46-.76-.57-2-1.54-.73-.57-2-1.57-.78-.62-1.88-1.57-.8-.67L92,331.13l-.8-.72-1.74-1.58-.82-.76-1.71-1.63-.75-.74L84.44,324l-.79-.81-1.58-1.65-.83-.89L79.72,319l-.78-.88-1.51-1.74-.74-.88-1.45-1.72-.8-1-1.37-1.71-.77-1L71,308.37l-.77-1.05L69,305.6l-.79-1.12L67,302.75l-.72-1.09-1.17-1.79-.72-1.14L63.27,297l-.74-1.22-1-1.74-.71-1.26-1-1.78-.67-1.27-.92-1.75-.71-1.41-.84-1.7L56,283.41l-.8-1.71-.65-1.48-.74-1.7-.6-1.47-.72-1.78L52,273.9,51.26,272l-.48-1.37-.67-1.92-.46-1.43-.61-1.9-.44-1.51L48.06,262l-.41-1.55-.48-1.85-.4-1.63-.43-1.82L46,253.61l-.41-1.93-.3-1.61L45,248.19l-.29-1.83-.26-1.71-.25-2-.21-1.61-.19-1.85-.18-1.76-.17-2.21-.11-1.37-.14-2.73,0-.93-.05-2.17,0-1.54c0-1.23,0-2.45,0-3.69Zm52.79,9a9.61,9.61,0,1,1-9.68,9.62,9.64,9.64,0,0,1,9.68-9.62Zm-11-11a9.4,9.4,0,1,1,9.41,9.34,9.38,9.38,0,0,1-9.41-9.34Zm4.43-21.06a9.13,9.13,0,1,1,9.14,9.08,9.11,9.11,0,0,1-9.14-9.08Zm11.71-19.25a8.86,8.86,0,1,1,8.86,8.8,8.84,8.84,0,0,1-8.86-8.8Zm18.59-14.68a8.59,8.59,0,1,1,8.58,8.53,8.56,8.56,0,0,1-8.58-8.53Zm23.42-8.49a8.31,8.31,0,1,1,8.31,8.26,8.29,8.29,0,0,1-8.31-8.26Zm34.2-8.85a8,8,0,1,1-8,8,8,8,0,0,1,8-8Zm25.62,9.26a7.72,7.72,0,1,1-7.77,7.71,7.74,7.74,0,0,1,7.77-7.71Zm19.35,21.07a7.45,7.45,0,1,1-7.49,7.45,7.47,7.47,0,0,1,7.49-7.45Zm6.55,29.65a7.18,7.18,0,1,1-7.23,7.18,7.2,7.2,0,0,1,7.23-7.18Zm-8.94,28.06a6.9,6.9,0,1,1-7,6.91,6.93,6.93,0,0,1,7-6.91Zm-13.55,24.47a6.68,6.68,0,1,1-6.68-6.63,6.65,6.65,0,0,1,6.68,6.63Zm-27.49.66a5.43,5.43,0,1,1-5.42-5.4,5.41,5.41,0,0,1,5.42,5.4Zm-25.06-7.43a4.53,4.53,0,1,1,4.55-4.52A4.54,4.54,0,0,1,153.61,254.29Z"/><path class="cls-3" d="M389.3,362.21l.42.42v41.18a26.3,26.3,0,0,1-5.72.54,41.66,41.66,0,0,1-5.84-.36l-9.51-21.68q-1.7-3.7-3.45-8.54l-.18.06q.73,8.84.73,18.11V404a24.27,24.27,0,0,1-4.54.36,23.28,23.28,0,0,1-4.48-.36V362.81a24.31,24.31,0,0,1,5.54-.54,41.17,41.17,0,0,1,5.78.36l9.39,21.62q2.54,6,3.76,9.2l.24-.12q-.73-8.42-.73-17.86v-7.39q0-3.15,1.27-4.51a5.42,5.42,0,0,1,4.12-1.36Z"/><path class="cls-3" d="M419.7,376.44q4.36,4.36,4.36,12.48a21.81,21.81,0,0,1-.94,6.6,14.32,14.32,0,0,1-2.73,5.06,11.86,11.86,0,0,1-4.39,3.21,15.06,15.06,0,0,1-6,1.12,14.48,14.48,0,0,1-6-1.15,12.19,12.19,0,0,1-4.36-3.24,13.94,13.94,0,0,1-2.69-5.06,24.11,24.11,0,0,1,0-13.11,14.56,14.56,0,0,1,2.66-5.06A11.73,11.73,0,0,1,404,374a14.7,14.7,0,0,1,6-1.15A13.35,13.35,0,0,1,419.7,376.44ZM410,380a3.44,3.44,0,0,0-2.16.64,4.4,4.4,0,0,0-1.31,1.73,8.89,8.89,0,0,0-.67,2.51,24.16,24.16,0,0,0-.18,3.06q0,2.54.15,4.39a11.83,11.83,0,0,0,.61,3.09,3.87,3.87,0,0,0,1.28,1.85,3.57,3.57,0,0,0,2.16.61,3.41,3.41,0,0,0,3.54-2.33,20.09,20.09,0,0,0,.85-6.63,19.77,19.77,0,0,0-.85-6.63A3.32,3.32,0,0,0,410,380Z"/><path class="cls-3" d="M447.25,400l-7.15-36.82a14.92,14.92,0,0,1,5.15-1.09,5.15,5.15,0,0,1,3.69,1.12,7.59,7.59,0,0,1,1.63,4.21L453.13,383q1.15,7,1.45,9.81a23,23,0,0,0,.39,2.91.48.48,0,0,0,.39.12l5-32.46a35.54,35.54,0,0,1,6.24-.42,34.45,34.45,0,0,1,6.18.42l4.6,31.67a1.08,1.08,0,0,0,.21.67.72.72,0,0,0,.45.12q.55-5.69,1.82-12.9l3.39-20.35a20.14,20.14,0,0,1,4.06-.36,16.41,16.41,0,0,1,4.91.67l.42.54-8,40.45a69.45,69.45,0,0,1-7.39.42,10.34,10.34,0,0,1-4.9-.85q-1.45-.85-1.88-3.51l-2.06-13.14q-1.09-7.15-1.76-14.05h-.42q-.67,5.88-2,14.05l-2.73,17.08a73.87,73.87,0,0,1-7.48.42,10.09,10.09,0,0,1-4.81-.85Q447.8,402.66,447.25,400Z"/><path class="cls-3" d="M521.32,399.63a10.16,10.16,0,0,1-1.15,2.73,6.88,6.88,0,0,1-1.76,2.12,8,8,0,0,1-6.54-3.21,12.38,12.38,0,0,1-8.54,3.63,10.35,10.35,0,0,1-4.12-.76,8.91,8.91,0,0,1-3-2,8.32,8.32,0,0,1-1.82-2.94,10.1,10.1,0,0,1-.61-3.48,10.5,10.5,0,0,1,.94-4.57,9.16,9.16,0,0,1,2.57-3.27,11.41,11.41,0,0,1,3.81-2,15.9,15.9,0,0,1,4.66-.67q1.39,0,2.45,0t1.85.09v-1.16q0-3.86-3.94-3.86-2.54,0-8.9,2-1.82-2.12-2.3-6.6,1.45-.54,3.24-1t3.66-.85q1.88-.36,3.69-.58a28.76,28.76,0,0,1,3.27-.21,13.84,13.84,0,0,1,4.09.61,9.85,9.85,0,0,1,3.45,1.85,8.77,8.77,0,0,1,2.36,3.21,11.47,11.47,0,0,1,.88,4.69v12.29A4.4,4.4,0,0,0,521.32,399.63ZM503,395.09q0,2.85,3.27,2.85a6.29,6.29,0,0,0,3.82-1.76v-4.84l-2-.09-1.24,0Q503,391.21,503,395.09Z"/><path class="cls-3" d="M537.61,380.74V404q-1,.18-2.24.27t-2.48.09q-1.27,0-2.51-.09a22.59,22.59,0,0,1-2.27-.27v-20q0-3.51-2.85-3.51h-.91a11.12,11.12,0,0,1-.36-3.21,13.63,13.63,0,0,1,.36-3.39l2.91-.21q1.33-.09,2.42-.09H531a6.22,6.22,0,0,1,4.84,1.94A7.56,7.56,0,0,1,537.61,380.74ZM527,361.6a9.35,9.35,0,0,1,4.54-1,8.46,8.46,0,0,1,4.42,1,8.86,8.86,0,0,1,0,7,10,10,0,0,1-4.6.91,8.54,8.54,0,0,1-4.36-.91,8.85,8.85,0,0,1,0-7Z"/><path class="cls-3" d="M562.13,373.71a15.88,15.88,0,0,1,.36,3.36,15,15,0,0,1-.36,3.3l-7.21-.12v13.93q0,2.85,2.66,2.85H561a12.06,12.06,0,0,1,.79,4,10,10,0,0,1-.24,2.63,61.27,61.27,0,0,1-8.24.61q-7.63,0-7.63-8.44V380.31l-4.72.06a12,12,0,0,1-.42-3.27,13.34,13.34,0,0,1,.42-3.39l4.72.12v-3.51q0-3.09,1.18-4.39a5.15,5.15,0,0,1,4-1.3h3.69l.42.42v8.78Z"/><path class="cls-3" d="M579.21,380.74V404q-1,.18-2.24.27t-2.48.09q-1.27,0-2.51-.09a22.59,22.59,0,0,1-2.27-.27v-20q0-3.51-2.85-3.51h-.91a11.12,11.12,0,0,1-.36-3.21,13.63,13.63,0,0,1,.36-3.39l2.91-.21q1.33-.09,2.42-.09h1.33a6.22,6.22,0,0,1,4.84,1.94A7.56,7.56,0,0,1,579.21,380.74Zm-10.6-19.14a9.35,9.35,0,0,1,4.54-1,8.46,8.46,0,0,1,4.42,1,8.86,8.86,0,0,1,0,7,10,10,0,0,1-4.6.91,8.54,8.54,0,0,1-4.36-.91,8.85,8.85,0,0,1,0-7Z"/><path class="cls-3" d="M612.4,384v12.41q0,4,1.45,6a8,8,0,0,1-5.51,2.06q-3.15,0-4.3-1.45a7.05,7.05,0,0,1-1.15-4.42V385.7a6.41,6.41,0,0,0-.54-3,2.21,2.21,0,0,0-2.12-1,5.38,5.38,0,0,0-2.06.49,8.58,8.58,0,0,0-2.36,1.57V404q-1,.18-2.24.27t-2.48.09q-1.27,0-2.48-.09t-2.24-.27V373.77l.42-.42h3.57a4.88,4.88,0,0,1,5,3.63q4.24-3.75,8.42-3.75a7.57,7.57,0,0,1,6.45,2.94A12.73,12.73,0,0,1,612.4,384Z"/><path class="cls-3" d="M637.89,375.71a3.95,3.95,0,0,1,7.54-.24,7.41,7.41,0,0,1,1.06,2.67q-1.69,1.15-1.69,4.36v16a40.55,40.55,0,0,1-.88,9.23,14.15,14.15,0,0,1-2.66,5.81,9.36,9.36,0,0,1-4.51,3,21.7,21.7,0,0,1-6.42.85,31.19,31.19,0,0,1-11.39-2,11.76,11.76,0,0,1,.67-3.69,9.56,9.56,0,0,1,1.64-3.15,20,20,0,0,0,8.24,1.82q6.12,0,6.12-6.12v-2a11.61,11.61,0,0,1-6.9,2.36,9.07,9.07,0,0,1-8.15-4.27q-2.75-4.27-2.75-11.6a21.76,21.76,0,0,1,.94-6.63,15.55,15.55,0,0,1,2.57-5,11.4,11.4,0,0,1,3.78-3.15,10,10,0,0,1,4.57-1.09A12.24,12.24,0,0,1,637.89,375.71Zm-2.3,19.2v-13a6.07,6.07,0,0,0-4-2.06q-4.15,0-4.15,9.08,0,8,3.6,8A6.38,6.38,0,0,0,635.59,394.91Z"/><path class="cls-3" d="M676.16,380.74V404q-1,.18-2.24.27t-2.48.09q-1.27,0-2.51-.09a22.57,22.57,0,0,1-2.27-.27v-20q0-3.51-2.85-3.51h-.91a11.15,11.15,0,0,1-.36-3.21,13.67,13.67,0,0,1,.36-3.39l2.91-.21c.89-.06,1.7-.09,2.42-.09h1.33a6.22,6.22,0,0,1,4.84,1.94A7.56,7.56,0,0,1,676.16,380.74Zm-10.6-19.14a9.35,9.35,0,0,1,4.54-1,8.46,8.46,0,0,1,4.42,1,8.87,8.87,0,0,1,0,7,10,10,0,0,1-4.6.91,8.54,8.54,0,0,1-4.36-.91,8.85,8.85,0,0,1,0-7Z"/><path class="cls-3" d="M709.35,384v12.41q0,4,1.45,6a8,8,0,0,1-5.51,2.06q-3.15,0-4.3-1.45a7.05,7.05,0,0,1-1.15-4.42V385.7a6.41,6.41,0,0,0-.55-3,2.21,2.21,0,0,0-2.12-1,5.38,5.38,0,0,0-2.06.49,8.57,8.57,0,0,0-2.36,1.57V404c-.69.12-1.43.21-2.24.27s-1.64.09-2.48.09-1.68,0-2.48-.09-1.55-.15-2.24-.27V373.77l.42-.42h3.57a4.88,4.88,0,0,1,5,3.63q4.24-3.75,8.42-3.75a7.58,7.58,0,0,1,6.45,2.94A12.74,12.74,0,0,1,709.35,384Z"/><path class="cls-3" d="M746,395.82h10.52a24.34,24.34,0,0,1-.3,4.15,4.71,4.71,0,0,1-1.94,3,6.92,6.92,0,0,1-4.3,1.24H736.29a5.23,5.23,0,0,1-5.63-5.63V362.63l.42-.42h3.55q5.66,0,5.66,6.18v27.68Q743,395.82,746,395.82Z"/><path class="cls-3" d="M772.27,380.74V404c-.69.12-1.43.21-2.24.27s-1.63.09-2.48.09-1.69,0-2.51-.09a22.52,22.52,0,0,1-2.27-.27v-20q0-3.51-2.85-3.51H759a11.15,11.15,0,0,1-.36-3.21,13.67,13.67,0,0,1,.36-3.39l2.91-.21q1.33-.09,2.42-.09h1.33a6.21,6.21,0,0,1,4.84,1.94A7.55,7.55,0,0,1,772.27,380.74Zm-10.6-19.14a9.36,9.36,0,0,1,4.54-1,8.45,8.45,0,0,1,4.42,1,8.85,8.85,0,0,1,0,7,10,10,0,0,1-4.6.91,8.54,8.54,0,0,1-4.36-.91,8.85,8.85,0,0,1,0-7Z"/><path class="cls-3" d="M805.45,384v12.41q0,4,1.45,6a8,8,0,0,1-5.51,2.06q-3.15,0-4.3-1.45a7.05,7.05,0,0,1-1.15-4.42V385.7a6.41,6.41,0,0,0-.55-3,2.21,2.21,0,0,0-2.12-1,5.37,5.37,0,0,0-2.06.49,8.58,8.58,0,0,0-2.36,1.57V404q-1,.18-2.24.27t-2.48.09q-1.27,0-2.48-.09t-2.24-.27V373.77l.42-.42h3.57a4.88,4.88,0,0,1,5,3.63q4.24-3.75,8.42-3.75a7.58,7.58,0,0,1,6.45,2.94A12.74,12.74,0,0,1,805.45,384Z"/><path class="cls-3" d="M836.09,391.94H820.35a6.8,6.8,0,0,0,1.39,4.19,5.17,5.17,0,0,0,4.16,1.5,16.09,16.09,0,0,0,3.35-.41,31.08,31.08,0,0,0,4.37-1.35,9.65,9.65,0,0,1,2.47,5.57,19.93,19.93,0,0,1-11.87,3.45,15,15,0,0,1-6.39-1.21,10.77,10.77,0,0,1-4.18-3.39,13.59,13.59,0,0,1-2.27-5.15,29.62,29.62,0,0,1-.67-6.48,22.81,22.81,0,0,1,.82-6.27,14.3,14.3,0,0,1,2.48-5,11.56,11.56,0,0,1,4.24-3.33,14,14,0,0,1,6-1.21,13.54,13.54,0,0,1,5.24,1,11.33,11.33,0,0,1,6.48,6.72,14.67,14.67,0,0,1,.88,5.15A21.41,21.41,0,0,1,836.09,391.94Zm-15.81-6.54h7.93v-.67a6.43,6.43,0,0,0-1-3.69,3.36,3.36,0,0,0-3-1.45,3.22,3.22,0,0,0-2.85,1.36A9.1,9.1,0,0,0,820.29,385.4Z"/><path class="cls-3" d="M840.21,401.93a10.36,10.36,0,0,1,.82-3.45,9.4,9.4,0,0,1,1.79-3,18.74,18.74,0,0,0,8.42,2.54,4.87,4.87,0,0,0,2.6-.58,1.75,1.75,0,0,0,.91-1.54q0-1.82-2.79-2.73l-3.33-1.27q-7.57-2.78-7.57-9.08a9.07,9.07,0,0,1,3.18-7.3q3.18-2.69,8.57-2.7a25.79,25.79,0,0,1,5.87.76,24.52,24.52,0,0,1,5.27,1.79,8.66,8.66,0,0,1-.67,3.72,6.32,6.32,0,0,1-1.94,2.88,21.6,21.6,0,0,0-8.48-2.3,2.77,2.77,0,0,0-1.85.54,1.76,1.76,0,0,0-.64,1.39q0,1.45,2.3,2.3l3.76,1.33q8.05,2.85,8.05,9.75a8.75,8.75,0,0,1-3.33,7.21q-3.33,2.66-9.51,2.66A22.94,22.94,0,0,1,840.21,401.93Z"/></svg>