<svg xmlns="http://www.w3.org/2000/svg" viewBox="0 0 353.65 172.4"><defs><style>.cls-1{fill:#fff;}.cls-2{fill:#0c0c0c;}.cls-3{fill:none;}.cls-4{fill:#ba2b1a;}.cls-5{fill:#e9cc0c;}</style></defs><title>Asset 4</title><g id="Layer_2" data-name="Layer 2"><g id="Layer_3" data-name="Layer 3"><path class="cls-1" d="M154.1,172.4s-3.64-2.5-7.14-4.45c-2.8-1.56-14.41,1.16-32.86,1.57-25.61-2-42.52-14.17-49.89-37.52-2.13-6.59-2.48-14.19-1.34-22.64A63,63,0,0,0,61.43,85,82.67,82.67,0,0,0,45.26,57.23c11.26-5.7,16.85-16.08,17.15-30.82,18.79,10,34.51,6.91,46-14.29h0c20.95,12,35.94,6.26,46.65-12.12,8,12.37,18.25,18.25,30.82,17.15a82.67,82.67,0,0,0,.91,32.16,63,63,0,0,0,11.6,21.42c5.43,6.58,9.14,13.23,10.8,19.95,6,23.73-1.9,43-22.61,58.18-15.9,9.38-27.19,13.19-28.75,16-1.95,3.5-3.74,7.55-3.74,7.55Z"/><path class="cls-2" d="M110.75,20.33c9.56,4.36,18.43,5.42,26.45,3.13,6.78-1.93,12.86-6.24,18.15-12.83a41.28,41.28,0,0,0,10.37,8.44,34.44,34.44,0,0,0,13.13,4.22,87.54,87.54,0,0,0,1.88,27.44l.06.27.09.26a69.54,69.54,0,0,0,12.74,23.47c5,6,8.16,11.88,9.53,17.44v0c5.28,20.75-1.26,37.58-20,51.44-7.07,4.16-13.12,7.14-18,9.55-7.32,3.61-11,5.42-12.77,8.62-.29.52-.57,1-.85,1.57L150,162.5c-3.2-1.78-7.28-1.38-15.4-.6-5.41.53-12.12,1.18-20.32,1.37C91,161.38,76.6,150.54,70.15,130.12v0c-1.77-5.45-2.13-12.13-1.1-19.85a69.54,69.54,0,0,0-1.55-26.66l-.06-.27L67.34,83a87.53,87.53,0,0,0-12.87-24.3A34.44,34.44,0,0,0,63.4,48.23a41.29,41.29,0,0,0,4.36-12.64c8,2.81,15.4,3.27,22.17,1.33,8-2.28,15-7.86,20.81-16.6m-2.34-8.21c-5.73,10.56-12.5,16.62-20.18,18.81s-16.39.48-25.82-4.52c-.3,14.75-5.89,25.13-17.15,30.82A82.67,82.67,0,0,1,61.43,85a63,63,0,0,1,1.44,24.31c-1.14,8.45-.8,16.06,1.34,22.64,7.38,23.35,24.28,35.53,49.89,37.52,18.45-.41,30.06-3.13,32.86-1.57,3.5,1.95,7.14,4.45,7.14,4.45s1.79-4,3.74-7.55c1.56-2.8,12.85-6.61,28.75-16,20.71-15.19,28.66-34.46,22.61-58.18-1.66-6.72-5.37-13.37-10.8-19.95a63,63,0,0,1-11.6-21.42,82.67,82.67,0,0,1-.91-32.16C173.32,18.25,163.1,12.37,155.06,0c-5.38,9.22-11.83,15.25-19.57,17.46s-16.65.61-27.08-5.34Z"/><path class="cls-3" d="M154.1,172.4s-3.64-2.5-7.14-4.45c-2.8-1.56-14.41,1.16-32.86,1.57-25.61-2-42.52-14.17-49.89-37.52-2.13-6.59-2.48-14.19-1.34-22.64A63,63,0,0,0,61.43,85,82.67,82.67,0,0,0,45.26,57.23c11.26-5.7,16.85-16.08,17.15-30.82,18.79,10,34.51,6.91,46-14.29h0c20.95,12,35.94,6.26,46.65-12.12,8,12.37,18.25,18.25,30.82,17.15a82.67,82.67,0,0,0,.91,32.16,63,63,0,0,0,11.6,21.42c5.43,6.58,9.14,13.23,10.8,19.95,6,23.73-1.9,43-22.61,58.18-15.9,9.38-27.19,13.19-28.75,16-1.95,3.5-3.74,7.55-3.74,7.55Z"/><path d="M149.64,156.73c-3.91-1.07-8.46-.63-15.45,0-5.25.51-11.74,1.14-19.6,1.34-20.79-1.77-33.15-11.06-38.88-29.19l0-.08c-1.5-4.63-1.79-10.45-.88-17.31a75.19,75.19,0,0,0-1.65-28.79L73,82.24l-.17-.5A92.15,92.15,0,0,0,62.14,60.08,41.52,41.52,0,0,0,72,43.19a39.22,39.22,0,0,0,19.63-.3c8.09-2.31,15.21-7.37,21.24-15.11,9.21,3.39,17.93,3.94,26,1.64a39.25,39.25,0,0,0,16.85-10.1A41.51,41.51,0,0,0,173,28.47a92.14,92.14,0,0,0,2.31,24.05l.12.51.16.5a75.18,75.18,0,0,0,13.77,25.34c4.39,5.34,7.21,10.44,8.38,15.17l0,.08c4.69,18.43-.92,32.84-17.65,45.3-6.78,4-12.64,6.86-17.36,9.2C156.5,151.73,152.4,153.75,149.64,156.73Z"/><line x1="158.32" y1="15.57" x2="72.21" y2="129.12"/><rect class="cls-1" x="44.01" y="68.66" width="142.51" height="7.37" transform="translate(-12.03 120.47) rotate(-52.82)"/><line x1="182.59" y1="63.47" x2="109.64" y2="159.12"/><rect class="cls-1" x="85.97" y="107.61" width="120.29" height="7.37" transform="translate(-30.98 160.01) rotate(-52.67)"/></g><g id="Layer_2-2" data-name="Layer 2"><g id="Layer_1-2" data-name="Layer 1"><g id="path10"><path class="cls-4" d="M173.8,6,296.55,32.84l-19,86.93c-1.5,5.54-5.18,13.31-10.26,20.26-5.6,7.63-12.58,14.37-17.44,17.28-9.75,5.83-24.41,15-47.57,12.45h0c-22.1-7.37-31.61-21.81-38-31.18-3.19-4.67-6.71-13.73-8.59-23-1.74-8.45-1.83-17-.86-22.69Z"/></g><g id="path12"><path class="cls-5" d="M210.25,38.6l-2.05,1.57-.55,2.77,1.12,2.42,3.6,1.89,2.65.48,4,.44,4.2,1.12,1.14-1-2.49-1.95L217,45.39,213,44.18l-2.24-1.69-.68-2.55Z"/></g><g id="path14"><path class="cls-1" d="M192.84,21.25,191.27,20l-5.28.59-1.44,1.09-.8,3.63-2.31.51L179,30.48l.62,2.95L182.29,35l2.13-.53,2,3.14-2.2,1.47-.87,2.74,1.79,3.53,1.92.52,2.33-1.79L191,47.83l-1,1.79-2.08-.17,1.4,2.43,2,1.08-2.25.61-1.59,3.05,3-.26,2,4,2.28.95-1.82,2.84-.07,1.63,2.33-.59,3-.18L196,67.17,195.47,70l0,2-14,4.42-4.41-.54-2-2.89-3-.92-3.68.54-1.21,1.53.14,2.13-2.39.88-.83,6.11L165.57,85l1.79.39-.23,1.31.69,2.25,3.5,2.07,2.83-.16,2.29-1.82.47-2.16,4.15.22,1,1.94,2.62,1.23,2.65-.38,1-1,.75-2.67,3.7.22L194,88.68l2.7-1.73-.52,4.12,1,2.25,1.29-3.77,3.92-1.63,1.89,3.92,1-3.63,2.44-1.08,5.88,7.11,6.48,8-4.07-1.87,2.84,5,.58,2.08-.39.65-6.56-2.6-11.78-1.18-2.95-2-.27-1.83,1-1.32-3.58.07-2.08,1.7-.26,2.29L188.26,102l-4.6,1.09-4.22,2.7,4.68.23,9.58,3.44-3.16,3.38-3,6.29-3.57.95-3.54-.29-2.86-1.2.06-4-1-1.79-5.44-.19-1.71,1.74-2-.75-1.56.31L163.28,118l.61,3.17,2.75,1.66-1.26,1.29.28,2.55,1.71,2.8,2.09,1,2.05-.63,1.56-1.43,2.6.22-.07,1.72,2,2.51,2.62.7,1.7-.79.82-2,2,0,1.65,3.23,2,1.72-.77-4.22,2.89,2.71,1.34-.05-1.8-3.57,3.93,1.21,6.53.33-1.58-2.83.94-4.68L201.5,121l.51-1.68,6,1,8.82-.27-3.72,8.61-2.58,1.63-2.78.21-1.55-.93.23,2.56,2.35,1.47,2.54.11-2.57,3.47-1,4.55,1.16,4,2.23-4.3,3.57-3.11,2-2.91,3.19,6.34-1,2.34-7.55,6.21-5.18-.52-3,2.63-.59,2.33.74,1.83-1.88,1.87.47,4,4.13,2.51,2.79-.85,1.37-1.31,2.56,2.64,4.57-.69,2-1.7.77-2.58L219,158.89l2.23-1.33,1.84,1.08,3-.41.93-4.89,2.79-.45.38-1.73,2.23-.12,1.27-.86-2.06-.72-1.12-1,2.73-.48,1.56-1.65,2.07-.63.32-.81-2.7-.71,2.3-1.39,3-3.53-3.72-.61-3.86-4.7-2.63-3.14,2.32-7.64,1.38-8.74,2.28,6,7.32,9.81,3.05,6.25.16,4.13-1,4.31,3.58-3.33L250.5,138l.06-5,3.27,2.39,4.83.53,4.78-.72.78-.68-3.51-1.3-5.82-3.27,5.18-1.06,3.75-4.56-3,1-5.24.85-2.72.87,2.47-3.55,1.17-4,2.4-.55,2.85-2.33,1.08-2,3.84-1.93,2-3.52,3-2.05,1.09-3.3,1.95-1.83,1.4-4.64,2.06-2.14,1.16-4.53,1.42-2.87-.09-3.2,1.25-3-.29-1.39-2.47,1.52-5.49,2.48.18-4.54L272,72.11l-2.32-5.76-1.12-1.94-5.12,3.2L266.58,74l.64,9.73-2.16,9.38-4.78,11.76-1-.14,0-5.34-2-4-1.14,3.07-3.55,5.68-2.45-12.33.77-7.31L253.26,78,257.62,72l5.82-5.08L268.57,64l3.73.08,3,2,.06,2.87,1.24-.28,2.31-2.94L278,62.82l3-1.83,1.93-4.65,1.35-1.72.66-4.4,1-2.58-.56-5,.26-3.61-.9-.93-3,4-3.16,3.65-1,1.55-1.35-2.58-3.47-.62L270.19,46l2.68,1.18L274,49l-.39,2.79-2.42,3.6L265,59.68l-10.32,8.43-5.53,7.1-1.73,3.53-2.12-2.52L243.58,75l-1.13-1.65L241,75.72l.27,3.89L240,81.75l.52,4-1.06,2.42,1,3.17-.66,3.77L241,98.5l.07,4.43,1.73,2.88.45,3,2.95,3,.56,2.83,2.36,3.1,1,.58-1.41,3.74-2.23,1.06-2.68-1.18-3.95-7.56-4.94-19.88-2.31-9.35L235,86l-1-2.68-1-3.08.23-1.44,1.4-.43,1.82-2.72,1.12-3.6.81-4.08,2,2,2.69,1.57,1.23-.06-1.23-2.57-.81-6.06,1.23-2.28,0-3.09.94-1.06.34-2.57-.68-1.62,2.45-1.15,1.18-2,.33-1.52-1.48.53-2.2-.48-1.67-1-.6-1.17,2.69-2.16.49-2.72,0-3-1.14-.57-2.63.38-.67-.78-16.37-3.69-2,1-1.82,1.5-4.21,1-1.8,1,.75,1.61-.19,1.89,2.14,1.57.91.12,0,1.41,1.1,1.57.8-2.17,1.1-1.49,2.54.78,1,1.66-.32,2,.33,1.29-1.22,1.83-1.89-.19-1.66-2.93-.49-.07L219,48.5l-2.61,2.14-1.18,2.14,2.49.08,2.7,1.26-6.19,3.53-2.37-.7V54.61l-2.44,1.28-2.49-5.27-7.46-11-2.26-5.22.52-2.39,1.94-2.18-.08-2.52-3.06-3.69-1.34-.29-1.83.82Z"/></g><g id="path16"><path class="cls-1" d="M259.28,64l6.09-4.63-2-4.94-.56-4.22.69-3.13,2.1-1.33,1.7.78-.43-2.15L264.79,43h-2.28l-2.67,2-.25-1.46-.49-4.45.43-3.84.65-3-2.4,1.92-1.39,2.65-2.5,1.75-1.2,3.24.1,1.75-1.3,1-.64,3.3.73,2.36L250.71,52l.06,2.32,1.13,2.28-2,1.53-.39,2.54.53,1.66,1.17,1.34.94-2.42,2.63-.4L257.45,62Z"/></g><g id="path18"><path class="cls-5" d="M225.24,22,224,22l.94,3.69-.25,7.2L241,36.52l2-5.11,3.17-5-1.35-.15-2.84,1.6L240,27.68l-.82.29-1.85-1.71-.54-.69-.81-2.7-1.55-.28-2.68,2.28-1.5.16-1,.81-1.49-1.4-.86-.17Z"/></g><g id="path20"><path d="M232.66,112.9a66.64,66.64,0,0,1-1.27,9.68c-.32,1.46-.72,2.82-1,4.21-.19.75-.44,1.55-.67,2.24-.06.19-.52,1.33-.61,1.76a12.34,12.34,0,0,0,1.13,1.35c.19.26,1.18,1.42,1.4,1.77l1.51,2.22c.89,1.32,1.81,2.62,3.38,3.08a9.18,9.18,0,0,0,2.64.42,5.15,5.15,0,0,1-.66.79,2,2,0,0,1-.47.37,2.76,2.76,0,0,1-1.19.33,14.45,14.45,0,0,1-2.68-.3,3.61,3.61,0,0,0-1.16-.17c-.15,0-.07.21,0,.36.09.41,2,.62,2.69.75a9.52,9.52,0,0,0,1.22.1c-.29,1.32-3.12,1.6-4.24,1.51-.68,0-1.55-.18-1.83.07-.18.43,1.93.77,2.89,1,.33.09,3,.45,2.73.74a1.94,1.94,0,0,1-1,.55,10.73,10.73,0,0,1-2.19.15,12.91,12.91,0,0,1-2.73-.46c-.31-.07-.6.23-.17.41s.9.28,1.41.45,2.24.37,2,.67a2.73,2.73,0,0,1-1.08.74,10.59,10.59,0,0,1-2.71.08c-1.48-.2-1.85-.3-1.84,0,0,.08.18.12.27.16a11.29,11.29,0,0,1,3.14,1.75,2.87,2.87,0,0,0,.43.18,4.28,4.28,0,0,1,1.15.42c-.22.56-3.81.45-4.34.35s-2.6-.86-2.71-.39c-.2,1.08,3.19,1.17,3.47,2.37-.61-.18-2.46.54-3.22.21a4.67,4.67,0,0,0-1-.39c-.29-.06-.32-.11-.46.41-.06.27,0,.34.25.42.72.24,1.27.44,1.31,1.26l1.19,1.36a4.15,4.15,0,0,0,.16-1.11,3.67,3.67,0,0,0-.24-.87c-.35-.54,1.33-.6,2.14-.67a3.45,3.45,0,0,0,1.94-.88s.12-.16.1-.16a6.28,6.28,0,0,1-1.09-.52,19.17,19.17,0,0,0,2.23-.51,7.91,7.91,0,0,0,1.09-.78c.2-.16.3-.18.25-.41,0,0-.12-.09-.26-.14-.3-.13-.76-.25-1.14-.37-.17-.06-1.26-.3-1.34-.6s.77-.26.94-.3a5,5,0,0,0,1.59-.75,4.64,4.64,0,0,0,.7-.66c.05,0,.23-.32.32-.44a5.18,5.18,0,0,0,2.91-1.95.79.79,0,0,0,.16-.37c0-.18-.08-.18-.26-.2-.38,0-1,.06-1.31,0-1.16-.21,0-.81,1-1.56.19-.57.81-1,1.21-1.34.87-.81,1.25-1.15,1.44-1.94.07-.21.15-.4,0-.55a.79.79,0,0,0-.41-.19c-.33-.05-.7-.07-1-.1-.12,0-.55,0-.76,0a4.29,4.29,0,0,1-1-.29c-1.19-.42-3.13-2.82-3.55-3.77a14.28,14.28,0,0,0-3.31-3.86,84.32,84.32,0,0,0,3.47-14.37Z"/></g><g id="path22"><path d="M218.24,158.36l1.25.72a5.47,5.47,0,0,0,.86-.4,3.15,3.15,0,0,0,.92-.78l-.59-.76a3,3,0,0,1-1.12.85A5.1,5.1,0,0,1,218.24,158.36Z"/></g><g id="path24"><path d="M207.95,57.49l.64-.86c-.93-1.32-1.88-3.41-3-5-.62-.87-2.28-4-2.77-3.89-.43.66,1.42,2.84,2.32,4.48.43.75.88,1.37,1.38,2.36.2.41.49.74.73,1.22A7.31,7.31,0,0,1,207.95,57.49Z"/></g><g id="path26"><path d="M199.84,30.13l-.92,0c-.36.88-2,1.46-2.21,2.94-.29,1.79.86,4,1.74,5.72.46.89,3.58,5.81,4.07,6.35,1.45,2.31,3.24,4.56,4.59,7.05a12.61,12.61,0,0,1,1.1,2.32,4.72,4.72,0,0,1,.14,1.8c.63-.27.71-.74,1.28-1.08-.82-1.46-1.43-3.35-2.38-4.86-.85-1.33-2.65-3.72-3.43-5-.91-1.5-2.84-4-3.75-5.69A28.83,28.83,0,0,1,198,34.46a2.39,2.39,0,0,1,.63-2.51A4.27,4.27,0,0,0,199.84,30.13Z"/></g><g id="path28"><path d="M216.57,40.44c-.17.33.5.43.69.19S216.7,40.12,216.57,40.44Z"/></g><g id="path30"><path d="M218.8,40.38c-.12,0-.34,0-.37.18s.18.37.4.33S219.12,40.44,218.8,40.38Z"/></g><g id="path32"><path d="M217.62,39.2a.31.31,0,0,0,.2.37c.17.08.48.06.41-.21S217.71,38.79,217.62,39.2Z"/></g><g id="path34"><path d="M238.62,37a1,1,0,0,0-.36,0c-.16.07.3.76.4,1.15s.29,1.08.76.82,1-.7,1.69-1.1a4.84,4.84,0,0,1,1.4-.43,8.25,8.25,0,0,1,1.29-.11c1.94,0,.77.84,1,1.86A5.39,5.39,0,0,1,243.24,44a4.41,4.41,0,0,1-3.16.84c-.78-.33-.74-.08-1-.64-.12-.27-.34-.58-.44-.87s-.4-.29-.6,0,.4,1.06.52,1.54.23.7.32,1a6.65,6.65,0,0,0,.17.81,9.32,9.32,0,0,1-1.37,6.42s-.17.15-.19.1c0-1-.33-2.41-.39-3a6.22,6.22,0,0,0-.59-1.84A3.2,3.2,0,0,0,235.39,47a.33.33,0,0,0-.09.33c.09.35.43.75.55,1.14.21.72.46,1.55.54,1.91.2.76.21,3.41.56,4.05a6.12,6.12,0,0,0,.87,1.35,4,4,0,0,0,1.77.86c-1.28.55-3.83-.37-4.42-.95-.86-.84-1.92-2.56-1.82-3.11-1-.28-.09,2.16.15,2.64a4.21,4.21,0,0,1,.69,1.78,3.64,3.64,0,0,1-.28,1.45,11.76,11.76,0,0,1-2.27,3.29c-.24.27-.75.71-1,.93,0,0-.16.09-.14,0l.27-1.53a9.63,9.63,0,0,0-.21-3.43,10.93,10.93,0,0,0-.65-1.49c-.15-.36-.94-1-.89-1.15-.48-.06.12,1.15.4,2.29a8,8,0,0,1,.4,1.62,7.43,7.43,0,0,1-.13,3.39,5.11,5.11,0,0,1-1.5,2.38c-.65.75-1,1.32-2,2.3-.15,0-.23-1.48-.26-1.71a8,8,0,0,0-.87-3.08,14.21,14.21,0,0,1-1-2,3.65,3.65,0,0,1-.29-.84,5.45,5.45,0,0,1,0-.57c-1.37.13.62,4.35.91,5.15a6.38,6.38,0,0,1,.33,1.76,14.83,14.83,0,0,0,.74,4.81,3,3,0,0,0,1.3,1.41c.53.36,1,.35-.11.87a5.32,5.32,0,0,1-3.05,0,4.51,4.51,0,0,1-2.21-1.34c-1.1-1.12-1.57-2.89-2.26-4.18-.42-.78-1.39-2.87-2.22-3.05s.69,1.76.83,2c.9,1.54,1.34,5.14,3.54,6.36a5.25,5.25,0,0,1,.48.31c.12.11-.07.31-.36.73a16.22,16.22,0,0,1-2.16,3.15A7.41,7.41,0,0,1,218.11,78a14.29,14.29,0,0,1-2.85,1.31,2.48,2.48,0,0,1-1,.06c-.63-.12-.08-.12.22-.64a20.15,20.15,0,0,1,1.44-2.37c.26-.37,2.08-2.5,1.54-2.92-2.13,1.26-2.69,3.73-4.09,4.83A17.91,17.91,0,0,1,209,80.69c-.89.05-.41-.19.14-.93.88-1.21,1.69-4,2.27-5.63,1.29-3.65,3.47-3.86,3.81-5.5-.6-.5-3.77,2.78-4.55,3.18a12,12,0,0,1-2.76,1,21.34,21.34,0,0,1-3.22,0c-.35-.06-2.86-.81-2.19-.79a11,11,0,0,0,4.22-1.95,28,28,0,0,1,3.12-1.78.93.93,0,0,0,.35-.29c.06-.09.17-.57.11-.59a42.22,42.22,0,0,0-5.18,2.43,9.73,9.73,0,0,1-3.52,1.18,11.6,11.6,0,0,1-2.66.31c-.52-.13.34-.52.51-.64a10.14,10.14,0,0,0,1.48-1.35l.77-.81c.24-.25.48-.51.73-.74,1-.95,2.3-2.33,3.75-3.54a14.93,14.93,0,0,1,3.37-2.09,6.52,6.52,0,0,0,3.67,0c.3-.08,2.48-1.35,2.2-1.37-1.17-.13-2.6.81-3.73.77a5.52,5.52,0,0,1-2.17-.39,3,3,0,0,1-.86-1c-.67-1.11.3-3.13,1.1-4a5.67,5.67,0,0,1,1.59-1,2,2,0,0,0,1.11,2.65,3.94,3.94,0,0,0,3.15-.16A8.5,8.5,0,0,0,218,56.47a14.91,14.91,0,0,1,4-2.41l-2.62.06c-.74.59-1.88,1.22-2.67,1.76-1.1.74-3.29,2.09-4.29.51-.69-1.11,1.77-2.24.27-2.26-5.3-.18-6.49,6.38-4.57,7.55a43,43,0,0,0-4.14,2.92,17.85,17.85,0,0,0-1.74,1.7c-.42.44-1.32,1.36-1.7,1.81a13.59,13.59,0,0,1-2.38,2.21,11.25,11.25,0,0,1-2.86,1.17c.24.48,1.77,1,2.45,1a13.22,13.22,0,0,0,1.45.09c.39,0,1-.13,1.3-.16a10,10,0,0,0,4.66,1.71,10.17,10.17,0,0,0,2.68-.17,6.09,6.09,0,0,0,2.65-.93,29.4,29.4,0,0,1-1.55,4.77A18.92,18.92,0,0,1,207.62,80a4.76,4.76,0,0,1-.82.86c-.15.13-1.09.41-1.11.51-.4.5.13.88.72.91a6.21,6.21,0,0,0,1.9-.2,7.66,7.66,0,0,0,3.76-1.54,9.41,9.41,0,0,0,3.86-.15,17.09,17.09,0,0,0,3.71-2,12.31,12.31,0,0,0,1.25-1.23,12.15,12.15,0,0,0,1.2-1.65c.33-.5.78-1.52,1.1-2a5.94,5.94,0,0,0,3.7.3A5.25,5.25,0,0,0,229,72.33c.28-.26.16-.43-.24-.48a2.58,2.58,0,0,1-2.14-1.39c-.14-.38-.31-1-.44-1.44a1.69,1.69,0,0,1,0-.68,3,3,0,0,0,1.5-1.26c.71-.92,1.44-1.82,2.17-2.72.17-.23,1.81-1.58,2.36-2.13a9.28,9.28,0,0,0,1.44-1.82,10.42,10.42,0,0,0,1-2.26,5.09,5.09,0,0,0,.13-1.62,6.14,6.14,0,0,0,2.93,1.23,4.83,4.83,0,0,0,2.44-.63,1.9,1.9,0,0,0,.57-.75c.07-.13,0-.17-.18-.18a6.45,6.45,0,0,1-1.45-.36,1.68,1.68,0,0,1-.75-.65c-.7-1-.76-.88-.07-1.71a10.35,10.35,0,0,0,1.49-3.64,9.45,9.45,0,0,0,0-3.92c3,.56,4-.69,4.75-1.42a6.54,6.54,0,0,0,1.2-3.36,12.51,12.51,0,0,0,.07-3.65c-.15-1-.89-1.05-1.64-1.07A7.83,7.83,0,0,0,239.19,38,8.18,8.18,0,0,0,238.62,37Z"/></g><g id="path36"><path d="M226.21,35.85l-.13-.23a9.39,9.39,0,0,1-1.36,1,8.35,8.35,0,0,1-1.68.69c-.59.18-.27-.61-.12-.68.49-.2,1-.33,1.49-.57a7.44,7.44,0,0,0,1.6-1.16c.57,0,1,.87,1.55,1.2a11.52,11.52,0,0,0,1.69.92,6.41,6.41,0,0,0,1.68.41l1.62.23c.38,1.06-2.7.31-3.27.22A6.35,6.35,0,0,1,226.21,35.85Z"/></g><g id="path38"><path d="M228.48,37.42l.63.38c-1.3,3.14-5.67,1.81-4.91-1l.75-.47a3.39,3.39,0,0,0-.21.87,1.08,1.08,0,0,0,.2.78,2.46,2.46,0,0,0,1,.7,2.65,2.65,0,0,0,1,.19,1.86,1.86,0,0,0,1.15-.32A1.42,1.42,0,0,0,228.48,37.42Z"/></g><g id="path40"><path d="M227.62,41.33l.15-.11c2.54.58,3.19,1,4.24,2.33.63.77.71,1.13,1.82.32.46-.35.34,1.42-.37,2a2.66,2.66,0,0,1-1.83.74,2.75,2.75,0,0,1,.32,2,2.49,2.49,0,0,1-.6,1.42,4.83,4.83,0,0,0-.4,1.91,2.34,2.34,0,0,0,1.23,2.49,1.82,1.82,0,0,1-2.41.23,3.68,3.68,0,0,1-1.24-.94c-.21-.35-.38-.78-.58-1.17a2.59,2.59,0,0,1-3.17,1.89,2.31,2.31,0,0,0-.62,1.8c.17.26.47.94,0,1.2-1,.53-2.53-2-2.39-3a7,7,0,0,0-1.82.29c-.56.14-1.09.33-1.7.5a3.4,3.4,0,0,0,.52-.9c.09-.31-.23-.27-.27-.45s.11-.24-.33-.36a4.77,4.77,0,0,0-1.68-.16,3.52,3.52,0,0,1-1.18.09c-.21,0-1.42-.29-1.37-.54,1.79-1.4,2.62-3.42,4.59-4.7,1-.62,3,.38,4.3.66.7.15.94-.22,1.27-.76.71-1.11-.14-1.31-.11-1.84.6-1.8.25-3.49-1.67-3.81-1.57-.28-3.23.53-4.67.4-1.64-.14-3.22-1.56-2.89-3.1a4,4,0,0,0,.18-1.08,1.4,1.4,0,0,1-.5-1.33c.22-1,.7-.78,1.36-1.11,1.26-.37,2.53-1.12,3.71-1.12a2.24,2.24,0,0,0,1.86-1,3.79,3.79,0,0,1,1.84-1.13,9.17,9.17,0,0,1,1.11-.23c1.1-.37,1.11.34.88.52a24.75,24.75,0,0,0-2.7,1.08,11,11,0,0,1-1.22,1.1c-.14.07-.61.25-1.14.44s-.87.16-1.58.33a9.89,9.89,0,0,0-2,.66c-.53.35-1.55.58-1.12,1.12.16.22.23.27.57.21s1.41-.2.89.23-1.26.36-1.19,1.16c.09,1,.18,1.59,1.06,1.94a9.7,9.7,0,0,0,4.15,0,3.61,3.61,0,0,1,2.27.15,5.45,5.45,0,0,1,1.18.77,3,3,0,0,1,.72,1.18c.35.91-.44,2.47.09,3,.08.08.23.25.08.83a5.06,5.06,0,0,1-.42,1.27,2,2,0,0,1-1.85,1c-.77-.19-1.55-.36-2.33-.53-1.32-.29-1.6-.51-2.6.23A11,11,0,0,0,216.2,52c0,.07-.38.51-.32.52a5.53,5.53,0,0,0,2-.59,7.43,7.43,0,0,1,.72-.41,1.83,1.83,0,0,1,.57-.28c.45.1-.34.82-.42.91-.82.84.33.62.69.5a6.62,6.62,0,0,0,1-.64,4.29,4.29,0,0,1,.84-.51c.52,0,.18.41,0,.54-.26.33-2.62,1.91-.74,1.41a7.16,7.16,0,0,0,1.37-.49c.34-.25.66-1,1-1,.45.26-.24,1.27-.29,1.52-.14.66-.07,2.47.66,2.4.19,0,.49-1.5.68-1.7a5.39,5.39,0,0,0,1.43-2.72c.11-.42.56-.06.62,0,.2.37-.57,1.4-.72,2.18.28.22,1,0,1.25-.13a2.1,2.1,0,0,0,.64-1.88,17.23,17.23,0,0,0-.49-1.88c1.45-.38,1.92,3.78,3.56,4.14a6.59,6.59,0,0,1-.21-1.64,8,8,0,0,1,.24-1.47,2.5,2.5,0,0,0,0-1.5,6.34,6.34,0,0,0-.64-1A3.76,3.76,0,0,0,227.89,47c.21-.57,1.31-.12,1.7.13a3.75,3.75,0,0,1,1,1.12c.08.12.31.64.35.65.21.23.36-.92.21-1.16s-.31-.74-.52-1.07a12.13,12.13,0,0,0-2.71-2.14l-.15-.07a2.23,2.23,0,0,1,2.67.83,1.77,1.77,0,0,0,2.6,0,5.23,5.23,0,0,1-2.77-1.79C229.44,42.42,227.41,42,227.62,41.33Z"/></g><g id="path42"><path d="M243,42.54l-.13,0c-.28.26-1,.78-1.26.19-.17-.34-.13-.6,0-1.26s.34-1.66.84-2c.31-.2.8-.38.9.09,0,.11-.07,1,0,1,.56.12.87-2.13-.09-2.12a1.87,1.87,0,0,0-1.15.34c-.95.61-1,2.51-1.34,3.62C240,44.34,242.63,44.13,243,42.54Z"/></g><g id="path44"><path class="cls-5" d="M200.18,22.18a5.61,5.61,0,0,1-.89,1.07,9.74,9.74,0,0,1-2,1.2,1.56,1.56,0,0,0-.3,2.68C198.85,28.81,201.43,23.45,200.18,22.18Z"/><path d="M197.4,27.93a1.75,1.75,0,0,1-.78-.41,2.15,2.15,0,0,1-.79-1.81A2.26,2.26,0,0,1,197,24a9.18,9.18,0,0,1,.84-.44,3.68,3.68,0,0,0,1.08-.67l.39-.43a2.15,2.15,0,0,0,.41-.52l.31-.63.49.5a2.7,2.7,0,0,1,.29,2.62,6.52,6.52,0,0,1-1.44,2.66A2.15,2.15,0,0,1,197.4,27.93Zm2.6-4.71-.33.37a4.41,4.41,0,0,1-1.4.91,8.44,8.44,0,0,0-.75.4,1.3,1.3,0,0,0-.69.93,1.19,1.19,0,0,0,.46,1c.14.12.57.5,1.37-.34a5.56,5.56,0,0,0,1.2-2.23A3.67,3.67,0,0,0,200,23.21Z"/></g><g id="path46"><path class="cls-5" d="M186.09,16.9a6.84,6.84,0,0,1,.78,3.78,1.79,1.79,0,0,0,1.91,1.78c2.08-.38,1.78-2,.88-3.47a5.2,5.2,0,0,0-2.39-1.91A4.49,4.49,0,0,0,186.09,16.9Z"/><path d="M188.17,22.93a2.3,2.3,0,0,1-1.12-.63,2.06,2.06,0,0,1-.67-1.71,6.44,6.44,0,0,0-.74-3.47l-.35-.69.77,0a4.28,4.28,0,0,1,1.2.16l.12,0h0a5.69,5.69,0,0,1,2.67,2.12,3.37,3.37,0,0,1,.6,3,2.27,2.27,0,0,1-1.82,1.2A1.83,1.83,0,0,1,188.17,22.93Zm-1.26-5.43a6.6,6.6,0,0,1,.46,3.25A1.31,1.31,0,0,0,188.7,22a1.35,1.35,0,0,0,1.08-.62,2.58,2.58,0,0,0-.54-2.09,4.76,4.76,0,0,0-2.1-1.68l-.12,0Z"/></g><g id="path48"><path class="cls-5" d="M177.44,27.4a4.94,4.94,0,0,1,1.56-.82,3.09,3.09,0,0,1,3,.48,1.57,1.57,0,0,1,.7,1.92,1.36,1.36,0,0,1-1.32,1.1c-1.12.16-1.48-.3-2.22-1C178.91,29,177.49,27.46,177.44,27.4Z"/><path d="M180.4,30.57A3,3,0,0,1,179,29.7l-.21-.19c-.11-.09-.41-.38-1.63-1.68l-.43-.45.37-.35a5.42,5.42,0,0,1,1.76-.93h0a3.62,3.62,0,0,1,3.39.58,2.05,2.05,0,0,1,.87,2.44,1.85,1.85,0,0,1-1.74,1.47A2.76,2.76,0,0,1,180.4,30.57Zm-2.2-3.09c1,1,1.18,1.23,1.23,1.26h0l.22.2c.58.53.82.75,1.59.63.56-.08.79-.26.9-.72.19-.72.06-.94-.53-1.41a2.58,2.58,0,0,0-2.5-.39A5.63,5.63,0,0,0,178.2,27.48Z"/></g><g id="path50"><path class="cls-5" d="M180.82,42.67a7.14,7.14,0,0,0,2.43,1.65c1.24.48,2.59.53,3.18-1.38a1.25,1.25,0,0,0-.13-.88,1.39,1.39,0,0,0-.77-.58,2.48,2.48,0,0,0-1-.18,1.38,1.38,0,0,0-.85.32,3.94,3.94,0,0,1-1.64.86A5.34,5.34,0,0,1,180.82,42.67Z"/><path d="M183.82,45a5.23,5.23,0,0,1-.75-.23,7.55,7.55,0,0,1-2.64-1.8l-.7-.84,1.1,0a4.94,4.94,0,0,0,1.08-.16,3.45,3.45,0,0,0,1.42-.74,1.84,1.84,0,0,1,1.15-.46h0a3,3,0,0,1,1.21.22,1.83,1.83,0,0,1,1,.83l0,0a1.7,1.7,0,0,1,.14,1.19,2.76,2.76,0,0,1-1.35,1.8A2.6,2.6,0,0,1,183.82,45ZM182,43a5.84,5.84,0,0,0,1.45.83,2.18,2.18,0,0,0,1.7.12,1.81,1.81,0,0,0,.82-1.18c0-.15,0-.26-.11-.52h0s-.12-.16-.5-.31a2,2,0,0,0-.78-.14A.9.9,0,0,0,184,42a4.44,4.44,0,0,1-1.85,1Z"/></g><g id="path52"><path d="M227.88,37.82v-.14c0,.14-1.52.34-1.46-.22a.48.48,0,0,1,.18-.37c.3-.26-.37-.94-.8-.52a1,1,0,0,0,.49,1.68C226.65,38.33,227.8,38.19,227.88,37.82Z"/></g><g id="path54"><path d="M220.35,42.24l1.12,0s-.7.7-.77.81a5,5,0,0,0-.42,1,9.27,9.27,0,0,1-.56,1.81c-.64,0-1.65-1.77-1.78-2.28s0-.55.05-1l.71-.09c-.09.41-.27.69,0,1s.37.65.57.92c.35.44.42-.34.51-.72A10.1,10.1,0,0,1,220.35,42.24Z"/></g><g id="path56"><path d="M219.44,48.26l-.89.27a23.91,23.91,0,0,1,.83-2.85c.42-.17,1,.33,1.39.92a3.72,3.72,0,0,0,1.07,1.35,4.9,4.9,0,0,1,.61.83,8.65,8.65,0,0,1-1.4-.33c-.22-.29-.35-.65-.5-.88l-.42-.68c0-.07-.15-.32-.28-.31S219.49,48,219.44,48.26Z"/></g><g id="path58"><path d="M224,48.44l.35-.37c-1.76-2.87-5.86-2.63-8.5-3.33s-3.59-1.11-4.81-2.68a2.77,2.77,0,0,1-.4-2.65c.28-.61.79-1.09.74-1.51-1.29.21-3.17,1.34-3.58,2.68-1.15,3.68.45,5,2.16,6a13.8,13.8,0,0,0,4,1.39,11.23,11.23,0,0,0,2.86.26,1.87,1.87,0,0,1,1.42.39l.72-.41.12-.54c-1.42-.13-2.83-.21-4.27-.43A11.67,11.67,0,0,1,210.51,46a5.57,5.57,0,0,1-2-1.95,3,3,0,0,1-.41-1.27,3.66,3.66,0,0,1,.34-2.12,3.19,3.19,0,0,1,1.49-1.39,4.05,4.05,0,0,0,.11,2.57c1.11,2.93,4.88,3.66,9,4.16a10.67,10.67,0,0,1,2.7.69C222.06,46.79,224.12,48,224,48.44Z"/></g><g id="path60"><path d="M224.8,32.44l16.52,3.62-.2.89L224.6,33.34Z"/></g><g id="path62"><path d="M241.4,36c-.13-.17-.52.31-.76.49s.59.86.7.8.88-.21.69-.44S241.6,36.29,241.4,36Z"/></g><g id="path64"><path d="M222.22,75l-1.46,1.74a15.05,15.05,0,0,0,.08,6.33c.46,1.53,2.12,5.49,4.41,5.9.26-.62-.6-1.17-.6-1.72a6.55,6.55,0,0,1,1-3.28c.4-.81,1.33-2.44,1.74-3.2a11.9,11.9,0,0,0,2.65,3.45,10.58,10.58,0,0,0,6.18,2.37c0-.73-1.23-1.9-1.46-2.52-.51-1.31-1-3.23-1.35-4.37a11.27,11.27,0,0,0,3.74-4.78c.44-1.27,1.56-5,1.33-6.08a12.37,12.37,0,0,0,3,2.41,11.21,11.21,0,0,0,2.34.74,3.15,3.15,0,0,0,1.72-.23c0-.34-.27-.65-.71-.87a1.83,1.83,0,0,1-1-1.16,7,7,0,0,1-.5-1.88,43.88,43.88,0,0,0-.72-4.35c.28-.92.64-1,.93-1.63a7.58,7.58,0,0,0,.42-1.72,7.13,7.13,0,0,0-.06-1.78,6.76,6.76,0,0,0,1.32-4.44,4.29,4.29,0,0,0-.51-1.31c.07-.23-.08-.26.66-.49a5.36,5.36,0,0,0,1.37-.68,3.37,3.37,0,0,0,.64-.69,11.29,11.29,0,0,0,.91-2.31,12.39,12.39,0,0,0,.3-2.28c0,.16-.84.85-1,1a1.79,1.79,0,0,1-1.26.44c-2.19-.4-3.11-1.15-3.55-2l-1.36.27A7.37,7.37,0,0,0,244,48.08a4.9,4.9,0,0,0,1.88.45,2.91,2.91,0,0,0,1.62-.34,4.23,4.23,0,0,1-2.25,3c-1.34.52-1.33-.09-2-.75a5.23,5.23,0,0,0-1.77-1.41c-.46.06-.4.34-.07.68s.72.89.87,1a10.83,10.83,0,0,1,1.82,2.78,4.6,4.6,0,0,1,0,2.21,4.94,4.94,0,0,1-.34,1.07c0-.56-2.57-4.47-3.44-4.66-.74,0-.26.51-.05.8.38.57.83,1.12,1,1.38a14.89,14.89,0,0,1,1.61,3.37,7.22,7.22,0,0,1-.32,4.08c.14-.38-.58-1.9-1.07-2.66s-1-1.65-1.72-1.92l-.82.29a10.57,10.57,0,0,1,2.18,2.88,6.06,6.06,0,0,1,.54,1.89c0,.25.12,1.33.18,1.69.06,1.11.3,2.37.41,3.41a15.5,15.5,0,0,0,.38,1.88c.06.36.59,1.47.55,1.67-1,0-3.31-1.64-3.79-2.4A43.34,43.34,0,0,1,237.21,64a8.19,8.19,0,0,0-.54-.89c-.35-.54-.72-.89-1.1-1.38-.22-.29-.81-1.22-1.14-1.29-.63,0,0,1.23.14,1.4l1,1.54A14.77,14.77,0,0,1,237,66.47a12.27,12.27,0,0,1,.39,1.21,10.07,10.07,0,0,1,.19,2,18.7,18.7,0,0,1-.92,4,12.73,12.73,0,0,1-1.38,2.85c-.18.27-1,1.64-1.41,1.79.68-3.93-1.28-10.79-2.61-12.1-1-.23.27,1.85.51,3.17a30.3,30.3,0,0,1,.87,5.87c0,1.15.06,2.44-.05,3.41-.16,1.66.88,6.22,1.66,6.57-1.69-.19-4.84-2.93-5.38-4.72-.19-.63-1-.7-.52-3.13.26-1.2.81-2.39.9-3.27-.43-.34-.44.07-1.11,1.43s-.8,2.74-1.52,4.15-2.76,4.32-3,6.2a15,15,0,0,1-1.78-4.69A18.37,18.37,0,0,1,222.22,75Z"/></g><g id="path66"><path d="M190.42,20.33l-.31-1c2.78.51,4.1,2.47,3.72,5.42a13,13,0,0,0,1.27,6.49,3,3,0,0,1,.25.71c.06.28,0,.51-.41.4-.56-.14-1-1.36-1.5-2.73a10.3,10.3,0,0,1-.7-3.49C192.92,23.71,193.43,21.25,190.42,20.33Z"/></g><g id="path68"><path d="M198.59,27.58c.35-.37.62-.8,1-1.17a9.75,9.75,0,0,1,.63,1.3,3.06,3.06,0,0,1,0,1.58,3.76,3.76,0,0,1-1.34,2.21,1.42,1.42,0,0,1-1.69-.19c-.28-.49.65-.16,1.12-.37C199,30.64,199.78,27.8,198.59,27.58Z"/></g><g id="path70"><path d="M196.63,24.7l.93-.71A2.93,2.93,0,0,0,195,22.84a7.42,7.42,0,0,0-2.08,1.48,5.93,5.93,0,0,0-.71.56c-.09.12-.71.37-.61.54.28.47.91-.07,1-.15C194.07,24.12,195.49,22.64,196.63,24.7Z"/></g><g id="path72"><path d="M193.61,27l-.42.78c.15.24,1.27.71,1.51.37s-.22-.37-.45-.46A1.72,1.72,0,0,1,193.61,27Z"/></g><g id="path74"><path d="M184.3,25.08l-1.12.28a30.11,30.11,0,0,1,.72-3.2,3.81,3.81,0,0,1,2.83-2.31l.1,1a3.18,3.18,0,0,0-2.11,1.65,10.75,10.75,0,0,0-.34,1.35A6.48,6.48,0,0,0,184.3,25.08Z"/></g><g id="path76"><path d="M181.55,26.47l-.9-.34a4.41,4.41,0,0,1,6.93,1.21A12,12,0,0,0,190,31.18c.37.47,1.08,1.09,1.69,1.69a11.1,11.1,0,0,1,1.19,1.34c0,.6-.27.51-.6.34a7.79,7.79,0,0,1-1.18-1c-.59-.48-2.33-2.12-2.63-2.49-1-1.22-1.61-3-2.69-4.19A3.48,3.48,0,0,0,181.55,26.47Z"/></g><g id="path78"><path d="M187.2,28.22c-.93-1-1-1.51-.71.15,0,.21-.05,1.25.28,1.34.5.15.43-.29.51-.64a2.35,2.35,0,0,0,0-.41A2.64,2.64,0,0,1,187.2,28.22Z"/></g><g id="path80"><path d="M187.52,27.5l-.46-.51a3.92,3.92,0,0,1,.59-.38.47.47,0,0,1,.46-.06.41.41,0,0,1,.27.26c0,.15-.24.27-.29.28a.91.91,0,0,0-.36.15C187.65,27.3,187.6,27.43,187.52,27.5Z"/></g><g id="path82"><path d="M179.8,29.92l-.75-.67a4.17,4.17,0,0,0,.3,4.32c.57,1,2.67,1.87,4.07,1.77.81-.07,2.33-1.32,1.73-1.74-.77-.56-.52,1-1.94.84a3.65,3.65,0,0,1-3.59-2.88A4.06,4.06,0,0,1,179.8,29.92Z"/></g><g id="path84"><path d="M184.31,41.13l-1.13.53c.22-2,.58-3.56,2.84-4.14a1.91,1.91,0,0,1,2,.41c-.14.64-.69.19-1.22.28a1.54,1.54,0,0,0-1,.38,2.94,2.94,0,0,0-1.15,1.05A2.88,2.88,0,0,0,184.31,41.13Z"/></g><g id="path86"><path d="M187.1,37.52l-.89.17c-.68-.72-1.23-1-1.52-1.53a2.41,2.41,0,0,1-.48-1.35l.78-.58C185.06,35.47,186.32,36.8,187.1,37.52Z"/></g><g id="path88"><path d="M189.1,43.73l.41.84c-.67.36-1.28,1.19-1.86,1.44a3.51,3.51,0,0,1-2.12,0,2.63,2.63,0,0,1-1.26-1.15l1-.29a1.36,1.36,0,0,0,1.36.85A4.12,4.12,0,0,0,189.1,43.73Z"/></g><g id="path90"><path d="M188.85,50.82a1.34,1.34,0,0,1-.28-.86,1.82,1.82,0,0,0,1.65,0,2.58,2.58,0,0,0,1-1.29c.51-1.68-.09-2.1-.77-3.37-.43-.83-.58-1.55-.93-2.08-.2-.31-.61.07-.58.5-.11,1.07,1.56,2.83,1.47,3.89-.06.54-.12,1.58-.92,1.67-1,.1-1.18-.93-1.56-1.26a2.72,2.72,0,0,0-.41,2.33,5.26,5.26,0,0,0,2.2,2.33,5.26,5.26,0,0,0-2.26,3c-.53,1.31-1,2.23.21,1.76,2.23-.88,1.86-1.06,2.75.64a21.71,21.71,0,0,0,1.55,2.42,5.66,5.66,0,0,0,2,1.11,12.61,12.61,0,0,0-1.15,2.19c-.21.48-1.13,3.95-.08,2.77a3,3,0,0,1,1.74-.86c1.12-.1,2.33-.3,2.48,0a5.77,5.77,0,0,0-1.72,2.92,8.09,8.09,0,0,0-.15,1.43c0,.49,0,.8,0,.88s.07.69.07.69l.68,0a10,10,0,0,1-.07-1.75A5.14,5.14,0,0,1,197,66.94a6.44,6.44,0,0,1,3.49-1.88c-.58-.53-2.07-.33-2.8-.31-2.13.12-3.58.05-4.41.62a7.8,7.8,0,0,1,1.05-2.85c.75-1.18,1.49-1.12,3.19-.91.23-.6-1.76-.53-2.91-.78a4.11,4.11,0,0,1-1.57-.55,1.78,1.78,0,0,1-.55-.55,6.27,6.27,0,0,1-.37-.65c.79.11,3,.19,4-.44-.06-.36-1.18-.12-2.26-.27-1.76-.26-3-.52-3.07-1.32a5.75,5.75,0,0,0,1.22-.18l.79-.25a3.74,3.74,0,0,0,1-.42,1.8,1.8,0,0,1,1.18-.35c.12-.54-1.09-.42-1.44-.3a7.71,7.71,0,0,1-2.63.55,9,9,0,0,1-1.26-.21,2,2,0,0,0-.7-.05,1.47,1.47,0,0,0-.77.26,4.1,4.1,0,0,1,2.78-2.83,4.55,4.55,0,0,1,1.26-.17c.58-.06,1.15-.12,1.4-.61-.45-.34-1.18.19-1.78.06A5.39,5.39,0,0,1,190,52,3.45,3.45,0,0,1,188.85,50.82Z"/></g><g id="path92"><path d="M200.61,57.59c0,.32.3.41.25.64a9.68,9.68,0,0,1-.55,1.2,2,2,0,0,0,1.43,2.78c.16,0,.65-.06,1,0s.35.26.4.31c.21.25.49.37.68-.12s-.61-1.13-1.21-1a1.31,1.31,0,0,1-1.38-2.05,3.06,3.06,0,0,0,.47-1.49C201.53,57.37,200.63,56.93,200.61,57.59Z"/></g><g id="path94"><path d="M198.71,52.76a1.72,1.72,0,0,0-.44.17c-.08.06-.14.17,0,.24a.53.53,0,0,0,.52-.07c.07,0,.16-.09.16-.17S198.86,52.73,198.71,52.76Z"/></g><g id="path96"><path d="M198.87,53.83a.39.39,0,0,0-.15.33c0,.08,0,.18.09.22s.45-.1.51-.28C199.45,53.77,199.15,53.67,198.87,53.83Z"/></g><g id="path98"><path d="M200.21,55.14c.09,0,0-.2,0-.25a.51.51,0,0,0-.53,0,.47.47,0,0,0-.15.41c0,.18.07.5.34.38S200,55.24,200.21,55.14Z"/></g><g id="path100"><path d="M200.95,56.24a.86.86,0,0,0-.33.28c0,.09,0,.46-.35.37s-.21-.64.15-.88a.73.73,0,0,1,.47-.08C201,56,201,56.21,200.95,56.24Z"/></g><g id="path102"><path d="M225.25,33.07l-1.11-.14c.2-.93.22-1.95.33-2.8a24.39,24.39,0,0,0,.21-3.64c-.13-2-1.61-5-.63-5,1.66,0,2.63,1,3.3,2.52.45.1,1.6.33,1.88,1.39a2.4,2.4,0,0,1,2.39-.88c.23-.3.44-.6.57-.73.72-.76,1.94-2,3.09-1.64s1.53,1,1.84,2.09a6,6,0,0,1,.16,1.67,2.29,2.29,0,0,1,2.1,1.66,1.28,1.28,0,0,1,1-.52c.45,0,.5-.07,1.53.36a7.92,7.92,0,0,1,2.25-1.24,4.06,4.06,0,0,1,1.47-.29c.67,0,1.2.28,1.06.56-.22.44-1.18,1.39-1.75,2.33a29.82,29.82,0,0,0-3.56,7.69l-.81-.2a34.08,34.08,0,0,1,3.13-7A12.7,12.7,0,0,1,245.31,27c.09-.69-2,.35-2.47.76-.32.26-.67,1-1.06.66s-.74-.55-1.37-.26c-.83.53-.93.63-1.09,1.55a1.46,1.46,0,0,0,.26.93,2.19,2.19,0,0,0,1.1.91c.19.08-.12.56-.21.57a2.24,2.24,0,0,1-1.34-.68,4.39,4.39,0,0,1-.93-1.06,11.69,11.69,0,0,1-1.94.41c-.6,0-1-.26-.6-.54s.73-.19,1.13-.24a1.78,1.78,0,0,0,1.17-.8,1.82,1.82,0,0,0,.42-1.37c0-.35-.54-.89-.91-1.05s-.69-.21-.81-.4a1.16,1.16,0,0,1-.22-.78,2.26,2.26,0,0,0-.07-.91c-.14-.56-.48-1.51-1.18-1.66a2.68,2.68,0,0,0-1.83.84c-.46.41-.75.93-1.14,1.3a.59.59,0,0,1-.64.25c-.71-.28-1.49-.08-1.81,1.29-.2.91-.15.88.15,1.44a5.15,5.15,0,0,0,1.21,1.24c.13.15-.15.48-.36.43a3,3,0,0,1-1.28-.69c-.33-.34-.38-.8-.62-1-.58-.07-1.17.86-2.38.84-1,0-.26-.57.15-.88,1.05-.81,1.93-.25,2-2.22,0-.69-.94-.94-1.57-1.1s-.5-1.17-1.32-1.9c-.51-.48-.66-.45-1-.46s-.08.82,0,1a2.18,2.18,0,0,1,.32.78c.12.47.16,1.05.22,1.41a6.7,6.7,0,0,1,.07,1.44c-.08,1.29-.05,1.64-.08,3.06C225.27,31,225.3,32,225.25,33.07Z"/></g><g id="path106"><path d="M230.41,83.94l-1.54-1.07A37,37,0,0,1,231,88.7c.22.94.77,2.35,1,4,.18,1.06,1.07,3.37,1.05,1.8a28.67,28.67,0,0,0-.91-5.17C231.68,87.55,230.86,85.77,230.41,83.94Z"/></g><g id="path108"><path class="cls-5" d="M169.41,69.54A4,4,0,0,1,170,71a11.72,11.72,0,0,0,.56,2.08c.51,1,2.13,1.71,2.78.43C175.06,70.14,170,69.53,169.41,69.54Z"/><path d="M171.86,74.61a2.64,2.64,0,0,1-1.73-1.36,5.79,5.79,0,0,1-.44-1.47c0-.24-.09-.47-.16-.69a3.47,3.47,0,0,0-.42-1.08,1.87,1.87,0,0,1-.15-.26l-.34-.71h.79c.5,0,3.46.32,4.47,2a2.61,2.61,0,0,1-.06,2.7,1.65,1.65,0,0,1-1.53,1A2,2,0,0,1,171.86,74.61Zm-1.58-4.47c.06.17.13.39.22.66s.13.53.18.78a4.83,4.83,0,0,0,.36,1.22,1.58,1.58,0,0,0,1.25.84.67.67,0,0,0,.63-.43,1.67,1.67,0,0,0,.1-1.72,3.42,3.42,0,0,0-1.89-1.17A8,8,0,0,0,170.28,70.14Z"/></g><g id="path110"><path class="cls-5" d="M182.94,92a2.69,2.69,0,0,0,2.4-.8c.92-.94,1.6-2.48.22-3.52a1.35,1.35,0,0,0-1-.28c-.31,0-.5.26-.77.46a1.49,1.49,0,0,0-.41.85,2.92,2.92,0,0,0-.06.92,5.33,5.33,0,0,1-.21,1.79A2.2,2.2,0,0,1,182.94,92Z"/><path d="M182.21,92.57l.26-.71.06-.15v-.05l.08-.32,0-.14a4.46,4.46,0,0,0,.17-1.46v0a3.42,3.42,0,0,1,.07-1.07,2,2,0,0,1,.56-1.11l0,0,.15-.12a1.6,1.6,0,0,1,.87-.44h0a1.84,1.84,0,0,1,1.34.38,2.29,2.29,0,0,1,1,1.67,3.62,3.62,0,0,1-1.14,2.59,2.92,2.92,0,0,1-2.44,1H183Zm.33-.88h0Zm1.28-2.07a5.29,5.29,0,0,1-.19,1.8l0,.11a1.85,1.85,0,0,0,1.37-.65,2.55,2.55,0,0,0,.86-1.81,1.29,1.29,0,0,0-.58-.95.84.84,0,0,0-.65-.18c-.09,0-.17.08-.33.21l-.16.13a1.06,1.06,0,0,0-.24.57A2.4,2.4,0,0,0,183.82,89.62Z"/></g><g id="path112"><path class="cls-5" d="M168,92.29c.15-.29.25-.39,1.17-1.27.49-.46,1.31-.67,1.77-1.36.61-.93.27-2.65-1.1-2.58C166.24,87.25,167.67,91.82,168,92.29Z"/><path d="M168,93.34l-.47-.78c-.24-.39-1.07-2.93-.2-4.58a2.71,2.71,0,0,1,2.44-1.4,1.72,1.72,0,0,1,1.63.89,2.49,2.49,0,0,1-.08,2.48A3.45,3.45,0,0,1,170.06,91a3.38,3.38,0,0,0-.59.4c-.91.86-1,.92-1.07,1.13Zm2.06-5.74a.93.93,0,0,0-.24,0,1.75,1.75,0,0,0-1.59.85,4.32,4.32,0,0,0-.09,2.85l.65-.62a4.14,4.14,0,0,1,.78-.54,2.59,2.59,0,0,0,.92-.74,1.47,1.47,0,0,0,0-1.43A.7.7,0,0,0,170.05,87.59Z"/></g><g id="path114"><path class="cls-5" d="M160.46,82a7.09,7.09,0,0,1,3.88.06c.94.29,2.43-.22,2.48-1.27.1-2-1.53-2.7-3.18-2.2a6.21,6.21,0,0,0-2.69,2.14A5.43,5.43,0,0,0,160.46,82Z"/><path d="M159.77,82.84l.2-.91a5.9,5.9,0,0,1,.55-1.44,6.65,6.65,0,0,1,3-2.36,3.18,3.18,0,0,1,2.9.38,2.62,2.62,0,0,1,.93,2.34,1.72,1.72,0,0,1-.78,1.33,2.88,2.88,0,0,1-2.35.4,6.62,6.62,0,0,0-3.55-.07ZM165.13,79a2.76,2.76,0,0,0-1.36.08,5.77,5.77,0,0,0-2.4,1.91l0,0a2.46,2.46,0,0,0-.15.31,8.28,8.28,0,0,1,3.27.26,1.87,1.87,0,0,0,1.48-.26.72.72,0,0,0,.35-.55,1.68,1.68,0,0,0-.55-1.5A1.56,1.56,0,0,0,165.13,79Z"/></g><g id="path116"><path d="M201.64,72.79l-.94-.37c-2.1.68-4,1.23-6.45,1.84a18,18,0,0,0-2.87.94c-.76.42.71.3,2.07,0s3-.84,4.37-1.18C199,73.68,200.5,73.17,201.64,72.79Z"/></g><g id="path118"><path d="M196.84,72.19l-1.16-.66c-1.57.1-7.5,2.45-9.54,3.08-2.36.75-6.14,2.26-8.93.61-1.32-.78-.71-2.6-3.38-3.37l-.05,1.09a2.22,2.22,0,0,1,1.5,1,4,4,0,0,1,.6,1.35c.23.54,1.13,1.82,5.28,1.56a24,24,0,0,0,5.66-1.49C187.95,74.94,195.77,72.07,196.84,72.19Z"/></g><g id="path120"><path d="M170.15,72.67l-.16-.83c-2.61.12-4.44,3.36-2,4.77,1.71,1,3.16,2,5.58,1.39,1-.25,4.23-.54,2-1-1-.21-2.66.5-3.65.38a10,10,0,0,1-4.1-1.63c-.46-.31,0-1.48.24-2a2.82,2.82,0,0,1,1-.87A7.52,7.52,0,0,1,170.15,72.67Z"/></g><g id="path122"><path d="M170.2,78.57c.29-1.59-.84-2.28-2.38-2.6a3.61,3.61,0,0,0-3,1,1.77,1.77,0,0,0-.6,1.05c0,.19,0,.42.55.38s.37.06.48-.44c.18-.82,2.22-1.18,2.93-1a2,2,0,0,1,1.3.84,1.7,1.7,0,0,1,.19.61.39.39,0,0,0,.17.26S170.14,78.68,170.2,78.57Z"/></g><g id="path124"><path d="M172.45,76.7c.07,0,.22.19.2.31-.06.27-.5.5-.74.57s-.44-.12-.64-.16c0,0,0,0,0,0,.3-.18.54-.43.85-.61A.38.38,0,0,1,172.45,76.7Z"/></g><g id="path126"><path d="M167.84,87.77l-.49.83a4,4,0,0,1,.14-4.45c.84-1.16,3.61-1.9,5.44-2.72,1.42-.65,2.5-1.57,3.94-2.09.63.36-.14.81-1.18,1.59a13.32,13.32,0,0,1-4.4,2.21,6.46,6.46,0,0,0-3,1.65A2.41,2.41,0,0,0,167.84,87.77Z"/></g><g id="path128"><path d="M169.53,81.91c-.43-.09-.31.3-.27.47.11.43,1.46.79,1.92.89.68.15,1.35.82,1.45.54s-1.26-.95-1.87-1.14a4.41,4.41,0,0,1-.83-.3C169.76,82.26,169.86,82,169.53,81.91Z"/></g><g id="path130"><path d="M167.15,85.17l-.23.95a2.16,2.16,0,0,0-.95-.7,5.37,5.37,0,0,1-1.38-.87c-.66-.7-1.1-1.2-.7-2.27h1c0,.16-.26.25-.3.42-.1.75.26,1.14.85,1.59S166.76,84.7,167.15,85.17Z"/></g><g id="path132"><path d="M170.12,90.77l.64-.68c1,1.07,3,.75,4.48-.38a4.13,4.13,0,0,0,1.15-1.62c.45-1.33.09-1.73-.4-2.1.05-1,1.76-.23,1.45,1.29-.44,2.2-.89,2.66-2.65,3.82a4,4,0,0,1-2.48.45,5,5,0,0,1-1.28-.22A8,8,0,0,1,170.12,90.77Z"/></g><g id="path134"><path d="M183.14,90.18l0-1a1.84,1.84,0,0,1-1.1-.73,3.56,3.56,0,0,1-.6-1.19,1.53,1.53,0,0,1,.14-1.21c.26-.45.2-.63-.05-.68-.57-.1-1,1.47-.77,2.21a6.42,6.42,0,0,0,.74,1.38A5.09,5.09,0,0,0,183.14,90.18Z"/></g><g id="path136"><path d="M177.24,87.26l0-.56c1.07.23,2.81.29,3.64-.43,0,.29,0,.6,0,.91a2.82,2.82,0,0,1-1.79.38C178.52,87.48,177.87,87.36,177.24,87.26Z"/></g><g id="path138"><path d="M186.11,90.77l.34-.92c.78-.42,1.51-.67,1.8-1.6a2.08,2.08,0,0,0-.28-2.06c-.09-.14-.81-.85,0-.78s.69.4,2,.67c.59.11.89-.15,1.31-.12a3.47,3.47,0,0,1,1.22,0c.43.09,1.27.62,1.37,1.07,0,.17.26.5.22.68s0,.54,0,.54c1.17-.86,2-1.2,2.33-2.71.31-1.24.78-1.89,1-.82a20.86,20.86,0,0,1-.78,3.66c-.19.79-.13,3.46.31,3.9a11.69,11.69,0,0,1,2-4.4c.57-.75,1.5-2.3,1.35-3.39.76-.38.73,1.12.39,1.94a10.07,10.07,0,0,1-1.36,2.31,6.55,6.55,0,0,0,2.76-1.45,9.1,9.1,0,0,0,1.33-3.21c.81.5,0,2-.33,2.82-.18.53-.51,1.13-.33,1.68s.82,2.11,1.55,2.5c-.41-.82,0-2.63.83-3.81a19.27,19.27,0,0,0,2-4.16c.7.07.16,1.22,0,1.69-.11.32-.33.74-.48,1.08a2.26,2.26,0,0,0-.28.61l-.14.66c.4-.32,1.41-.87,1.75-1.1a8.35,8.35,0,0,0,1.28-1.47c.19-.22.89-.62,1-1s.22-1.38.57-1.4c.59.09.09,1.55.42,2.44.25.71.64,1.63.9,2.3.09.22.69,1.15.54,1.24-.45.29-1.23-1.17-1.36-1.44a10.55,10.55,0,0,1-.74-2.38,16.75,16.75,0,0,0-1.6,1.93c-.56.77-1.82,1.31-3.39,2-.7.31-1.06,2.15-.55,4-.46.78-1.92-1.09-2.19-1.46a5,5,0,0,1-.78-2.37c-.1.08-1.17.62-1.56.82a11.66,11.66,0,0,0-2,.86,2.85,2.85,0,0,0-.62,1.35,8.68,8.68,0,0,0-.33,1.23c-.13.58-.11.4-.33,1.31-.69,0-1.69-2.69-1.61-4.08a4.62,4.62,0,0,1,.2-1c.07-.25.11-.51,0-.63s-.13-.17-.32-.21c-.38-.1-.9,1-2.15,1.44a6.94,6.94,0,0,1-1.48.25c.9-.29,1.65-2,.85-2.67-.43-.34-1-.22-2.7-.24-.53,0-.9-.26-1,.45a5.13,5.13,0,0,1-.87,2.38C187.59,90.52,186.79,90.35,186.11,90.77Z"/></g><g id="path140"><path d="M205.53,77c-.31-.07-.66.49-.73.84s.12,1.49-.54,1.92-1.18,0-1.67-.39a3,3,0,0,0-1.62-.21c-.52.13-.81.17-1.43.28-.36.08.18.49.42.48s1.87-.26,2.17,0c.88.82,2.55.91,3.17-.16a4.24,4.24,0,0,0,.29-1.71.92.92,0,0,1,.25-.66C206,77.1,205.75,77,205.53,77Z"/></g><g id="path142"><path d="M198.29,79.45a1.61,1.61,0,0,1,.43.09.19.19,0,0,1,0,.22.22.22,0,0,1-.2.1,2.42,2.42,0,0,1-.52-.11c-.16,0-.22-.19-.26-.28s.19-.39.28-.37S198.21,79.43,198.29,79.45Z"/></g><g id="path144"><path d="M197.18,79.67c-.06-.18-.35-.16-.41.09a.28.28,0,0,0,.05.22.71.71,0,0,0,.45.38.31.31,0,0,0,.28-.08c.16-.17,0-.27-.13-.33S197.26,79.87,197.18,79.67Z"/></g><g id="path146"><path d="M196,79.92c-.21-.07-.36.23-.34.42s.15.54.34.48a.49.49,0,0,0,.27-.21c0-.19-.22-.21-.21-.33S196.1,79.95,196,79.92Z"/></g><g id="path148"><path d="M194.95,80.57c0-.09,0-.17-.12-.19s-.36.23-.42.32a.23.23,0,0,0,0,.27.54.54,0,0,0,.56,0c0-.05.13-.13.09-.21A.36.36,0,0,1,194.95,80.57Z"/></g><g id="path150"><path class="cls-5" d="M172.57,108.78a5.39,5.39,0,0,1-.12,1.56,14.73,14.73,0,0,1-.52,2.11c-.38,1.18,1.12,3,2.48,2.09C177.65,112.46,173.39,109.11,172.57,108.78Z"/><path d="M173.25,115.24a2.16,2.16,0,0,1-.85-.4,2.46,2.46,0,0,1-1-2.54,14.12,14.12,0,0,0,.49-1.93l0-.11c0-.17,0-.28.06-.36a1.8,1.8,0,0,0,0-.44c0-.15,0-.36,0-.68l0-.72.67.26c.63.25,3.15,2.1,3.35,4.1a2.63,2.63,0,0,1-1.42,2.55A1.85,1.85,0,0,1,173.25,115.24Zm-.19-5.56a2,2,0,0,1,0,.4c0,.07,0,.18-.06.35l0,.12a15.13,15.13,0,0,1-.52,2.05A1.47,1.47,0,0,0,173,114a.92.92,0,0,0,1.12.09,1.69,1.69,0,0,0,1-1.6A5.13,5.13,0,0,0,173.05,109.68Z"/></g><g id="path152"><path class="cls-5" d="M161.22,115.46a5.26,5.26,0,0,1,2.88,1.91c.6.68,2,1.06,2.5.28,1.07-1.52.15-2.74-1.43-3.12a6.07,6.07,0,0,0-3.22.35A2.64,2.64,0,0,0,161.22,115.46Z"/><path d="M165.19,118.54a2.8,2.8,0,0,1-1.46-.83,4.77,4.77,0,0,0-2.64-1.76l-.8-.23.58-.6a3.17,3.17,0,0,1,.88-.68,6.54,6.54,0,0,1,3.56-.39,2.9,2.9,0,0,1,2.15,1.64,2.36,2.36,0,0,1-.42,2.26,1.54,1.54,0,0,1-1.21.64A2.31,2.31,0,0,1,165.19,118.54Zm-2.91-3.24a6.14,6.14,0,0,1,2.21,1.74,1.76,1.76,0,0,0,1.27.55.52.52,0,0,0,.44-.21,1.43,1.43,0,0,0,.31-1.33,2,2,0,0,0-1.45-1A5.74,5.74,0,0,0,162.27,115.3Z"/></g><g id="path154"><path class="cls-5" d="M164.53,129a7.63,7.63,0,0,1,1.66-.49,6.35,6.35,0,0,0,2.19-.52c.93-.63,1.24-2.42-.06-2.87C165,123.94,164.56,128.6,164.53,129Z"/><path d="M164,129.83,164,129c0-.51.31-3.12,1.87-4.14a2.8,2.8,0,0,1,2.58-.18,1.74,1.74,0,0,1,1.19,1.46,2.5,2.5,0,0,1-1,2.29,3.8,3.8,0,0,1-1.72.5,5.45,5.45,0,0,0-.63.09,7.07,7.07,0,0,0-1.56.46Zm3.78-4.33a1.65,1.65,0,0,0-1.3.19,4.05,4.05,0,0,0-1.31,2.58l.93-.24a6.24,6.24,0,0,1,.76-.12,2.93,2.93,0,0,0,1.28-.34,1.49,1.49,0,0,0,.57-1.32.74.74,0,0,0-.53-.64Z"/></g><g id="path156"><path class="cls-5" d="M175.88,135.07a3.54,3.54,0,0,0,2.69-.74c1.06-.76,2.17-2.07,1-3.33a1.76,1.76,0,0,0-1.18-.36,1.56,1.56,0,0,0-.79.36,1.52,1.52,0,0,0-.55.75,2.82,2.82,0,0,0-.2.89,5.6,5.6,0,0,1-.5,1.74A1.7,1.7,0,0,1,175.88,135.07Z"/><path d="M175,135.47l.49-.69a2,2,0,0,1,.21-.25h0s0-.09.14-.32l0-.09a4.87,4.87,0,0,0,.43-1.48,3.29,3.29,0,0,1,.22-1v0a2,2,0,0,1,.74-1l.11-.07a1.74,1.74,0,0,1,.93-.36h0a2.27,2.27,0,0,1,1.54.51,2.13,2.13,0,0,1,.67,1.71,3.75,3.75,0,0,1-1.68,2.39,4.06,4.06,0,0,1-3,.83Zm2.48-3.54a2.3,2.3,0,0,0-.16.73,5.66,5.66,0,0,1-.5,1.81l0,.1h0a3.25,3.25,0,0,0,1.51-.65,2.72,2.72,0,0,0,1.27-1.67,1.15,1.15,0,0,0-.39-.91,1.33,1.33,0,0,0-.81-.21.91.91,0,0,0-.42.2l-.12.08A1,1,0,0,0,177.46,131.93Z"/></g><g id="path158"><path d="M165.74,114.39l-.46-.2a3,3,0,0,1,2.91-.93,3.57,3.57,0,0,1,1.22.67,8.45,8.45,0,0,1,.48-.81,5.79,5.79,0,0,1,1-.94,3,3,0,0,1,1-.36l-.18,1.12a2.31,2.31,0,0,0-1.56,1.53c1.09,1.42,1.92,1.66,4,2.68.35.18,2.1,1.21,1.16,1.29-.48,0-4.12-1.37-4.87-2.25C169.36,115,167.61,113.2,165.74,114.39Z"/></g><g id="path160"><path d="M173.25,117l-.69-.48a.76.76,0,0,0,.78-.13c.09,0,.3-.34.38-.32s.23.05.25.16a.42.42,0,0,1,0,.28C173.84,116.64,173.47,117,173.25,117Z"/></g><g id="path162"><path d="M170.45,116l-1-.91a2.21,2.21,0,0,1,.27.89c0,.29-.07,1.06.4,1.06.23,0,.27-.31.31-.5A4.29,4.29,0,0,0,170.45,116Z"/></g><g id="path164"><path d="M164.11,117.38l-.79-.5a6,6,0,0,0-.23,3.55,3.06,3.06,0,0,0,2.9,2.41c1.66.22,1.13-.3,2.5-.25a22.88,22.88,0,0,0,2.58.14,23.56,23.56,0,0,0,2.5-.35c.79-.07,2.16-.1,2.43-.4s-.75-.41-1.06-.46c-1.28-.18-3,.42-4,.28-.3,0-.85-.11-1.36-.2a8.11,8.11,0,0,0-1.36-.2c-.66.06-.83.61-1.49.55a3,3,0,0,1-2.41-1.38C163.88,119.89,163.26,118.27,164.11,117.38Z"/></g><g id="path166"><path d="M165.74,125.43l-.69.64a4.5,4.5,0,0,1,.2-2.22c.15-.5,1.19-1.71,1.71-1.76.65.18.69.5.15.83s-1.42,1-1.38,1.86Z"/></g><g id="path168"><path d="M168.67,121.68l-.79,0c0-.12.32-.36.41-.58a1.23,1.23,0,0,1,.29-.49.17.17,0,0,1,.19,0c.19,0,.13.42.08.57s-.08.19-.11.3A1.14,1.14,0,0,1,168.67,121.68Z"/></g><g id="path170"><path d="M169.66,122.42l-.74.12c.52.11.69.58,1.07.8.09,0,.36.14.39,0s-.18-.41-.23-.46Z"/></g><g id="path172"><path d="M176.94,131.41l-.39.93c-.26-.32-.77-1.13-1-1.44a2.78,2.78,0,0,1-.32-1.31,2.83,2.83,0,0,1,1.31-2.24c.88.17-.27,1-.41,1.52A2.36,2.36,0,0,0,176,130a2.76,2.76,0,0,0,.49.9Z"/></g><g id="path174"><path d="M167.35,128.7l-.95,0c.43,1.68,2.83,2.35,4.5,1.7.8-.31,1.42-1.28,2.22-1.59a3.07,3.07,0,0,1,2.31.14l.56-.77a6.49,6.49,0,0,0-2.45-.27,3.41,3.41,0,0,0-2.14,1.14,2.1,2.1,0,0,1-2.43.67C167.88,129.45,167.59,129.2,167.35,128.7Z"/></g><g id="path176"><path d="M172.8,128.28l-.71.37a1.49,1.49,0,0,0,.2-.81,2.28,2.28,0,0,1,.09-.61c.07-.15.18-.29.36-.25.35.08.07.71.08.93C172.81,128,172.81,128.24,172.8,128.28Z"/></g><g id="path178"><path d="M175.77,113.25l-.06-1.32c1.06.07,1.71,1,2.12,2.11a7.21,7.21,0,0,1,.14,3.25c-.21,1.34.71,1.48,2,1.85a12.31,12.31,0,0,0,2.58.42c2.64.21,4.23-.25,4.93-1.49,1-1.71,1.37-2.92,2.06-4.19a24.41,24.41,0,0,1,1.7-2.64c.54-.7,1.51-1.2,1.3-1.85-1.53-.62-3.44-1.06-5.1-1.81a15.22,15.22,0,0,0-8.68-1.13c-.19,0-.17-.32-.13-.42.48-1.08,4.76-3.34,5.43-3.49,1.39-.47,3.2-1.13,4.73-.86a22.85,22.85,0,0,1,2.79.65c.21.07.38.21.49.17s.19-.86.3-1.38a4.59,4.59,0,0,1,2.58-2.2,5.89,5.89,0,0,1,1.94-.29,4.13,4.13,0,0,1,2.59.83c-.66.22-1.45.29-1.63,1.11-.23,1,.78,1.92,1.59,2.49,1.62,1.09,4.4.76,6.27,1a44.57,44.57,0,0,1,6.94,1.05c1.14.27,2.51.61,3.59,1,.49.17,1.42.47,1.87.67.19.08,1.26.5,1.25.64l-.57,1.3c-.3-1-3.9-1.91-7.42-2.85-3.79-1-7.25-.37-10.95-1.18a5.76,5.76,0,0,1-3.14-2.32,2.52,2.52,0,0,1-.33-.74,2.67,2.67,0,0,1,0-1.22,2.2,2.2,0,0,1,.61-.94c-1.33-.35-4.16.49-4.52,2.39-.12.63.15,2.21-.59,2a6,6,0,0,1-1.2-.75,5.67,5.67,0,0,0-1.78-.59,11.29,11.29,0,0,0-4.36.39,11.71,11.71,0,0,0-2,.84c-.32.17-.8.48-1.13.69-.09,0-.7.5-1.1.76a20.34,20.34,0,0,1,6.65,1.25c1.83.69,3.75,1.56,5.79,2.1,1.43.37,7.09.19,5.87,1-.24.17-.76.12-2.11.15s-2.91-.31-4.24,1a24.32,24.32,0,0,0-3,4.81c-.32.7-.73,1.65-1.1,2.43a3.82,3.82,0,0,1-2,2,11.81,11.81,0,0,1-3.28.44,21.75,21.75,0,0,1-3.65-.55,7.12,7.12,0,0,1-2-.71,2.63,2.63,0,0,1-.63-.75,11.1,11.1,0,0,1,0-2.89A2.07,2.07,0,0,0,175.77,113.25Z"/></g><g id="path180"><path d="M195.13,99.65l1.62-.32a1.79,1.79,0,0,0-1.06,1.5,5.11,5.11,0,0,0,.1,1.43c0,.19.24.78-.23.68C194.85,102.79,195,100.33,195.13,99.65Z"/></g><g id="path182"><path d="M183.83,103.43l.84-.41a22.18,22.18,0,0,1,4.43,1.17c.64.24,1.4.59,2.14.85a10.7,10.7,0,0,1,1.37.42c.09,0-.19.32-.39.28-1.43-.35-2.64-.88-4.1-1.39C187.1,104,184.93,103.67,183.83,103.43Z"/></g><g id="path184"><path d="M179.89,133.12l-.37.77c2.51.47,4.57-3.38,3.25-4.52-.51-.11-.38.45-.37.86a3.21,3.21,0,0,1-.66,2A2.34,2.34,0,0,1,179.89,133.12Z"/></g><g id="path186"><path d="M184.08,129.63c.1,2.32,2.32,6.07,5.18,6.84-.4-.94-1.32-2.9-1.13-3.79.53.38,1,1,1.64,1.44a3.59,3.59,0,0,0,1.76.61,6.69,6.69,0,0,0,1.28-.19c-.36-.49-.64-.81-.8-1-.29-.37-.59-.84-.83-1.22a4,4,0,0,1-.37-.83,46.28,46.28,0,0,1,5.12.92c.47.08,1-.24,1.29-.14a11.28,11.28,0,0,0,1.68.25,9.32,9.32,0,0,0,1,0c.25,0,.78,0,1.11-.06.09-.43-.47-1.2-.8-1.66a4.21,4.21,0,0,1-.67-3.26,11.43,11.43,0,0,1,.33-1.41c.06-.17.22-.62.3-.79s.37-1,.51-1.23c.33-.56.72-1.41.91-1.75a10.75,10.75,0,0,0,.75-2.42c4,.72,10.63,1.49,14.45.52l.38-1.2c-3.59.95-7.74.56-11.62.22a19.82,19.82,0,0,1-4-.85c-.52,1.27-.4,2-.87,2.95s-1.44,3.33-2.07,4.6a4.89,4.89,0,0,0,.22,4.57c.48.61,1.59,1.1-.25.94a13,13,0,0,0-2.49,0,3.54,3.54,0,0,1-1.13-.15c-.74-.14-1.48-.3-2.23-.43a6.38,6.38,0,0,1-1.84-.53c-.59-.27-.56-3.1-1.49-2.77-.2.08.28,2.53.41,3a13.09,13.09,0,0,0,.71,2.33c.29.55.4.88-.45.29-1.5-1-2.21-2.95-2.74-4.69-.28,0-.48,0-.52.21a10.2,10.2,0,0,0,.25,2.76c.07.4.14.95.24,1.4,0,.09.81,2.44.08,1.5a9.11,9.11,0,0,1-1.91-2.9,7.13,7.13,0,0,1-.54-1.44C184.95,130,184.82,129,184.08,129.63Z"/></g><g id="path188"><path d="M183,131.09l.06-.64a2.46,2.46,0,0,0,1.24-.18l.24.58A2.28,2.28,0,0,1,183,131.09Z"/></g><g id="path190"><path d="M197.62,131.68l-1.28.19c-.2-.39-.33-.56-.53-.91-.29-.53-.51-1.19-.76-1.75-.07-.16-.26-.48-.23-.62.13-.52.49.09.57.21C195.75,129.36,197,131.55,197.62,131.68Z"/></g><g id="path192"><path d="M194.07,131.45l-1.52-.21c.09-.41-1.45-2.52-.82-2.66C192.07,128.49,193.59,131.21,194.07,131.45Z"/></g><g id="path194"><path d="M194.92,122.7c-.1-.65-1.18-.18-1.18.76,0,.31.17,1.34-.08,1.65a1.2,1.2,0,0,1-1.48,0c-.24-.4-.52-.5-1.14-.64a2.17,2.17,0,0,0-1.33,0s-.8.38-.65.63,1.61-.2,2.1.18a3.82,3.82,0,0,0,.6.5c.92.55,2.5.49,2.78-.8a5.18,5.18,0,0,0,.07-1.35,3,3,0,0,1,0-.57C194.63,123,195,123,194.92,122.7Z"/></g><g id="path196"><path d="M188.74,124.34c-.28-.12-.41.3-.48.59a1.13,1.13,0,0,1,0,.26c-.08.08-.3.36-.14.44a.28.28,0,0,0,.36-.08C188.6,125.35,189,124.46,188.74,124.34Z"/></g><g id="path198"><path d="M187.53,124.46a1.22,1.22,0,0,0-.59.56c0,.16-.16.47,0,.57s.4-.34.5-.5a1.75,1.75,0,0,0,.26-.35c0-.07.05-.15,0-.21S187.57,124.45,187.53,124.46Z"/></g><g id="path200"><path d="M186.52,125c.06-.37-.63-.28-.58.16,0,.11.12.37.28.33s.14-.17.18-.25S186.52,125.08,186.52,125Z"/></g><g id="path202"><path d="M185.47,125.23c0-.12-.32-.19-.48-.15a1.43,1.43,0,0,0-.42.25c-.06.07,0,.24,0,.25a.5.5,0,0,0,.41-.11C185.28,125.42,185.44,125.35,185.47,125.23Z"/></g><g id="path204"><path class="cls-5" d="M199.37,152a3.72,3.72,0,0,1,1.73.36c.61.19.65.65,1.81,1.13s3.28-1.13,2.31-2.28C203.5,149.14,199.9,150.76,199.37,152Z"/><path d="M203,154l-.24-.08a4.31,4.31,0,0,1-1.32-.82,1.18,1.18,0,0,0-.45-.29l-.42-.16a2.93,2.93,0,0,0-1.19-.18l-.72,0,.29-.66a4.59,4.59,0,0,1,3.37-2,3.5,3.5,0,0,1,3.33,1.12,1.55,1.55,0,0,1,0,2A2.77,2.77,0,0,1,203,154Zm-2.5-2.42a2.56,2.56,0,0,1,.43.14l.36.13a2.12,2.12,0,0,1,.79.49,3.34,3.34,0,0,0,1,.65,1.76,1.76,0,0,0,1.68-.73c.33-.45.13-.68.06-.77a2.55,2.55,0,0,0-2.42-.77,4.61,4.61,0,0,0-2,.83Z"/></g><g id="path206"><path class="cls-5" d="M201,165.25a6.91,6.91,0,0,1,3-2c1.13-.49,1.47-1.31,1.11-2.2-.68-1.66-2.46-1.23-3.55.12a5.83,5.83,0,0,0-.9,3.08A3.45,3.45,0,0,0,201,165.25Z"/><path d="M200.87,166.17l-.35-.7a3.88,3.88,0,0,1-.41-1.18,6.21,6.21,0,0,1,1-3.44,3.21,3.21,0,0,1,2.8-1.36,2.07,2.07,0,0,1,1.61,1.37,2.12,2.12,0,0,1-1.38,2.85,6.47,6.47,0,0,0-2.79,1.85Zm3-5.67h-.06a2.29,2.29,0,0,0-1.87,1,5.43,5.43,0,0,0-.79,2.73.66.66,0,0,0,0,.11,8.86,8.86,0,0,1,2.61-1.53c.83-.36,1.12-.88.85-1.55A1.1,1.1,0,0,0,203.84,160.5Z"/></g><g id="path208"><path class="cls-5" d="M212.68,167.22c.21-.4.53-.58,1.31-1.34.52-.5,1.22-.75,1.46-1.53.32-1.09-.94-2.61-2.1-2.23C210.49,163.08,212.49,166.79,212.68,167.22Z"/><path d="M212.64,168.37l-.42-.95,0-.1c-.85-1.78-1.07-3.21-.63-4.25a2.57,2.57,0,0,1,1.65-1.44,2,2,0,0,1,2,.57,2.39,2.39,0,0,1,.73,2.28,2.63,2.63,0,0,1-1.13,1.39,4.48,4.48,0,0,0-.46.37c-.28.28-.51.48-.69.64a2.19,2.19,0,0,0-.53.57Zm1.25-5.8a.74.74,0,0,0-.39,0,1.59,1.59,0,0,0-1,.88,4,4,0,0,0,.34,2.82l.17-.15c.17-.16.39-.35.66-.61a5.32,5.32,0,0,1,.56-.46,1.73,1.73,0,0,0,.77-.86,1.42,1.42,0,0,0-.47-1.28A1.28,1.28,0,0,0,213.89,162.58Z"/></g><g id="path210"><path class="cls-5" d="M226,159.85a2.91,2.91,0,0,0,1.22-2c.36-1.27,0-2.86-1.68-3.1a1.72,1.72,0,0,0-1.18.44c-.25.21-.26.45-.39.77a1.53,1.53,0,0,0,.06.95c.1.31.43.38.69.58a2.08,2.08,0,0,1,.79,1.23A11.05,11.05,0,0,0,226,159.85Z"/><path d="M225.85,160.65l-.26-.61-.17-.36a6.43,6.43,0,0,1-.35-.85c-.23-.64-.27-.71-.62-1l-.19-.12a1.24,1.24,0,0,1-.66-.7h0a2,2,0,0,1,0-1.25v0c0-.07.05-.14.08-.21a1.5,1.5,0,0,1,.46-.75,2.19,2.19,0,0,1,1.57-.55,2.47,2.47,0,0,1,1.8,1.08,3.29,3.29,0,0,1,.29,2.66,3.35,3.35,0,0,1-1.37,2.27Zm-1.3-3.93a1,1,0,0,0,.2.13,2.62,2.62,0,0,1,.31.2h0a2.54,2.54,0,0,1,.95,1.45v0a3.94,3.94,0,0,0,.19.48,3.17,3.17,0,0,0,.56-1.33,2.29,2.29,0,0,0-.16-1.84,1.49,1.49,0,0,0-1.11-.63h0a1.3,1.3,0,0,0-.77.33c-.06.05-.08.1-.15.3s-.05.16-.09.26A1.1,1.1,0,0,0,224.55,156.72Z"/></g><g id="path212"><path d="M202,160.33l-.79.7a9.23,9.23,0,0,1-.22-1.13,3,3,0,0,1,0-1.18,3.58,3.58,0,0,1,1.37-2c.54-.49.07-.62-.1-1.2a3.21,3.21,0,0,1,.1-2l.79.31c-1.39,3,2.28,1.76,3.6,1s2.29-2,3.43-2.81c.58-.4.54.69.26,1-1.48,1.53-3.17,3.2-5.51,3.56a4.17,4.17,0,0,0-2.35,1.24C202.15,158.17,201.6,159.93,202,160.33Z"/></g><g id="path214"><path d="M207.4,154.68l-1.36.74c.42-.34.58-1,.92-1.2.09-.06.42-.32.61-.11S207.43,154.52,207.4,154.68Z"/></g><g id="path216"><path d="M206.43,156l-1,.46c.19,0,.39,0,.57,0a1.38,1.38,0,0,1,.38.14,2.65,2.65,0,0,0,.54.34c.16,0,.29.08.33-.09S206.76,156,206.43,156Z"/></g><g id="path218"><path d="M177.23,116.61l.06-.84a.61.61,0,0,1-.31.3,1.35,1.35,0,0,1-.42.13c-.1,0-.31,0-.34.17s0,.23.09.24A3,3,0,0,0,177.23,116.61Z"/></g><g id="path220"><path d="M211.53,164.83l.17-1.23c-1.38-.67-.81-3.09.26-3.89a3.46,3.46,0,0,0,.81-1.17c.23-.5.75-1.75.82-1.9s.34-1.17.4-1.34c.18-.63.3-1.2.07-1.45-.61-.64-.95,1.34-1.13,1.91-.81,2.57-2.33,3.2-2.85,4.94-.37,1.24-.33,2.09-1.48,2.87a3.28,3.28,0,0,1-4.33-.11l-1,.33c.84,1.63,3.95,1.7,5.36.83.49-.3,1-.92,1.44-1.19s.61.4.76.63A4,4,0,0,0,211.53,164.83Z"/></g><g id="path222"><path d="M209.85,162.06l.35-1c0-.14-.34-.67-.41-.72s-.15-.15-.24-.22-.46-.12-.54,0c-.2.24.2.57.33.81s.23.34.31.45A1.29,1.29,0,0,1,209.85,162.06Z"/></g><g id="path224"><path d="M212.24,159.28l.09-.31a3.38,3.38,0,0,0,.63,0,2.82,2.82,0,0,1,.41,0s0,.11,0,.14-.22.05-.28.06a.85.85,0,0,0-.22,0l-.11,0h-.06C212.55,159.25,212.36,159.25,212.24,159.28Z"/></g><g id="path226"><path d="M218.22,158.29a3.11,3.11,0,0,1,2,1.83,4.54,4.54,0,0,1-5.25,5.16l.42-.8a3.34,3.34,0,0,0,3.69-2.35c.35-1,.65-2-.34-2.74C218.41,159.11,217.26,159.12,218.22,158.29Z"/></g><g id="path228"><path d="M217.2,135.14l-.59,1.13c.14.28.7,1.54.82,1.75.26.47.83,1.61,1.11,2.08,1.09,1.81,1,2.35-.66,4.11-.82.88-2.2,2.06-3.68,3.41s-3,2.27-4.47,2.2c-.8-.05-1.78-.72-2.89-.84a2.58,2.58,0,0,0-2.46,1.07l.83.94c1.29-1.63,4,.18,5.81-.19,2.29-.5,6.64-4.82,8.22-6.39a4.36,4.36,0,0,0,1-1.87,3,3,0,0,0-.08-1.3,20.83,20.83,0,0,0-1.62-3.29C218,136.9,217.5,135.81,217.2,135.14Z"/></g><g id="path230"><path d="M208.68,150.4l-.65-.1a2.57,2.57,0,0,1,.42.6.6.6,0,0,0,.47.35c.14,0,.17,0,.2-.16s-.08-.26-.16-.4S208.76,150.5,208.68,150.4Z"/></g><g id="path232"><path d="M220.25,156.62c0,.4.53,1,.84,1.3a3,3,0,0,0,1.89.94,10.29,10.29,0,0,0,1.1.1,6.27,6.27,0,0,0,1.15-.14l-.16-.83a3.31,3.31,0,0,1-2.86-.26C221.79,157.43,220.43,155.38,220.25,156.62Z"/></g><g id="path234"><path d="M209.08,144.76a6.14,6.14,0,0,1-.7-2.21,16.08,16.08,0,0,1,.18-2.67c.35-2.14,1.71-5,3.3-6.14.17-.15,1.59-1.12,1-1.34-2.55,1.95-5.53,1.05-6.21-2a4,4,0,0,0,3.49.54,6.05,6.05,0,0,0,2.67-1.31c.91-.72,2.85-4.81,3.33-6.18,1.56-4.34,4.07-8,6.06-11.87.64-1.26,4.37-10.39,2-10.52a47.69,47.69,0,0,1-1.24,5.45,70.1,70.1,0,0,1-4.32,9c-.82,1.43-3.35,7-4,8.57-.78,1.87-1.84,4.14-3.26,5.13A5.4,5.4,0,0,1,208,130c-.87-.21-1.18-2.05-2-1.82-.93,2.36-.69,5,3.25,5.92.43.09.89,0,1,.11.13.25-.49.55-.77.93-1,1.3-2.58,5.91-1.86,8.11,0,.07,1.49,5.48,2,3a9.85,9.85,0,0,1,4-6.41,12.31,12.31,0,0,0,3.19-3.7,17.15,17.15,0,0,0,2.17-4.72c0-.58-.3-.58-.53-.36a2.75,2.75,0,0,0-.53.82c-1.1,2.22-2.85,5.47-4.62,7C212,139.87,209.74,141.57,209.08,144.76Z"/></g><g id="path238"><path d="M227.2,137.27c.53.1.06,1,1.27,1.26,2,.39,1.83,2.46,1,3.45a1.67,1.67,0,0,1-1.65.29c-.31-.07-.56.34-.82.59s-.71.17-.42-.7,1.28-.66,2.15-.61c.38,0,.72-.49.71-1a1.87,1.87,0,0,0-.14-.68c-.46-.79-1.32-.47-2-1a2.13,2.13,0,0,1-.46-1.36A.32.32,0,0,1,227.2,137.27Z"/></g><g id="path240"><path d="M225.61,143.23c.13.23.48.9.56,1.06s.21.07.3,0,0-.44-.07-.61c-.15-.36-.22-.6-.44-.67S225.52,143.09,225.61,143.23Z"/></g><g id="path242"><path d="M224.85,144.08c.11.23.39.92.47,1.1s.21.09.3,0,.06-.46,0-.63c-.1-.37-.12-.66-.36-.75S224.79,143.93,224.85,144.08Z"/></g><g id="path244"><path d="M224.28,145a6.88,6.88,0,0,0,.37.9c0,.09.17.08.26,0s0-.38,0-.53c-.1-.31-.11-.53-.31-.62S224.25,144.91,224.28,145Z"/></g><g id="path246"><path d="M223.92,146.12a8.2,8.2,0,0,0-.23.95c0,.1.11.17.19.16s.26-.27.3-.42c.09-.31.23-.6.09-.71S223.95,146,223.92,146.12Z"/></g><g id="path248"><path d="M232.11,107.24a42.3,42.3,0,0,0,.42,5.06A22.51,22.51,0,0,0,236.88,123c1.86,2.59,4,4.91,5.7,7.54a17.69,17.69,0,0,1,3,8,18.74,18.74,0,0,1-.7,4.86c-.15.68-1.4,2.93.22,1.9a15.82,15.82,0,0,0,4.13-3.86,10.39,10.39,0,0,0,1.41-2.71c.16-.64.33-1.33.43-2a19.91,19.91,0,0,0,0-2.29c.14-.64.58-.14.84.14a6,6,0,0,0,2.25,1.25,17.23,17.23,0,0,0,2.47.42,14.59,14.59,0,0,0,5.18-.21,7.59,7.59,0,0,0,2.14-.73c.28-.18.56-.41.84-.59a2.32,2.32,0,0,0,.23-.23s.33-.4.34-.42c-.4-.11-.73,0-1.14-.11a30.3,30.3,0,0,1-7.34-3.4c-.86-.53,2.63-1.22,3.11-1.46a5.44,5.44,0,0,0,1.88-1.52c.24-.27,1.37-1.72,1.48-1.92a15.74,15.74,0,0,0,.86-1.4c.15-.4.2-.65.08-.76-.47-.35-2.51.94-3.81,1.3a21.49,21.49,0,0,1-4,.68,7,7,0,0,0-2.09.6,32.61,32.61,0,0,1,1.55-3,12.33,12.33,0,0,0,.94-3.17l-1-.31c-.55,2.53-1.69,5.84-3.46,7.23-.27.23-.68.71-.59.91s.33.09.72-.11a17.12,17.12,0,0,1,7.39-1.56,5.85,5.85,0,0,0,1.66-.43s1.29-.88.94-.37c-1.46,2.12-2.7,3.38-5.56,3.89a25.54,25.54,0,0,1-3.85.26c-1.69,0-1.61.36-.84.59a21.61,21.61,0,0,1,2.87.77c1.26.68,4.62,2.7,6.16,3.32.73.3,1.32.29,1.37.44s-1.73.66-2.5.73a13.68,13.68,0,0,1-6.88-.88,8.73,8.73,0,0,1-2.78-2.08c-.59-.64-.6-1.64-1-2.31-.2-.37-.6.05-.54.06a10.06,10.06,0,0,0,.53,2.25,7.81,7.81,0,0,1,.49,4c-.2.81-.38,1.63-.62,2.45a8.85,8.85,0,0,1-.84,1.71,21,21,0,0,1-1.66,2.16,4.85,4.85,0,0,1-.9.78c.36-1.84,1-4.26.58-5.92a28.58,28.58,0,0,0-2-5.42,49.12,49.12,0,0,0-4.7-6.63c-1.16-1.41-2.78-4-3.88-5.74a30.07,30.07,0,0,1-2.49-6.78c-.24-1.89-.57-5.67-.94-5.93a1.75,1.75,0,0,0-.4,0C232.11,107,232.1,107.2,232.11,107.24Z"/></g><g id="path250"><path d="M229.48,124.47a31.32,31.32,0,0,0,.83-3.16l.82-4c.56-2.73,1.13-7.57,0-7.85-.63-.18,0,3.89-.67,7.35-.14.72-.37,2.53-.62,4.14S229.12,124.88,229.48,124.47Z"/></g><g id="path252"><path d="M232.34,105.7c-.07,0-.18.06-.21.14a.39.39,0,0,0-.11.24c0,.1.15.24.24.22s.48-.24.51-.4a.29.29,0,0,0,0-.25.27.27,0,0,0-.08-.08C232.5,105.54,232.46,105.63,232.34,105.7Z"/></g><g id="path254"><path d="M232.4,104.52s-.13.05-.14.07-.19.12-.21.22.11.23.23.25.11-.12.11-.14.11-.12.12-.2S232.55,104.51,232.4,104.52Z"/></g><g id="path256"><path d="M232.26,103.69c.14-.26.1-.45-.2-.41-.09,0-.11.14-.13.22s.05.13.08.2S232.19,103.82,232.26,103.69Z"/></g><g id="path258"><path d="M232.25,102.53c-.1-.08-.3,0-.32.07a.15.15,0,0,0,0,.1c0,.07.08.08.18.1s.09,0,.13,0A.18.18,0,0,0,232.25,102.53Z"/></g><g id="path260"><path d="M224,100.3c-.1.16,0,.42.27.36a.45.45,0,0,0,.28-.26C224.64,100.13,224.13,100.16,224,100.3Z"/></g><g id="path262"><path d="M224.11,99a.67.67,0,0,0-.46.25c-.06.07-.16.19-.1.28s.33.07.47-.08.19-.14.22-.28A.15.15,0,0,0,224.11,99Z"/></g><g id="path264"><path d="M223.52,98.07c-.13-.07-.24,0-.35.11a.33.33,0,0,0-.05.23c.05.13.3.13.39,0S223.66,98.18,223.52,98.07Z"/></g><g id="path266"><path d="M223.11,97.27c0-.11-.15-.17-.25-.06a.36.36,0,0,0-.11.22c0,.17.17.32.29.17A.65.65,0,0,0,223.11,97.27Z"/></g><g id="path268"><path d="M232.06,85.42l1.37.26c.16,1.7,1,3.95,1.36,5.8.44,2.28,1.28,6.45,1.77,8.74.54,2.56,1.52,5.69,2.25,8.31.24.93,1.64,5.63,2,6.57a28,28,0,0,0,2.61,5.28c2.8,4.22,5.81,1.39,6.09-2.13l.94.27c-.33,2.62-1.27,4.14-3,4.92-2.23,1-4.29-1.43-5-2.47a28.68,28.68,0,0,1-1.92-3.41c-2.24-5.56-3.46-11.08-4.84-16.42C234.4,96.12,233.95,90.11,232.06,85.42Z"/></g><g id="path270"><path d="M245.92,111.14c-.77.06.6,6.3,3.59,7.32a67.24,67.24,0,0,0,7.4,1.64,9.18,9.18,0,0,0,3.55-1.69c.54-.41,3.62-3.34,1.89-3.7-2.6-.57-5.1-.51-7.82-1.2-1.91-.48-4.38-1.1-6.21-1.69A9.11,9.11,0,0,0,245.92,111.14Z"/></g><g id="path272"><path class="cls-1" d="M246.69,112.31c0-.14.64.22,1.29.43,1.07.34,2.77.93,3.53,1.1,2.38.5,4.84,1,7.22,1.38a17,17,0,0,0,2.65.17c1.57,0-1.82,2.62-2.71,3.17a3.76,3.76,0,0,1-2,.48,52,52,0,0,1-5.79-1.1C248.71,117.58,246.26,113.9,246.69,112.31Z"/></g><g id="path274"><path d="M257.39,110.7a11.21,11.21,0,0,0,1.39-2.91c.32-1,.6-2.11.84-3.18a13.56,13.56,0,0,0-1.09-8.3c-1.21-2.1-1.37-2.21-2,.16-.51,2.07-2.58,4.08-3.78,6.26-.53.94-2.47,4.12-1.08,6.59,1.19.4.61-1.31.67-2a6.67,6.67,0,0,1,.59-2.6c1.25-2.62,3.55-5.07,4.39-8.06,0-.05.07-.15.22.13a10.62,10.62,0,0,1,1.26,7.1,19.79,19.79,0,0,1-1.12,3.91c-.34.88-.9,2.08-1.05,2.58C256.61,110.63,257,110.8,257.39,110.7Z"/></g><g id="g276"><g id="path278"><path d="M258.34,98.18a.25.25,0,0,1,.23-.23.19.19,0,0,1,.22.21Zm0,0h0l-.45,0h0Zm0,0c0,.28-.06.56-.1.83l-.46,0a5.09,5.09,0,0,0,.11-.77Zm-.1.83c-.06.27-.12.54-.2.81l-.43-.07a5.31,5.31,0,0,0,.17-.78Zm-.2.81a11.06,11.06,0,0,1-1.82,3.76l-.33-.34a10.07,10.07,0,0,0,1.72-3.49Zm-2.15,3.42Zm.31.33-.32-.31Zm0,0c-.09.12-.2.28-.3.44l-.38-.23a5.33,5.33,0,0,1,.35-.56Zm-.3.44c-.1.18-.21.4-.32.62l-.38-.21.32-.64Zm-.32.62a14.23,14.23,0,0,0-1,3.05l-.45,0a14.24,14.24,0,0,1,1.11-3.28Zm-1,3.05a.25.25,0,0,1-.23.23.19.19,0,0,1-.22-.21Z"/></g></g><g id="path280"><path d="M243.25,105.59l-1-.67a6.76,6.76,0,0,0,.7,3.88,8,8,0,0,0,1.56,2.38,12.8,12.8,0,0,0,1.54,1.17l.62-1.09a6.31,6.31,0,0,1-2.54-2.47A4.92,4.92,0,0,1,243.25,105.59Z"/></g><g id="path282"><path d="M246.09,107.76c0,.08-.18.43-.32.46s-1-1.22-1.6-1.55a12.42,12.42,0,0,1-2.26-1.29,7.77,7.77,0,0,1-1.58-4.05,6.86,6.86,0,0,1,.32-3l.84.45a6.74,6.74,0,0,0,0,3.57,4.08,4.08,0,0,0,1.09,2.38c.82.65,2.08,1.19,2.57,1.68C245.39,106.61,246.14,107.38,246.09,107.76Z"/></g><g id="path284"><path d="M245.17,102c0,.1-.18.37-.33.31s-.37-.63-.84-1.18a4,4,0,0,0-1.11-.89,10.76,10.76,0,0,1-2.18-1.66,4.6,4.6,0,0,1-1.25-3,11.86,11.86,0,0,1,0-1.47,13.39,13.39,0,0,1,.69-3.17l.84.55a10.36,10.36,0,0,0-.53,1.7,5.89,5.89,0,0,0-.15,2,4.87,4.87,0,0,0,.34,1.79,5,5,0,0,0,.88,1.09,18.17,18.17,0,0,0,2.55,1.94A3.36,3.36,0,0,1,245.17,102Z"/></g><g id="path286"><path d="M240.88,85.82l-.74-.73A5.94,5.94,0,0,0,239,88.34a5,5,0,0,0,.59,2.53c.72,1.28,3,2.87,4.06,3.86a6,6,0,0,1,.83,1.34c.06.11.68.13.28-1.1-.5-1.53-3.16-2.79-3.92-4.24a6.31,6.31,0,0,1-.81-2.36A6,6,0,0,1,240.88,85.82Z"/></g><g id="path288"><path d="M241.45,80l-.5-1a6.13,6.13,0,0,0-1.35,2.62,5.82,5.82,0,0,0,1.5,5.07A23.74,23.74,0,0,1,243,88.32c.45.46,1,.91,1.2,1.2.11.13.41,0,.45-.09.23-.38-.63-1.38-1.65-2.22a8.65,8.65,0,0,1-2-2.07C240.26,83.71,240.21,81.34,241.45,80Z"/></g><g id="path290"><path d="M242.28,72.42c-1,2.13-2,3.4-1.72,5.81a4.72,4.72,0,0,0,1.74,3.21A21.71,21.71,0,0,0,244,82.83c.18.18,1.26,1.23,1.4,1.31,1.06-.07-.42-1.42-1.65-2.62-.69-.66-1.3-.94-1.64-1.46a5.67,5.67,0,0,1-.6-3.29,8.81,8.81,0,0,1,.55-2.22,3.34,3.34,0,0,1,.26-.45,6.84,6.84,0,0,0,1.16,1.41c.85.76,2.67,1.85,3.21,2.94.36.75.59,1.21.81,1.58.12.21.28.1.54-.23s-.55-1.69-.76-2c-1-1.68-1.64-1.72-3-2.79C242.44,73.5,242.94,72.61,242.28,72.42Z"/></g><g id="path292"><path d="M248,79.7l-.67-1.86a37.41,37.41,0,0,1,5.34-8.18,66.42,66.42,0,0,1,15.08-12.32,14.91,14.91,0,0,0,4.35-3.77c.53-.66,3.3-6.22-1.25-6.67-.64-.06-2.06.1-1.2-1a4.93,4.93,0,0,1,3.61-2.24,4.19,4.19,0,0,1,4.51,2.84c1.8-4.13,5.76-5.46,6.72-9.93,1.72,1.33,1.82,3.86,1.26,6.45a11.52,11.52,0,0,1-1.59,3.17,40.86,40.86,0,0,1-4.29,3.78c-.24,0-.41-.19-.19-.43.63-.76,2.36-2.4,2.6-2.67a9.3,9.3,0,0,0,2.47-4,7.45,7.45,0,0,0,.12-4c-1.27,3-5,4.88-6.74,8.56-.11.2-.87,2.58-1.19,2.73-.16.09-.33-.05-.26-.5.41-2.23.7-2.62-.43-4.07-.62-.81-2.25-1-2.86-.91a3.24,3.24,0,0,0-2.12,1.1,10.64,10.64,0,0,1,1.89,1.06,3.45,3.45,0,0,1,1.2,3.34,11.75,11.75,0,0,1-.44,2.19,15.66,15.66,0,0,1-2.19,3.23,31.28,31.28,0,0,1-6.2,4.59,82.64,82.64,0,0,0-7.14,5.36c-1.05,1-2.45,2.27-3.81,3.71A39.29,39.29,0,0,0,249.47,76C248.5,77.63,247.76,78.94,248,79.7Z"/></g><g id="path294"><path d="M284.75,44.39l.77-1.3a7.11,7.11,0,0,1,.24,6.37,10.45,10.45,0,0,1-2.19,3.12,14.39,14.39,0,0,1-3.42,2.61c-.35.19-1,.72-1.36.74-.08,0-.13-.15-.19-.23-.18-.3,1.95-1.83,2.41-2.18a17.16,17.16,0,0,0,3.19-3C285.21,49.36,286,44.76,284.75,44.39Z"/></g><g id="path296"><path d="M284.17,51.78l1-1.43a15,15,0,0,1-.39,3.38,9.12,9.12,0,0,1-1.15,2.48,7.37,7.37,0,0,1-4.28,3.18c-.44.15-1.55.58-2,.65-.13,0-.47,0-.6,0-.33.09-.55-.37.14-.64C280,58.21,284,57.28,284.17,51.78Z"/></g><g id="path298"><path d="M281.73,57.91l1.33-1.13c-.6,4-3.07,5.82-4.7,6.22a.57.57,0,0,1-.72-.26C277.2,62.09,281.71,61.34,281.73,57.91Z"/></g><g id="path300"><path d="M251.89,105.12l.94-1.79c-1.84-9.18-2.17-12.61-1.95-15.11a25.84,25.84,0,0,1,.39-2.72A33.18,33.18,0,0,1,253.1,80a30.33,30.33,0,0,1,7.74-10.06,53.7,53.7,0,0,1,7.3-4.67c1.26-.62,3.78-1.27,5.73.26a3.79,3.79,0,0,1,.87,4.14c2.26-.16,4.74-3,4.49-4.51-.44-2.91-3.14-4.66-5.28-3.34a6.34,6.34,0,0,1,2.71.74,3.07,3.07,0,0,1,1.49,3.24,4.82,4.82,0,0,1-2.35,2.81c.79-2-.94-4.28-3-4.73-2.64-.58-3.56-.31-5.86.61-6.82,3.7-13.33,9.81-15.8,17.46a28.2,28.2,0,0,0-1.54,7.57,10.73,10.73,0,0,0,.15,2.46c.24,1.42.66,4.81.92,6.33C250.81,99,252,104.53,251.89,105.12Z"/></g><g id="path302"><path d="M261.41,114.68l1.25.64a12.68,12.68,0,0,0,3.46-1.75,6.91,6.91,0,0,0,2.72-4l-1,.21a6,6,0,0,1-2.23,3A19.94,19.94,0,0,1,261.41,114.68Z"/></g><g id="path304"><path d="M271.91,104.59l1.07-.34c-.49,2.25-1.23,3.84-2.8,4.78a12.67,12.67,0,0,1-4.34,1.51c-.24.05-1.77.45-2.53.57-.27,0-.48-.21-.2-.41,2-1.34,4-.91,5.77-2A5.54,5.54,0,0,0,271.91,104.59Z"/></g><g id="path306"><path d="M275.57,98.21l.78-.87c.48,1.9-1.25,5-2.28,6.14a8.27,8.27,0,0,1-4.56,2.22,9.89,9.89,0,0,0-2.3.74c-1.16.72-1.47.39-.86-.19.17-.15.7-.4,1-.58a12.26,12.26,0,0,1,2.18-.74A10,10,0,0,0,273,103.2a8.38,8.38,0,0,0,2.59-5S275.59,98.21,275.57,98.21Z"/></g><g id="path308"><path d="M278.46,92l1.09-1c.45,3.24-2.32,6.78-5,8-1.71.73-3.36,1.18-4.07,1.47a11,11,0,0,1-1,.51c-.32.07-.4,0-.12-.49a13,13,0,0,1,3-1.42,10.3,10.3,0,0,0,2.88-1.45,7.66,7.66,0,0,0,2.33-2.26C277.75,95,278.91,92.91,278.46,92Z"/></g><g id="path310"><path d="M280.13,85.58l.86-1.22c1,3.54-.75,6-2.61,8.1s-5.62,2.41-7.92,3.52c-.11.06-.29-.18-.28-.2,1.24-1.48,5.62-1.83,6.9-3.21a19.63,19.63,0,0,0,2.57-3.18C280,88.73,280.85,86.37,280.13,85.58Z"/></g><g id="path312"><path d="M282,79.51c.56,1.08,0,3.73-.59,4.74a8,8,0,0,1-2.78,2.93,42.11,42.11,0,0,1-4.18,1.89c-.44.17-1.08.54-1.42.61s-.22-.13-.17-.36c.08-.47,3.18-1.32,5.52-2.78a7.54,7.54,0,0,0,2-2.2,8.47,8.47,0,0,0,1-2.37c.18-.61.23-.89.13-.95a.41.41,0,0,0-.21,0c-.31.1-.86.75-1.25.95-1.53.83-3.08,1.22-4.91,2a15.84,15.84,0,0,0-2,1c-.36.25-.28-.39,0-.71a4.82,4.82,0,0,1,2.23-1.33c1.18-.45,2.46-1.11,3.64-1.56C280.55,80.76,281.27,79.64,282,79.51Z"/></g><g id="path314"><path d="M273.55,84.55l.37-.57a14.28,14.28,0,0,0,.28-4.71,41.5,41.5,0,0,0-1.69-7.07c-.76-2.3-2-6-3.44-7.72l-1,.4c1.4,1.81,3.39,6.83,3.92,9.27.38,1.81,1.28,4.29,1.32,6.24a14,14,0,0,1-.11,2.56c-.12.93-.33,1.62-.34,1.94S273.07,85.14,273.55,84.55Z"/></g><g id="path316"><path d="M259.3,105.05l-1.43,4.37a48,48,0,0,0,2.53-4.13,43.6,43.6,0,0,0,2.38-5.12c.51-1.31,1.46-3.41,2.24-5.58s1.37-4.4,1.76-5.89c1.85-7,.56-18.29-2.88-21.34l-.86.57c3.84,5,4.2,13.28,2.78,20.22a52,52,0,0,1-3.4,10.13C261.86,99.7,260.29,104,259.3,105.05Z"/></g><g id="path318"><path d="M259.53,48.2c0-.75.31-3.64.42-4.8.16-1.68-.45-3.44-.49-4.73a13.22,13.22,0,0,1,.27-3.3,14.43,14.43,0,0,1,1.4-3.89c-2.22.84-3.63,1.87-5,5.11a13.09,13.09,0,0,0-.95,5.72c0,.77.65,3.56,1.17,4,.12,0,.27,0,.32-.26s-.07-.4-.09-.63a36.19,36.19,0,0,1-.53-3.74,17.35,17.35,0,0,1,1.23-5.7,8.1,8.1,0,0,1,2-2.57c-.58,2.93-1.16,4.76-.55,7.82a14,14,0,0,1,.33,3.31c0,.86-.13,2.54-.18,3.26C258.83,48.8,259.53,48.38,259.53,48.2Z"/></g><g id="path320"><path d="M264.89,59.64l.89-.72c-1.5-2.35-3-6.55-2.42-9.8a3.6,3.6,0,0,1,1.45-2.53c1.48-1,2.71.92,3.19.8-.31-1,0-3.46-2.74-4.61a4.31,4.31,0,0,0-4.34.46,9.48,9.48,0,0,0-1.16,1.09l-.22,2a6.43,6.43,0,0,1,3.29-2.84,3.17,3.17,0,0,1,4,2.36c-2.67-1.58-4.55,2.1-4.49,4.39,0,1.47.54,3.13.56,4.5A19.9,19.9,0,0,0,264.89,59.64Z"/></g><g id="path322"><path d="M256.09,37.38l1-2.14a8.92,8.92,0,0,0-4.79,6.71c-.28,2.85,2.06,8,2.91,8.48.13.07.31-.1.34-.27-.38-.67-1.51-3.71-1.88-4.63a12.38,12.38,0,0,1-.5-2.94,8.28,8.28,0,0,1,.43-2.06A6.85,6.85,0,0,1,256.09,37.38Z"/></g><g id="path324"><path d="M252.69,44.15l-.29-1.39c-1.58,1.16-2.06,4.38-1.8,5.9.32,2,2.11,4,3.82,5.24.46.32,1-.17.15-.86a8.31,8.31,0,0,1-2.94-3.88A4.81,4.81,0,0,1,252.69,44.15Z"/></g><g id="path326"><path d="M251.77,50.88l-.64-1.16a6.61,6.61,0,0,0-.92,4.12,5.56,5.56,0,0,0,4,4.21,1.76,1.76,0,0,0,.65.08c.18,0,.3-.16.07-.33s-1-.44-1.5-.76a5.56,5.56,0,0,1-2-2.73C251.08,53.39,250.93,51.73,251.77,50.88Z"/></g><g id="path328"><path d="M259.54,63.6l-.84.39a8.68,8.68,0,0,0-2.28-2.17,5.8,5.8,0,0,0-2.88-.53c-1.61.36-1.65,1.94-1.91,3.13-.09.41-1.64-1.54-1.84-1.91a5.94,5.94,0,0,1-.68-3c.26-1.86.87-3,2.83-3L254.32,58c-.9-.16-1.88-.51-2.14-.47a2.54,2.54,0,0,0-2.09,2.09c-.19.77,0,2.78.84,3,.27-1.9,2.54-2.48,4-2.2A7.83,7.83,0,0,1,259.54,63.6Z"/></g><g id="path330"><path d="M219.11,115.53l.59-.95a3.49,3.49,0,0,1-1.42-1.59c-.74-2.85,1.07-3.13,1.48-5.07.45-2.16-2.46-6.55-3-6.7,1.28.28,3.24,1.57,3.63,2.67A10.75,10.75,0,0,0,221,105c.17.36.76.35.71.11-.65-2.73-2.3-4.74-3.94-6.85-3.5-4.49-7-7.26-9.71-11.37l-.79.56c.66,1.43,4.69,6,6,7.15.65.59,4.81,5.66,5.13,6.17-1-.37-2.54-.76-3.28-.94s.19.71.92,1.73,1.37,2.11,1.51,2.39A9.1,9.1,0,0,1,218.8,107a2.81,2.81,0,0,1-.2,1.3,11.29,11.29,0,0,0-1.29,2.55C216.85,112.9,217.43,114.19,219.11,115.53Z"/></g></g><g id="path10-1"><path d="M294.45,34.18,275.8,119.35a64.81,64.81,0,0,1-10,19.63c-5.23,7.13-12,13.88-16.92,16.81l-.7.42a92,92,0,0,1-18.27,9A62.71,62.71,0,0,1,202.62,168a62.84,62.84,0,0,1-23.67-14,92,92,0,0,1-12.86-15.81l-.42-.62c-2.68-3.92-6.29-12.35-8.32-22.36a63.82,63.82,0,0,1-.85-22L175.14,8.05,294.45,34.18m2.09-1.34L173.8,6l-19,86.93c-1,5.65-.88,14.25.86,22.69,1.88,9.27,5.4,18.33,8.59,23,6.42,9.37,15.93,23.82,38,31.18,23.16,2.55,37.82-6.62,47.57-12.45,4.85-2.91,11.83-9.65,17.44-17.28,5.09-7,8.77-14.72,10.26-20.26l19-86.93Z"/></g></g><g id="Layer_1_copy" data-name="Layer 1 copy"><path class="cls-1" d="M29.95,138.79A28.16,28.16,0,0,1,3,121.26,42.37,42.37,0,0,1,3,89.82,28.6,28.6,0,0,1,13.38,77.1l.66-.43c-.52-.83-1-1.69-1.51-2.55A10.47,10.47,0,0,1,14.93,61L17,59.23a10.46,10.46,0,0,1,13.1-.29,10.46,10.46,0,0,1,13.49.63l1.89,1.75A10.46,10.46,0,0,1,47.58,74c-.5.93-1,1.84-1.57,2.73a20.29,20.29,0,0,1,4,3.51A17.35,17.35,0,0,1,54.3,91.72a17.65,17.65,0,0,1-4.57,12.16A16.41,16.41,0,0,1,44,108a12.48,12.48,0,0,1,6.5,3,11.93,11.93,0,0,1,4.37,9.16,11.44,11.44,0,0,1-1.24,5.15,10.63,10.63,0,0,1-.77,1.3C47.26,134.56,39.34,138.79,29.95,138.79Zm.38-25.18h.16a5.07,5.07,0,0,0,2.2-.36,1.56,1.56,0,0,0,.69-.54l.27-.38a11.27,11.27,0,0,1,3.49-3.07,11.58,11.58,0,0,1-9.31-4.48q0,.41,0,.83a15.66,15.66,0,0,0,.93,5.58,5.47,5.47,0,0,0,1.47,2.34l.11.08Z"/><path class="cls-1" d="M29.95,136.7a26.07,26.07,0,0,1-25-16.26,40.28,40.28,0,0,1,0-29.8,26.55,26.55,0,0,1,9.6-11.81A24.25,24.25,0,0,1,17,77.37c-.93-1.36-1.82-2.8-2.65-4.28a8.37,8.37,0,0,1,1.93-10.5l2.09-1.75a8.37,8.37,0,0,1,10.73,0l1,.84,1.06-.87a8.37,8.37,0,0,1,11,.34l1.89,1.75A8.37,8.37,0,0,1,45.74,73c-.82,1.52-1.71,3-2.66,4.39a18.73,18.73,0,0,1,5.33,4.21,15.28,15.28,0,0,1,3.8,10.14,15.59,15.59,0,0,1-4,10.74,14.22,14.22,0,0,1-10.76,4.71c-6.36,0-9.79-4.7-9.79-9.11A8.43,8.43,0,0,1,28,95.7a9.1,9.1,0,0,0-1.31,2.83,25.4,25.4,0,0,0-.95,7.07,17.73,17.73,0,0,0,1.07,6.32,7.44,7.44,0,0,0,2.1,3.21,2.25,2.25,0,0,0,1.6.56,7.14,7.14,0,0,0,3.13-.58,3.64,3.64,0,0,0,1.49-1.23l.22-.31a8.84,8.84,0,0,1,7.1-3.61,10.24,10.24,0,0,1,6.7,2.56,9.86,9.86,0,0,1,3.63,7.56,9.37,9.37,0,0,1-1,4.22,8.45,8.45,0,0,1-.62,1C45.95,132.77,38.63,136.7,29.95,136.7Z"/><path class="cls-1" d="M29.95,130.42A19.8,19.8,0,0,1,10.73,118a31.49,31.49,0,0,1-2.36-12.38,31.86,31.86,0,0,1,2.36-12.51A20.37,20.37,0,0,1,18.09,84,20.4,20.4,0,0,1,28.63,80.7a2.1,2.1,0,0,1-.41-.18,16.63,16.63,0,0,1-4.1-4A48.18,48.18,0,0,1,19.83,70a2.09,2.09,0,0,1,.48-2.63l2.09-1.75a2.09,2.09,0,0,1,2.68,0l5,4.15,5.07-4.16a2.09,2.09,0,0,1,2.75.08l1.89,1.75A2.09,2.09,0,0,1,40.21,70a43.94,43.94,0,0,1-4.28,6.51,16.93,16.93,0,0,1-4,4,2.08,2.08,0,0,1-.4.18A21.57,21.57,0,0,1,38,81.94a13.69,13.69,0,0,1,5.71,3.76,9,9,0,0,1,2.26,6,9.3,9.3,0,0,1-2.37,6.5,8,8,0,0,1-6.13,2.67c-3.41,0-3.51-2.54-3.51-2.83A3.84,3.84,0,0,1,34.79,96a7.85,7.85,0,0,0,.74-1.54,5.55,5.55,0,0,0,.28-1.88,3.68,3.68,0,0,0-1.38-3,6.4,6.4,0,0,0-4.28-1.29,8,8,0,0,0-5.91,2.23,14.38,14.38,0,0,0-3.61,6.34,31.67,31.67,0,0,0-1.2,8.82,24,24,0,0,0,1.48,8.56,13.66,13.66,0,0,0,4,5.83,8.47,8.47,0,0,0,5.58,2,13.27,13.27,0,0,0,5.91-1.23,9.84,9.84,0,0,0,3.89-3.32,2.63,2.63,0,0,1,2.13-1.18,4,4,0,0,1,2.64,1.07,3.59,3.59,0,0,1,1.41,2.78,3.14,3.14,0,0,1-.36,1.41,2,2,0,0,1-.15.26C42,127.51,36.58,130.42,29.95,130.42Z"/><path class="cls-1" d="M19.23,125.32a18.3,18.3,0,0,1-6.57-8.16,29.28,29.28,0,0,1-2.19-11.56,29.65,29.65,0,0,1,2.19-11.7,18.23,18.23,0,0,1,6.61-8.16,18.93,18.93,0,0,1,10.89-3,20.34,20.34,0,0,1,7.08,1.15,11.58,11.58,0,0,1,4.85,3.17,6.89,6.89,0,0,1,1.75,4.65A7.24,7.24,0,0,1,42,96.81a6,6,0,0,1-4.58,2Q36,98.8,36,98.06a4.05,4.05,0,0,1,.54-1,9.89,9.89,0,0,0,.94-2,7.58,7.58,0,0,0,.4-2.6,5.76,5.76,0,0,0-2.12-4.62,8.46,8.46,0,0,0-5.63-1.79A10.05,10.05,0,0,0,22.77,89a16.37,16.37,0,0,0-4.15,7.25,33.6,33.6,0,0,0-1.28,9.4,25.92,25.92,0,0,0,1.62,9.3,15.65,15.65,0,0,0,4.62,6.71,10.57,10.57,0,0,0,6.91,2.46,15.26,15.26,0,0,0,6.84-1.45,12,12,0,0,0,4.68-4,.55.55,0,0,1,.4-.27,2,2,0,0,1,1.28.57,1.59,1.59,0,0,1,.67,1.18,1.09,1.09,0,0,1-.13.47q-5.39,7.75-14.29,7.75A18.52,18.52,0,0,1,19.23,125.32Zm6.54-50.15A45.8,45.8,0,0,1,21.66,69l2.09-1.75,6.34,5.26,6.4-5.26L38.37,69a41.66,41.66,0,0,1-4.08,6.2,16.08,16.08,0,0,1-3.4,3.51H29.27A15.35,15.35,0,0,1,25.77,75.17Z"/><path class="cls-1" d="M64.46,138.79a24.19,24.19,0,0,1-12.91-3.51,23.49,23.49,0,0,1-8.8-9.76,30.28,30.28,0,0,1,.32-26.28,24.17,24.17,0,0,1,9.7-10,27.12,27.12,0,0,1,13.44-3.36c6.11,0,11.15,1.87,15,5.56a18.87,18.87,0,0,1,5.94,13.87,19.88,19.88,0,0,1-2.42,9.5,11.86,11.86,0,0,1,2.62,7.41,11.05,11.05,0,0,1-1.68,5.86,10.08,10.08,0,0,1-1.08,1.53,25.43,25.43,0,0,1-9.18,6.88A26.94,26.94,0,0,1,64.46,138.79Z"/><path class="cls-1" d="M64.46,136.7a22.13,22.13,0,0,1-11.81-3.2,21.43,21.43,0,0,1-8-8.91,28.19,28.19,0,0,1,.3-24.37,22.11,22.11,0,0,1,8.87-9.13A25.06,25.06,0,0,1,66.21,88c5.55,0,10.1,1.67,13.53,5A16.82,16.82,0,0,1,85,105.34a17.91,17.91,0,0,1-2.53,9.15l-.38.62a9.9,9.9,0,0,1,3.11,7.15A9,9,0,0,1,83.87,127a8.35,8.35,0,0,1-.9,1.28,23.36,23.36,0,0,1-8.43,6.32A24.85,24.85,0,0,1,64.46,136.7Z"/><path class="cls-1" d="M64.46,130.42a16,16,0,0,1-8.51-2.27,15.25,15.25,0,0,1-5.7-6.35,21.94,21.94,0,0,1,.23-18.66,15.93,15.93,0,0,1,6.39-6.58,18.87,18.87,0,0,1,9.35-2.29c3.87,0,7,1.08,9.17,3.21a10.54,10.54,0,0,1,3.37,7.84,11.72,11.72,0,0,1-1.67,6,12.54,12.54,0,0,1-4.83,4.61A14.72,14.72,0,0,1,65,117.68a17.46,17.46,0,0,1-5-.8q-.43-.13-.81-.28a8.85,8.85,0,0,0,1.49,3.35,5.81,5.81,0,0,0,5,2.24,10,10,0,0,0,7.42-2.89,2.83,2.83,0,0,1,2-.82,3.68,3.68,0,0,1,2.55,1.11A3.62,3.62,0,0,1,79,122.26a2.65,2.65,0,0,1-.49,1.54,2.11,2.11,0,0,1-.28.42A17.13,17.13,0,0,1,72,128.86,18.61,18.61,0,0,1,64.46,130.42Zm-5.32-21.11a5.93,5.93,0,0,1,1.94.49,6.22,6.22,0,0,0,2,.25,5.72,5.72,0,0,0,4.25-1.41,4.5,4.5,0,0,0,1.41-3.37,3.91,3.91,0,0,0-1-2.78,3.33,3.33,0,0,0-2.66-1.06,4.84,4.84,0,0,0-4.4,2.5A13,13,0,0,0,59,109.32Z"/><path class="cls-1" d="M57,126.37a13.13,13.13,0,0,1-4.92-5.49,19.86,19.86,0,0,1,.2-16.75,13.81,13.81,0,0,1,5.56-5.73,16.73,16.73,0,0,1,8.32-2q5,0,7.72,2.63a8.48,8.48,0,0,1,2.73,6.34,9.61,9.61,0,0,1-1.38,4.92,10.43,10.43,0,0,1-4,3.84A12.6,12.6,0,0,1,65,115.58a15.3,15.3,0,0,1-4.38-.71q-2.36-.71-2.36-2.12a1.66,1.66,0,0,1,.27-.94.75.75,0,0,1,.61-.4,6.52,6.52,0,0,1,1.25.37,8.31,8.31,0,0,0,2.73.37,7.75,7.75,0,0,0,5.73-2,6.62,6.62,0,0,0,2-4.85,6,6,0,0,0-1.58-4.18,5.4,5.4,0,0,0-4.21-1.75,6.91,6.91,0,0,0-6.17,3.47q-2.19,3.47-2.19,9.88,0,5.46,2.33,8.53a7.9,7.9,0,0,0,6.71,3.07,12.06,12.06,0,0,0,8.9-3.51.73.73,0,0,1,.54-.2,1.67,1.67,0,0,1,1.11.54,1.58,1.58,0,0,1,.57,1.15.58.58,0,0,1-.13.37.51.51,0,0,0-.13.24,15,15,0,0,1-5.43,4.08,16.46,16.46,0,0,1-6.71,1.38A13.84,13.84,0,0,1,57,126.37Z"/><path class="cls-1" d="M95.6,138.79a23.25,23.25,0,0,1-13.62-4,16.9,16.9,0,0,1-7.5-14.14,15,15,0,0,1,2.44-8.27,18.58,18.58,0,0,1-1.7-7.84,17.2,17.2,0,0,1,5.58-12.76C79.91,90.43,79,89,78.24,87.6a10.51,10.51,0,0,1,2.28-13l2-1.75a10.47,10.47,0,0,1,13.26-.37,10.46,10.46,0,0,1,13.39.48l2,1.75a10.41,10.41,0,0,1,2.15,12.9c-.56,1-1.14,2-1.75,2.93a15.32,15.32,0,0,1,5.78,12,16.37,16.37,0,0,1-1.76,7.49,16.48,16.48,0,0,1,2.64,9,18.49,18.49,0,0,1-7.48,15A24.41,24.41,0,0,1,95.6,138.79Z"/><path class="cls-1" d="M95.6,136.7a21.2,21.2,0,0,1-12.42-3.64,14.86,14.86,0,0,1-6.6-12.42,13,13,0,0,1,2.79-8.09,16.14,16.14,0,0,1-2-8,15.29,15.29,0,0,1,6.3-12.4,55.64,55.64,0,0,1-3.55-5.56,8.37,8.37,0,0,1,1.82-10.41l2-1.75a8.37,8.37,0,0,1,10.79-.15l1.09.89L97,74.2a8.37,8.37,0,0,1,10.83.3l2,1.75a8.37,8.37,0,0,1,1.72,10.32c-.87,1.55-1.8,3.05-2.79,4.48a13.4,13.4,0,0,1,6.55,11.52,13.93,13.93,0,0,1-2.15,7.61,14.35,14.35,0,0,1,3,8.9,16.44,16.44,0,0,1-6.65,13.38A22.37,22.37,0,0,1,95.6,136.7Z"/><path class="cls-1" d="M95.6,130.42a15.07,15.07,0,0,1-8.82-2.5,8.63,8.63,0,0,1-3.93-7.28,6.64,6.64,0,0,1,2.1-4.92,7,7,0,0,1,4.25-1.92,13.38,13.38,0,0,1-3.77-3.43,9.49,9.49,0,0,1-1.83-5.84,9.09,9.09,0,0,1,4-7.56,15.1,15.1,0,0,1,8.65-2.68H94.93A2.09,2.09,0,0,1,93.84,94a17.65,17.65,0,0,1-4-4,48.16,48.16,0,0,1-4.3-6.45A2.09,2.09,0,0,1,86,80.9l2-1.75a2.09,2.09,0,0,1,2.7,0l5,4.12,5.15-4.13a2.09,2.09,0,0,1,2.71.07l2,1.75a2.09,2.09,0,0,1,.43,2.58A48.15,48.15,0,0,1,101.65,90a16.93,16.93,0,0,1-4,4,2.09,2.09,0,0,1-.89.28h0a16.26,16.26,0,0,1,8.27,1.94,7.11,7.11,0,0,1,3.87,6.36,7.38,7.38,0,0,1-2,5.29,6.85,6.85,0,0,1-4.22,2.07q.73.37,1.36.72a13.36,13.36,0,0,1,3.91,3.24,8,8,0,0,1,1.82,5.2,10,10,0,0,1-4.17,8.38A16.28,16.28,0,0,1,95.6,130.42Zm-2.24-14.49a2.59,2.59,0,0,1,.09.67,5.18,5.18,0,0,1-.56,2,4,4,0,0,0-.25,1.53,2.42,2.42,0,0,0,1,2.17,4.41,4.41,0,0,0,2.75.93,4.26,4.26,0,0,0,2.84-.86,2.27,2.27,0,0,0,.87-1.9,1.8,1.8,0,0,0-.88-1.56,22.08,22.08,0,0,0-4.51-2.38Zm3-14.57a4,4,0,0,0-2.6.72,1.85,1.85,0,0,0-.7,1.56,2.44,2.44,0,0,0,1.07,2.08A17.85,17.85,0,0,0,98.45,108a3,3,0,0,1-.16-1,4.65,4.65,0,0,1,.75-2.2,2.42,2.42,0,0,0,.26-1.17,1.68,1.68,0,0,0-.68-1.57A3.79,3.79,0,0,0,96.34,101.36Z"/><path class="cls-1" d="M88,126.2a6.5,6.5,0,0,1-3-5.56,4.52,4.52,0,0,1,1.45-3.4,5.11,5.11,0,0,1,3.67-1.38,1.93,1.93,0,0,1,.88.2.61.61,0,0,1,.4.54,5.24,5.24,0,0,1-.4,1.18,6.06,6.06,0,0,0-.4,2.33,4.53,4.53,0,0,0,1.79,3.84,6.48,6.48,0,0,0,4,1.35,6.31,6.31,0,0,0,4.18-1.35,4.35,4.35,0,0,0,1.62-3.5,3.89,3.89,0,0,0-1.72-3.24,23.93,23.93,0,0,0-5-2.63,48.6,48.6,0,0,1-5-2.43,11.23,11.23,0,0,1-3.4-3,7.42,7.42,0,0,1-1.42-4.58,7,7,0,0,1,3.17-5.86,13.23,13.23,0,0,1,8-2.29A14.16,14.16,0,0,1,104,98a5.07,5.07,0,0,1,2.83,4.55,5.33,5.33,0,0,1-1.42,3.84,4.89,4.89,0,0,1-3.71,1.48q-1.35,0-1.35-.88a3.81,3.81,0,0,1,.51-1.21,4.5,4.5,0,0,0,.51-2.16,3.77,3.77,0,0,0-1.55-3.27,5.87,5.87,0,0,0-3.51-1.11,6,6,0,0,0-3.94,1.21,3.93,3.93,0,0,0-1.45,3.17,4.51,4.51,0,0,0,1.89,3.74,20.68,20.68,0,0,0,5.33,2.73q3,1.28,4.92,2.36a11.22,11.22,0,0,1,3.3,2.73,6,6,0,0,1,1.35,3.88,8,8,0,0,1-3.34,6.71,14.19,14.19,0,0,1-8.8,2.53A13,13,0,0,1,88,126.2Zm3.51-37.55a45.84,45.84,0,0,1-4.11-6.17l2-1.75,6.34,5.19,6.47-5.19,2,1.75a45.82,45.82,0,0,1-4.15,6.2,16.09,16.09,0,0,1-3.4,3.5H94.93A16.44,16.44,0,0,1,91.49,88.65Z"/><path class="cls-1" d="M122.83,138.79a14.48,14.48,0,0,1-12-5.79c-2.11-2.88-3.14-6.53-3.14-11.15V109.71a10.47,10.47,0,0,1-3.48-5l-.47-1.48a10.5,10.5,0,0,1,2.87-10.86q.4-.37.83-.73a12.72,12.72,0,0,1-.76-4.32,14,14,0,0,1,4.11-9.68,13.54,13.54,0,0,1,10.06-4.76,13.71,13.71,0,0,1,10.07,4.66,14,14,0,0,1,4.24,9.78,13,13,0,0,1-1.8,6.56,12.26,12.26,0,0,1,.78,4.36V114a10.34,10.34,0,0,1,2.87,2.64l1.15,1.55a10.44,10.44,0,0,1-.87,13.47,26.83,26.83,0,0,1-5.83,4.63A17.05,17.05,0,0,1,122.83,138.79Z"/><path class="cls-1" d="M122.83,136.7a12.43,12.43,0,0,1-10.36-4.94c-1.84-2.51-2.73-5.75-2.73-9.91V108.62a8.36,8.36,0,0,1-3.58-4.59l-.47-1.48a8.37,8.37,0,0,1,2.3-8.69,22.74,22.74,0,0,1,2-1.62,10.79,10.79,0,0,1-1.22-5A12,12,0,0,1,112.28,79a11.5,11.5,0,0,1,8.53-4.09,11.67,11.67,0,0,1,8.55,4A12,12,0,0,1,133,87.27,11.14,11.14,0,0,1,131,93.65,10.12,10.12,0,0,1,132,98.19v17.07a8.29,8.29,0,0,1,3.28,2.63l1.15,1.55a8.37,8.37,0,0,1-.7,10.78,24.71,24.71,0,0,1-5.37,4.27A15,15,0,0,1,122.83,136.7Z"/><path class="cls-1" d="M122.83,130.42a6.16,6.16,0,0,1-5.29-2.37c-1-1.39-1.52-3.42-1.52-6.19V103.59h-1.88a2.09,2.09,0,0,1-2-1.46l-.47-1.48a2.09,2.09,0,0,1,.57-2.17,16.9,16.9,0,0,1,4.58-3,11.82,11.82,0,0,1,4.8-1.19,4.21,4.21,0,0,1,2.83,1,3.74,3.74,0,0,1,1.28,2.88V122a4.13,4.13,0,0,0,1.56-.81,2.09,2.09,0,0,1,1.27-.43l.3,0a2.1,2.1,0,0,1,1.39.83l1.15,1.55a2.09,2.09,0,0,1-.17,2.69,18.46,18.46,0,0,1-4,3.19A8.86,8.86,0,0,1,122.83,130.42Zm-2-37.07a5.48,5.48,0,0,1-3.88-2.07,5.15,5.15,0,0,1-.05-8,5.43,5.43,0,0,1,3.93-2.09,5.65,5.65,0,0,1,4,2.06,5.13,5.13,0,0,1,0,8A5.65,5.65,0,0,1,120.81,93.34Z"/><path class="cls-1" d="M119.23,126.81q-1.11-1.52-1.11-5V103a1.87,1.87,0,0,0-.27-1.15,1.15,1.15,0,0,0-.94-.34h-2.76l-.47-1.48a14.74,14.74,0,0,1,4-2.63,9.91,9.91,0,0,1,3.94-1,2.11,2.11,0,0,1,1.45.51,1.67,1.67,0,0,1,.57,1.31v23.86q0,2.09,1.82,2.09a5.28,5.28,0,0,0,3.1-1.28l1.15,1.55a16.29,16.29,0,0,1-3.54,2.83,6.8,6.8,0,0,1-3.34,1.08A4.17,4.17,0,0,1,119.23,126.81Zm-.78-37a4,4,0,0,1-1.35-2.56,4,4,0,0,1,1.31-2.56,3.57,3.57,0,0,1,2.39-1.42,3.7,3.7,0,0,1,2.49,1.42,4,4,0,0,1,1.35,2.56,4,4,0,0,1-1.35,2.56,3.7,3.7,0,0,1-2.49,1.42A3.65,3.65,0,0,1,118.45,89.83Z"/><path class="cls-1" d="M171,138.79A19.66,19.66,0,0,1,160.35,136a18.31,18.31,0,0,1-7.1-8.69,40.73,40.73,0,0,1-2.48-9.95l-1.11-7a10.46,10.46,0,0,1-4-4.84L145,104a10.41,10.41,0,0,1,2.45-11.51A25,25,0,0,1,154,88a19.53,19.53,0,0,1,8.38-2.07,12.44,12.44,0,0,1,8.14,3,10.46,10.46,0,0,1,5.21-2.09L183.1,86a10.35,10.35,0,0,1,1.14-.06,10.46,10.46,0,0,1,10.44,9.82c.2,3.14.29,5.47.29,7.12a56.1,56.1,0,0,1-2.36,17.05A30.82,30.82,0,0,1,185,133,20,20,0,0,1,171,138.79Z"/><path class="cls-1" d="M171,136.7a17.61,17.61,0,0,1-9.56-2.51,16.26,16.26,0,0,1-6.29-7.73,38.75,38.75,0,0,1-2.34-9.44l-1.27-8a8.37,8.37,0,0,1-4-4.32l-.61-1.48a8.37,8.37,0,0,1,2-9.21,22.86,22.86,0,0,1,6-4.11A17.46,17.46,0,0,1,162.4,88a10.16,10.16,0,0,1,8.07,3.8l.23-.25A8.38,8.38,0,0,1,176,88.86l7.35-.81a8.37,8.37,0,0,1,9.27,7.81c.19,3.11.29,5.4.29,7a54,54,0,0,1-2.26,16.41,28.75,28.75,0,0,1-7.11,12.18A17.91,17.91,0,0,1,171,136.7Zm-1.27-19.77"/><path class="cls-1" d="M171,130.42a11.48,11.48,0,0,1-6.21-1.54A10.13,10.13,0,0,1,161,124a33,33,0,0,1-1.93-8l-2-12.49h-1.75a2.09,2.09,0,0,1-1.94-1.3l-.61-1.48a2.09,2.09,0,0,1,.49-2.3,16.59,16.59,0,0,1,4.35-3,11.14,11.14,0,0,1,4.78-1.25,4,4,0,0,1,4.08,3.53l2.71,19.31a11.52,11.52,0,0,0,1.3,4.44,1.41,1.41,0,0,0,1.35.7c1.13,0,2.59-.35,3.83-3.09a23.49,23.49,0,0,0,1.77-9.65,21.17,21.17,0,0,0-.64-5.18A15.29,15.29,0,0,0,175,100l-.58-1a2.09,2.09,0,0,1,.27-2.45l.67-.74a2.09,2.09,0,0,1,1.32-.67l7.35-.81h.23a2.09,2.09,0,0,1,2.09,2c.18,3,.27,5.14.27,6.6a47.84,47.84,0,0,1-2,14.49,22.65,22.65,0,0,1-5.47,9.57A11.6,11.6,0,0,1,171,130.42Z"/><path class="cls-1" d="M165.94,127.11a8.06,8.06,0,0,1-3-3.88,31.31,31.31,0,0,1-1.79-7.45l-2-12.81a3.28,3.28,0,0,0-.34-1.18.91.91,0,0,0-.81-.3h-2.63l-.61-1.48a14.44,14.44,0,0,1,3.81-2.6,9.22,9.22,0,0,1,3.88-1,1.92,1.92,0,0,1,2,1.82l2.7,19.21a13.75,13.75,0,0,0,1.62,5.29,3.48,3.48,0,0,0,3.1,1.65q3.78,0,5.73-4.31a25.41,25.41,0,0,0,2-10.52,23.13,23.13,0,0,0-.71-5.7,17.29,17.29,0,0,0-2.06-5l-.54-.94.67-.74,7.35-.81q.27,4.31.27,6.47a45.57,45.57,0,0,1-1.85,13.85,20.52,20.52,0,0,1-4.92,8.7,9.54,9.54,0,0,1-6.71,2.93A9.42,9.42,0,0,1,165.94,127.11Z"/><path class="cls-1" d="M247.6,137.91a10.45,10.45,0,0,1-8.68-4.62l-1.6-2.38A10.51,10.51,0,0,1,236,133l-.81,1a10.41,10.41,0,0,1-8.17,3.93H215.45a10.48,10.48,0,0,1-9.86-7l-.74-2.09a10.46,10.46,0,0,1,4.66-12.57V94.8a10.46,10.46,0,0,1-4.66-12.57l.74-2.09a10.48,10.48,0,0,1,9.86-7h9.84A10.45,10.45,0,0,1,234,77.78l.78,1.16a10.44,10.44,0,0,1,9.35-5.77h11.46a10.5,10.5,0,0,1,7.67,3.35l.88.94a10.44,10.44,0,0,1,.64,13.47l-.88,1.15a1.66,1.66,0,0,0-.3.58,13.75,13.75,0,0,0-.25,3.18v25a10.47,10.47,0,0,1-.41,11.77l-.74,1a10.5,10.5,0,0,1-8.44,4.28Z"/><path class="cls-1" d="M247.6,135.82a8.37,8.37,0,0,1-6.95-3.7l-4.49-6.68a8.37,8.37,0,0,1-1.78,6.22l-.81,1a8.37,8.37,0,0,1-6.54,3.14H215.45a8.37,8.37,0,0,1-7.89-5.57l-.74-2.09a8.37,8.37,0,0,1,4.78-10.57V93.49a8.37,8.37,0,0,1-4.78-10.57l.74-2.09a8.37,8.37,0,0,1,7.89-5.57h9.84A8.37,8.37,0,0,1,232.23,79l3,4.39a8.6,8.6,0,0,1,.31-.86l.88-2.09a8.37,8.37,0,0,1,7.72-5.13h11.46a8.37,8.37,0,0,1,6.14,2.68l.88.94a8.37,8.37,0,0,1,.51,10.78l-.88,1.15a3.74,3.74,0,0,0-.66,1.3,15.28,15.28,0,0,0-.32,3.72v25.65l.15.21a8.37,8.37,0,0,1-.15,9.69l-.74,1a8.37,8.37,0,0,1-6.75,3.42Z"/><path class="cls-1" d="M247.6,129.54a2.09,2.09,0,0,1-1.74-.92L226.44,99.73v15.45a23.19,23.19,0,0,0,.51,5.48,9.14,9.14,0,0,0,1.74,3.4l.84,1.12a2.09,2.09,0,0,1,0,2.56l-.81,1a2.09,2.09,0,0,1-1.63.78H215.45a2.09,2.09,0,0,1-2-1.39l-.74-2.09a2.09,2.09,0,0,1,1.49-2.74l1.34-.32c1.61-.52,1.94-1,2-1a5.62,5.62,0,0,0,.36-2.67V91.72c0-2.11-.36-2.69-.4-2.75s-.38-.49-1.89-.89l-1.36-.32A2.09,2.09,0,0,1,212.73,85l.74-2.09a2.09,2.09,0,0,1,2-1.39h9.84a2.09,2.09,0,0,1,1.74.92l19.5,28.9V91.72a5.16,5.16,0,0,0-.43-2.7c-.09-.12-.48-.55-1.93-.94l-1.41-.32a2.09,2.09,0,0,1-1.47-2.85l.88-2.09a2.09,2.09,0,0,1,1.93-1.28h11.46a2.09,2.09,0,0,1,1.53.67l.88.94a2.09,2.09,0,0,1,.13,2.69L257.22,87a10.1,10.1,0,0,0-1.73,3.49,21.49,21.49,0,0,0-.54,5.35v26.22a4.06,4.06,0,0,0,.56,2.2l.69,1a2.09,2.09,0,0,1,0,2.42l-.74,1a2.09,2.09,0,0,1-1.69.86Z"/><path class="cls-1" d="M214.71,125.36l1.42-.34a5.93,5.93,0,0,0,3.1-1.79,7.16,7.16,0,0,0,.74-3.88V91.72a7.28,7.28,0,0,0-.77-3.94,5.27,5.27,0,0,0-3.07-1.72l-1.42-.34.74-2.09h9.84l23.32,34.58V91.72a7,7,0,0,0-.81-3.91,5.34,5.34,0,0,0-3.1-1.75l-1.48-.34.88-2.09h11.46l.88.94-.88,1.15a12.14,12.14,0,0,0-2.09,4.21,23.4,23.4,0,0,0-.61,5.9v26.22a6.14,6.14,0,0,0,.88,3.3l.74,1.08-.74,1H247.6L224.35,92.87v22.31a25,25,0,0,0,.57,6,11.16,11.16,0,0,0,2.12,4.18l.81,1.08-.81,1H215.45Z"/><path class="cls-1" d="M291.08,137.91a10.47,10.47,0,0,1-5.53-1.58,10.46,10.46,0,0,1-5.53,1.58H265a10.48,10.48,0,0,1-9.86-7l-.74-2.09a10.46,10.46,0,0,1,4.72-12.61V94.84a10.46,10.46,0,0,1-4.72-12.61l.74-2.09a10.48,10.48,0,0,1,9.86-7h13.41a10.46,10.46,0,0,1,6.34,2.14,10.46,10.46,0,0,1,6.34-2.14h13.28a10.39,10.39,0,0,1,7.4,3.07l.94.94a10.43,10.43,0,0,1,.68,14.05l-.7.86a2.76,2.76,0,0,0-.37.77,12.21,12.21,0,0,0-.24,3v20.7a10.46,10.46,0,0,1,4.48,12.37l-.67,2a10.47,10.47,0,0,1-9.89,7.06Z"/><path class="cls-1" d="M291.08,135.82a8.37,8.37,0,0,1-5.53-2.08,8.36,8.36,0,0,1-5.53,2.08H265a8.37,8.37,0,0,1-7.89-5.57l-.74-2.09a8.37,8.37,0,0,1,4.84-10.6v-24a8.37,8.37,0,0,1-4.84-10.6l.74-2.09A8.37,8.37,0,0,1,265,75.26h13.41a8.37,8.37,0,0,1,6.34,2.9,8.37,8.37,0,0,1,6.34-2.9h13.28a8.37,8.37,0,0,1,5.92,2.45l.94.94a8.37,8.37,0,0,1,.54,11.24l-.77.93a4.9,4.9,0,0,0-.71,1.46,13.8,13.8,0,0,0-.32,3.55v22a8.37,8.37,0,0,1,4.6,10.41l-.67,2a8.37,8.37,0,0,1-7.92,5.65Zm-7.06-18a8.28,8.28,0,0,1,1.34.76,8.39,8.39,0,0,1,1.87-1v-2.19H284ZM287.22,95V93.49a8.38,8.38,0,0,1-2.74-1.79,2.66,2.66,0,0,0-.15.41A13.09,13.09,0,0,0,284,95Z"/><path class="cls-1" d="M291.08,129.54a2.09,2.09,0,0,1-2-1.39l-.74-2.09a2.09,2.09,0,0,1,1.44-2.72l1.28-.34c1.67-.51,2-1,2.05-1a5.49,5.49,0,0,0,.36-2.63V109.12H277.73v10.65a4.92,4.92,0,0,0,.36,2.46s.37.48,1.87.93l1.17.32a2.09,2.09,0,0,1,1.46,2.57l-.54,2a2.09,2.09,0,0,1-2,1.54H265a2.09,2.09,0,0,1-2-1.39l-.74-2.09a2.09,2.09,0,0,1,1.51-2.74l1.4-.32c1.6-.51,1.93-1,1.94-1a5.66,5.66,0,0,0,.35-2.66V91.72c0-2.11-.36-2.69-.4-2.75s-.38-.49-1.89-.89l-1.41-.32A2.09,2.09,0,0,1,262.28,85l.74-2.09a2.09,2.09,0,0,1,2-1.39h13.41a2.09,2.09,0,0,1,1.59.73l.81.94a2.09,2.09,0,0,1,.12,2.57L280,87a9.54,9.54,0,0,0-1.78,3.46,21.49,21.49,0,0,0-.54,5.35v5.46H293.5V91.72a5.18,5.18,0,0,0-.43-2.7c-.06-.08-.44-.54-2-.93l-1.29-.34A2.09,2.09,0,0,1,288.36,85l.74-2.09a2.09,2.09,0,0,1,2-1.39h13.28a2.1,2.1,0,0,1,1.48.61l.94.94a2.09,2.09,0,0,1,.13,2.81L306,87a11.31,11.31,0,0,0-1.76,3.57,20,20,0,0,0-.56,5.26v23.93a4.69,4.69,0,0,0,.36,2.43c.06.08.44.51,1.93,1l1.21.32a2.09,2.09,0,0,1,1.45,2.71l-.67,2a2.09,2.09,0,0,1-2,1.41Z"/><path class="cls-1" d="M264.25,125.36l1.48-.34a5.94,5.94,0,0,0,3.1-1.79,7.16,7.16,0,0,0,.74-3.88V91.72a7.28,7.28,0,0,0-.77-3.94,5.27,5.27,0,0,0-3.07-1.72l-1.48-.34.74-2.09h13.41l.81.94-.81,1.15a11.58,11.58,0,0,0-2.16,4.21,23.4,23.4,0,0,0-.61,5.9v7.55h20V91.72a7,7,0,0,0-.81-3.91,5.41,5.41,0,0,0-3.17-1.75l-1.28-.34.74-2.09h13.28l.94.94-.94,1.15A13.36,13.36,0,0,0,302.23,90a21.9,21.9,0,0,0-.64,5.83v23.93a6.41,6.41,0,0,0,.78,3.67,5.72,5.72,0,0,0,3,1.72l1.28.34-.67,2h-14.9l-.74-2.09,1.28-.34a6.22,6.22,0,0,0,3.2-1.79,6.9,6.9,0,0,0,.77-3.88V107h-20v12.74a6.65,6.65,0,0,0,.74,3.67,5.51,5.51,0,0,0,3,1.72l1.21.34-.54,2H265Z"/><path class="cls-1" d="M341.91,139.4a10.42,10.42,0,0,1-5.37-1.48H314.47a10.52,10.52,0,0,1-9.78-6.75l-.74-2a10.46,10.46,0,0,1,4.38-12.67V94.84a10.46,10.46,0,0,1-4.72-12.61l.74-2.09a10.48,10.48,0,0,1,9.86-7h13.41a10.46,10.46,0,0,1,7.95,3.66l.81.94a10.45,10.45,0,0,1,.6,12.84l-.81,1.15c-.11.16-.23.31-.35.47a1.18,1.18,0,0,0-.25.43,13.71,13.71,0,0,0-.25,3.18v12.6l.46-.28a10.47,10.47,0,0,1,8.09-1l2.16.61a10.5,10.5,0,0,1,7.63,10.07v10.52a10.51,10.51,0,0,1-6,9.46l-1.28.61A10.38,10.38,0,0,1,341.91,139.4Z"/><path class="cls-1" d="M341.91,137.3a8.39,8.39,0,0,1-4.76-1.48H314.47a8.37,8.37,0,0,1-7.83-5.4l-.74-2a8.37,8.37,0,0,1,4.51-10.66V93.52a8.37,8.37,0,0,1-4.84-10.6l.74-2.09a8.37,8.37,0,0,1,7.89-5.57h13.41A8.37,8.37,0,0,1,334,78.19l.81.94a8.37,8.37,0,0,1,.48,10.27l-.81,1.15-.28.38a3.24,3.24,0,0,0-.63,1.18,15.28,15.28,0,0,0-.32,3.72v18.34a8.37,8.37,0,0,1,10.07-5l2.16.61a8.37,8.37,0,0,1,6.11,8.06v10.52a8.37,8.37,0,0,1-4.79,7.57l-1.28.61A8.36,8.36,0,0,1,341.91,137.3Z"/><path class="cls-1" d="M341.9,131a2.09,2.09,0,0,1-1.65-.81l-.46-.59a4.06,4.06,0,0,0-1-.09H314.47a2.09,2.09,0,0,1-2-1.35l-.74-2a2.09,2.09,0,0,1,1.45-2.77l1.35-.34c1.39-.42,1.73-.85,1.77-.9a5,5,0,0,0,.35-2.46v-28c0-2.11-.36-2.69-.4-2.75s-.38-.49-1.89-.89L313,87.76A2.09,2.09,0,0,1,311.49,85l.74-2.09a2.09,2.09,0,0,1,2-1.39h13.41a2.09,2.09,0,0,1,1.59.73l.81.94a2.09,2.09,0,0,1,.12,2.57L329.25,87a9.54,9.54,0,0,0-1.78,3.46,21.49,21.49,0,0,0-.54,5.35v23.53a8.39,8.39,0,0,0,.21,2.31v0a6.11,6.11,0,0,0,1.6.14h5.33c2.25,0,3-.46,3.15-.6s.83-.82,1.42-3.2l.34-1.35a2.09,2.09,0,0,1,2.6-1.51l2.16.61a2.09,2.09,0,0,1,1.53,2v10.52a2.09,2.09,0,0,1-1.2,1.89l-1.28.61A2.09,2.09,0,0,1,341.9,131Z"/><path class="cls-1" d="M341.43,128.32a1.83,1.83,0,0,0-.94-.67,5.54,5.54,0,0,0-1.69-.2H314.47l-.74-2,1.35-.34a5.52,5.52,0,0,0,3-1.72,6.66,6.66,0,0,0,.74-3.67v-28a7.28,7.28,0,0,0-.77-3.94,5.27,5.27,0,0,0-3.07-1.72l-1.48-.34.74-2.09h13.41l.81.94-.81,1.15a11.58,11.58,0,0,0-2.16,4.21,23.4,23.4,0,0,0-.61,5.9v23.53a10.56,10.56,0,0,0,.3,2.93,2,2,0,0,0,1.11,1.31,6.87,6.87,0,0,0,2.49.34h5.33q3.17,0,4.48-1.08t2.12-4.31l.34-1.35,2.16.61v10.52l-1.28.61Z"/></g><g id="Layer_1_copy_2" data-name="Layer 1 copy 2"><path class="cls-4" d="M29.95,129.89a20.13,20.13,0,0,1-11.6-3.27,19.93,19.93,0,0,1-7.13-8.84A31,31,0,0,1,8.9,105.61,31.33,31.33,0,0,1,11.21,93.3a19.85,19.85,0,0,1,7.17-8.84,20.55,20.55,0,0,1,11.77-3.27,22,22,0,0,1,7.62,1.24A13.18,13.18,0,0,1,43.27,86a8.45,8.45,0,0,1,2.14,5.68,8.79,8.79,0,0,1-2.23,6.15,7.48,7.48,0,0,1-5.74,2.5c-2.84,0-3-1.93-3-2.31a3.37,3.37,0,0,1,.79-1.82A8.37,8.37,0,0,0,36,94.59a6.07,6.07,0,0,0,.31-2.06,4.17,4.17,0,0,0-1.56-3.42,6.89,6.89,0,0,0-4.62-1.42,8.47,8.47,0,0,0-6.28,2.38,14.9,14.9,0,0,0-3.74,6.57,32.2,32.2,0,0,0-1.22,9,24.47,24.47,0,0,0,1.52,8.74,14.17,14.17,0,0,0,4.15,6.05,9,9,0,0,0,5.91,2.1,13.77,13.77,0,0,0,6.15-1.29,10.36,10.36,0,0,0,4.09-3.49,2.1,2.1,0,0,1,1.7-1,3.54,3.54,0,0,1,2.3.95,3.09,3.09,0,0,1,1.23,2.38,2.63,2.63,0,0,1-.3,1.17,1.58,1.58,0,0,1-.12.19C41.64,127.06,36.39,129.89,29.95,129.89Zm-.67-49.61a1.57,1.57,0,0,1-.79-.21,16.22,16.22,0,0,1-3.95-3.92,47.64,47.64,0,0,1-4.25-6.38,1.57,1.57,0,0,1,.36-2L22.74,66a1.57,1.57,0,0,1,2,0l5.34,4.43L35.49,66a1.57,1.57,0,0,1,2.06.06l1.89,1.75a1.57,1.57,0,0,1,.31,1.9,43.43,43.43,0,0,1-4.23,6.43,16.8,16.8,0,0,1-3.84,3.88,1.57,1.57,0,0,1-.8.22Z"/><path class="cls-4" d="M19.23,125.32a18.3,18.3,0,0,1-6.57-8.16,29.28,29.28,0,0,1-2.19-11.56,29.65,29.65,0,0,1,2.19-11.7,18.23,18.23,0,0,1,6.61-8.16,18.93,18.93,0,0,1,10.89-3,20.34,20.34,0,0,1,7.08,1.15,11.58,11.58,0,0,1,4.85,3.17,6.89,6.89,0,0,1,1.75,4.65A7.24,7.24,0,0,1,42,96.81a6,6,0,0,1-4.58,2Q36,98.8,36,98.06a4.05,4.05,0,0,1,.54-1,9.89,9.89,0,0,0,.94-2,7.58,7.58,0,0,0,.4-2.6,5.76,5.76,0,0,0-2.12-4.62,8.46,8.46,0,0,0-5.63-1.79A10.05,10.05,0,0,0,22.77,89a16.37,16.37,0,0,0-4.15,7.25,33.6,33.6,0,0,0-1.28,9.4,25.92,25.92,0,0,0,1.62,9.3,15.65,15.65,0,0,0,4.62,6.71,10.57,10.57,0,0,0,6.91,2.46,15.26,15.26,0,0,0,6.84-1.45,12,12,0,0,0,4.68-4,.55.55,0,0,1,.4-.27,2,2,0,0,1,1.28.57,1.59,1.59,0,0,1,.67,1.18,1.09,1.09,0,0,1-.13.47q-5.39,7.75-14.29,7.75A18.52,18.52,0,0,1,19.23,125.32Zm6.54-50.15A45.8,45.8,0,0,1,21.66,69l2.09-1.75,6.34,5.26,6.4-5.26L38.37,69a41.66,41.66,0,0,1-4.08,6.2,16.08,16.08,0,0,1-3.4,3.51H29.27A15.35,15.35,0,0,1,25.77,75.17Z"/><path class="cls-4" d="M64.46,129.89a15.44,15.44,0,0,1-8.24-2.19,14.73,14.73,0,0,1-5.5-6.13,21.42,21.42,0,0,1,.22-18.18A15.41,15.41,0,0,1,57.12,97a18.35,18.35,0,0,1,9.09-2.22c3.73,0,6.69,1,8.81,3.07a10,10,0,0,1,3.21,7.47,11.2,11.2,0,0,1-1.6,5.71A12,12,0,0,1,72,115.47a14.2,14.2,0,0,1-7,1.68,16.93,16.93,0,0,1-4.83-.77,7.32,7.32,0,0,1-1.67-.71,10.11,10.11,0,0,0,1.79,4.6,6.37,6.37,0,0,0,5.46,2.45,10.46,10.46,0,0,0,7.79-3,2.28,2.28,0,0,1,1.65-.66,3.17,3.17,0,0,1,2.19,1,3.1,3.1,0,0,1,1.07,2.29,2.14,2.14,0,0,1-.42,1.27,1.56,1.56,0,0,1-.23.35,16.61,16.61,0,0,1-6,4.5A18.09,18.09,0,0,1,64.46,129.89Zm-5.32-20.06a5.47,5.47,0,0,1,1.77.46,6.86,6.86,0,0,0,2.21.28A6.21,6.21,0,0,0,67.73,109a5.06,5.06,0,0,0,1.56-3.74,4.47,4.47,0,0,0-1.18-3.13,3.87,3.87,0,0,0-3-1.23,5.32,5.32,0,0,0-4.84,2.74A14.28,14.28,0,0,0,58.39,110,2.15,2.15,0,0,1,59.13,109.83Z"/><path class="cls-4" d="M57,126.37a13.13,13.13,0,0,1-4.92-5.49,19.86,19.86,0,0,1,.2-16.75,13.81,13.81,0,0,1,5.56-5.73,16.73,16.73,0,0,1,8.32-2q5,0,7.72,2.63a8.48,8.48,0,0,1,2.73,6.34,9.61,9.61,0,0,1-1.38,4.92,10.43,10.43,0,0,1-4,3.84A12.6,12.6,0,0,1,65,115.58a15.3,15.3,0,0,1-4.38-.71q-2.36-.71-2.36-2.12a1.66,1.66,0,0,1,.27-.94.75.75,0,0,1,.61-.4,6.52,6.52,0,0,1,1.25.37,8.31,8.31,0,0,0,2.73.37,7.75,7.75,0,0,0,5.73-2,6.62,6.62,0,0,0,2-4.85,6,6,0,0,0-1.58-4.18,5.4,5.4,0,0,0-4.21-1.75,6.91,6.91,0,0,0-6.17,3.47q-2.19,3.47-2.19,9.88,0,5.46,2.33,8.53a7.9,7.9,0,0,0,6.71,3.07,12.06,12.06,0,0,0,8.9-3.51.73.73,0,0,1,.54-.2,1.67,1.67,0,0,1,1.11.54,1.58,1.58,0,0,1,.57,1.15.58.58,0,0,1-.13.37.51.51,0,0,0-.13.24,15,15,0,0,1-5.43,4.08,16.46,16.46,0,0,1-6.71,1.38A13.84,13.84,0,0,1,57,126.37Z"/><path class="cls-4" d="M95.6,129.89a14.55,14.55,0,0,1-8.52-2.41,8,8,0,0,1-3.7-6.85,6.05,6.05,0,0,1,1.94-4.54,6.65,6.65,0,0,1,4.76-1.82,3.5,3.5,0,0,1,1.58.37,2.15,2.15,0,0,1,1.27,1.94,4.65,4.65,0,0,1-.52,1.78,4.55,4.55,0,0,0-.29,1.73,3,3,0,0,0,1.16,2.59,4.91,4.91,0,0,0,3.07,1,4.76,4.76,0,0,0,3.17-1,2.79,2.79,0,0,0,1.05-2.3,2.32,2.32,0,0,0-1.09-2A22.6,22.6,0,0,0,94.86,116a50.4,50.4,0,0,1-5.13-2.52,12.85,12.85,0,0,1-3.88-3.45,9,9,0,0,1-1.73-5.53,8.48,8.48,0,0,1,3.82-7.14,14.81,14.81,0,0,1,8.87-2.59,15.75,15.75,0,0,1,8,1.87,6.64,6.64,0,0,1,3.61,5.91,6.87,6.87,0,0,1-1.85,4.93,6.42,6.42,0,0,1-4.84,2c-2.15,0-2.92-1.32-2.92-2.45a4.25,4.25,0,0,1,.69-2,2.93,2.93,0,0,0,.32-1.42,2.18,2.18,0,0,0-.9-2,4.3,4.3,0,0,0-2.59-.82,4.48,4.48,0,0,0-2.94.85,2.38,2.38,0,0,0-.89,2,3,3,0,0,0,1.27,2.5,19.3,19.3,0,0,0,4.92,2.5c2.08.9,3.78,1.71,5.13,2.46a12.84,12.84,0,0,1,3.76,3.11,7.51,7.51,0,0,1,1.7,4.87,9.53,9.53,0,0,1-4,8A15.77,15.77,0,0,1,95.6,129.89Zm-.67-36.13a1.57,1.57,0,0,1-.82-.23,17.22,17.22,0,0,1-3.85-3.9A47.7,47.7,0,0,1,86,83.25a1.57,1.57,0,0,1,.34-2l2-1.75a1.57,1.57,0,0,1,2,0l5.35,4.38,5.48-4.39a1.57,1.57,0,0,1,2,.06l2,1.75a1.57,1.57,0,0,1,.32,1.94,47.59,47.59,0,0,1-4.29,6.41,16.78,16.78,0,0,1-3.84,3.88,1.56,1.56,0,0,1-.8.22Z"/><path class="cls-4" d="M88,126.2a6.5,6.5,0,0,1-3-5.56,4.52,4.52,0,0,1,1.45-3.4,5.11,5.11,0,0,1,3.67-1.38,1.93,1.93,0,0,1,.88.2.61.61,0,0,1,.4.54,5.24,5.24,0,0,1-.4,1.18,6.06,6.06,0,0,0-.4,2.33,4.53,4.53,0,0,0,1.79,3.84,6.48,6.48,0,0,0,4,1.35,6.31,6.31,0,0,0,4.18-1.35,4.35,4.35,0,0,0,1.62-3.5,3.89,3.89,0,0,0-1.72-3.24,23.93,23.93,0,0,0-5-2.63,48.6,48.6,0,0,1-5-2.43,11.23,11.23,0,0,1-3.4-3,7.42,7.42,0,0,1-1.42-4.58,7,7,0,0,1,3.17-5.86,13.23,13.23,0,0,1,8-2.29A14.16,14.16,0,0,1,104,98a5.07,5.07,0,0,1,2.83,4.55,5.33,5.33,0,0,1-1.42,3.84,4.89,4.89,0,0,1-3.71,1.48q-1.35,0-1.35-.88a3.81,3.81,0,0,1,.51-1.21,4.5,4.5,0,0,0,.51-2.16,3.77,3.77,0,0,0-1.55-3.27,5.87,5.87,0,0,0-3.51-1.11,6,6,0,0,0-3.94,1.21,3.93,3.93,0,0,0-1.45,3.17,4.51,4.51,0,0,0,1.89,3.74,20.68,20.68,0,0,0,5.33,2.73q3,1.28,4.92,2.36a11.22,11.22,0,0,1,3.3,2.73,6,6,0,0,1,1.35,3.88,8,8,0,0,1-3.34,6.71,14.19,14.19,0,0,1-8.8,2.53A13,13,0,0,1,88,126.2Zm3.51-37.55a45.84,45.84,0,0,1-4.11-6.17l2-1.75,6.34,5.19,6.47-5.19,2,1.75a45.82,45.82,0,0,1-4.15,6.2,16.09,16.09,0,0,1-3.4,3.5H94.93A16.44,16.44,0,0,1,91.49,88.65Z"/><path class="cls-4" d="M122.83,129.89a5.67,5.67,0,0,1-4.87-2.16c-1-1.3-1.42-3.22-1.42-5.88V103.07h-2.41a1.57,1.57,0,0,1-1.5-1.09l-.47-1.48a1.57,1.57,0,0,1,.43-1.63A16.37,16.37,0,0,1,117,96a11.32,11.32,0,0,1,4.59-1.15,3.69,3.69,0,0,1,2.49.9,3.23,3.23,0,0,1,1.1,2.49v23.86a1.55,1.55,0,0,0,.06.51h.19a3.91,3.91,0,0,0,2.15-1,1.57,1.57,0,0,1,.95-.32l.22,0a1.57,1.57,0,0,1,1,.62l1.15,1.55a1.57,1.57,0,0,1-.13,2,17.92,17.92,0,0,1-3.88,3.1A8.35,8.35,0,0,1,122.83,129.89Zm-2-37.07a5,5,0,0,1-3.5-1.9,4.64,4.64,0,0,1,0-7.27,5,5,0,0,1,3.54-1.92,5.09,5.09,0,0,1,3.63,1.9,4.62,4.62,0,0,1,0,7.29A5.09,5.09,0,0,1,120.81,92.82Z"/><path class="cls-4" d="M119.23,126.81q-1.11-1.52-1.11-5V103a1.87,1.87,0,0,0-.27-1.15,1.15,1.15,0,0,0-.94-.34h-2.76l-.47-1.48a14.74,14.74,0,0,1,4-2.63,9.91,9.91,0,0,1,3.94-1,2.11,2.11,0,0,1,1.45.51,1.67,1.67,0,0,1,.57,1.31v23.86q0,2.09,1.82,2.09a5.28,5.28,0,0,0,3.1-1.28l1.15,1.55a16.29,16.29,0,0,1-3.54,2.83,6.8,6.8,0,0,1-3.34,1.08A4.17,4.17,0,0,1,119.23,126.81Zm-.78-37a4,4,0,0,1-1.35-2.56,4,4,0,0,1,1.31-2.56,3.57,3.57,0,0,1,2.39-1.42,3.7,3.7,0,0,1,2.49,1.42,4,4,0,0,1,1.35,2.56,4,4,0,0,1-1.35,2.56,3.7,3.7,0,0,1-2.49,1.42A3.65,3.65,0,0,1,118.45,89.83Z"/><path d="M171,129.89a11,11,0,0,1-5.93-1.46,9.64,9.64,0,0,1-3.64-4.6,32.48,32.48,0,0,1-1.89-7.83s-2-12.89-2-12.94h-2.2a1.57,1.57,0,0,1-1.45-1l-.61-1.48a1.57,1.57,0,0,1,.37-1.73A16.07,16.07,0,0,1,157.85,96a10.78,10.78,0,0,1,4.55-1.2A3.49,3.49,0,0,1,166,97.9l2.71,19.28a12,12,0,0,0,1.38,4.65,1.92,1.92,0,0,0,1.79.94c1.19,0,2.92-.35,4.3-3.39a24,24,0,0,0,1.81-9.87,21.66,21.66,0,0,0-.66-5.31,15.79,15.79,0,0,0-1.87-4.51l-.57-1a1.57,1.57,0,0,1,.2-1.84l.67-.74a1.57,1.57,0,0,1,1-.5l7.35-.81h.17a1.57,1.57,0,0,1,1.57,1.47c.18,3,.27,5.12.27,6.57a47.31,47.31,0,0,1-1.93,14.33,22.13,22.13,0,0,1-5.33,9.35A11.1,11.1,0,0,1,171,129.89Z"/><path d="M165.94,127.11a8.06,8.06,0,0,1-3-3.88,31.31,31.31,0,0,1-1.79-7.45l-2-12.81a3.28,3.28,0,0,0-.34-1.18.91.91,0,0,0-.81-.3h-2.63l-.61-1.48a14.44,14.44,0,0,1,3.81-2.6,9.22,9.22,0,0,1,3.88-1,1.92,1.92,0,0,1,2,1.82l2.7,19.21a13.75,13.75,0,0,0,1.62,5.29,3.48,3.48,0,0,0,3.1,1.65q3.78,0,5.73-4.31a25.41,25.41,0,0,0,2-10.52,23.13,23.13,0,0,0-.71-5.7,17.29,17.29,0,0,0-2.06-5l-.54-.94.67-.74,7.35-.81q.27,4.31.27,6.47a45.57,45.57,0,0,1-1.85,13.85,20.52,20.52,0,0,1-4.92,8.7,9.54,9.54,0,0,1-6.71,2.93A9.42,9.42,0,0,1,165.94,127.11Z"/><path d="M247.6,129a1.57,1.57,0,0,1-1.3-.69L225.92,98v17.16a23.67,23.67,0,0,0,.52,5.61,9.66,9.66,0,0,0,1.83,3.6l.83,1.11a1.57,1.57,0,0,1,0,1.92l-.81,1A1.57,1.57,0,0,1,227,129H215.45a1.57,1.57,0,0,1-1.48-1l-.74-2.09a1.57,1.57,0,0,1,1.12-2.05l1.36-.32c1.68-.53,2.14-1,2.24-1.18s.45-.75.45-3V91.72c0-2.17-.38-2.88-.49-3s-.61-.68-2.18-1.1l-1.38-.33a1.57,1.57,0,0,1-1.12-2.05l.74-2.09a1.57,1.57,0,0,1,1.48-1h9.84a1.57,1.57,0,0,1,1.3.69L247,113.08V91.72c0-2-.36-2.78-.52-3a3.83,3.83,0,0,0-2.22-1.14l-1.43-.32a1.57,1.57,0,0,1-1.1-2.14l.88-2.09a1.57,1.57,0,0,1,1.45-1h11.46a1.57,1.57,0,0,1,1.15.5l.88.94a1.57,1.57,0,0,1,.1,2l-.88,1.15A10.64,10.64,0,0,0,255,90.34a22,22,0,0,0-.55,5.49v26.22a4.56,4.56,0,0,0,.64,2.48l.7,1a1.57,1.57,0,0,1,0,1.82l-.74,1a1.57,1.57,0,0,1-1.27.64Z"/><path d="M214.71,125.36l1.42-.34a5.93,5.93,0,0,0,3.1-1.79,7.16,7.16,0,0,0,.74-3.88V91.72a7.28,7.28,0,0,0-.77-3.94,5.27,5.27,0,0,0-3.07-1.72l-1.42-.34.74-2.09h9.84l23.32,34.58V91.72a7,7,0,0,0-.81-3.91,5.34,5.34,0,0,0-3.1-1.75l-1.48-.34.88-2.09h11.46l.88.94-.88,1.15a12.14,12.14,0,0,0-2.09,4.21,23.4,23.4,0,0,0-.61,5.9v26.22a6.14,6.14,0,0,0,.88,3.3l.74,1.08-.74,1H247.6L224.35,92.87v22.31a25,25,0,0,0,.57,6,11.16,11.16,0,0,0,2.12,4.18l.81,1.08-.81,1H215.45Z"/><path d="M291.08,129a1.57,1.57,0,0,1-1.48-1l-.74-2.09a1.57,1.57,0,0,1,1.08-2l1.28-.34a4.61,4.61,0,0,0,2.34-1.2c.08-.1.47-.74.47-2.94V108.59H277.21v11.17a5.19,5.19,0,0,0,.45,2.76,4,4,0,0,0,2.14,1.13L281,124a1.57,1.57,0,0,1,1.09,1.93l-.54,2A1.57,1.57,0,0,1,280,129H265a1.57,1.57,0,0,1-1.48-1l-.74-2.09a1.57,1.57,0,0,1,1.13-2.06l1.42-.32c1.67-.53,2.13-1,2.23-1.18s.45-.75.45-3V91.72c0-2.17-.38-2.88-.49-3s-.61-.68-2.18-1.1l-1.43-.32a1.57,1.57,0,0,1-1.13-2.06l.74-2.09a1.57,1.57,0,0,1,1.48-1h13.41a1.57,1.57,0,0,1,1.19.55l.81.94a1.57,1.57,0,0,1,.09,1.93l-.81,1.15a10.24,10.24,0,0,0-1.92,3.72,22,22,0,0,0-.55,5.49v6H294V91.72c0-2-.36-2.78-.52-3a3.91,3.91,0,0,0-2.28-1.14l-1.29-.34a1.57,1.57,0,0,1-1.08-2l.74-2.09a1.57,1.57,0,0,1,1.48-1h13.28a1.57,1.57,0,0,1,1.11.46l.94.94a1.57,1.57,0,0,1,.1,2.11l-.94,1.15a11.77,11.77,0,0,0-1.83,3.71,20.49,20.49,0,0,0-.58,5.4v23.93c0,2,.36,2.59.47,2.74a4.22,4.22,0,0,0,2.19,1.15L307,124a1.57,1.57,0,0,1,1.08,2l-.67,2A1.57,1.57,0,0,1,306,129Z"/><path d="M264.25,125.36l1.48-.34a5.94,5.94,0,0,0,3.1-1.79,7.16,7.16,0,0,0,.74-3.88V91.72a7.28,7.28,0,0,0-.77-3.94,5.27,5.27,0,0,0-3.07-1.72l-1.48-.34.74-2.09h13.41l.81.94-.81,1.15a11.58,11.58,0,0,0-2.16,4.21,23.4,23.4,0,0,0-.61,5.9v7.55h20V91.72a7,7,0,0,0-.81-3.91,5.41,5.41,0,0,0-3.17-1.75l-1.28-.34.74-2.09h13.28l.94.94-.94,1.15A13.36,13.36,0,0,0,302.23,90a21.9,21.9,0,0,0-.64,5.83v23.93a6.41,6.41,0,0,0,.78,3.67,5.72,5.72,0,0,0,3,1.72l1.28.34-.67,2h-14.9l-.74-2.09,1.28-.34a6.22,6.22,0,0,0,3.2-1.79,6.9,6.9,0,0,0,.77-3.88V107h-20v12.74a6.65,6.65,0,0,0,.74,3.67,5.51,5.51,0,0,0,3,1.72l1.21.34-.54,2H265Z"/><path d="M341.9,130.5a1.57,1.57,0,0,1-1.24-.61l-.47-.61a.33.33,0,0,0-.2-.15,4,4,0,0,0-1.19-.12H314.47a1.57,1.57,0,0,1-1.47-1l-.74-2a1.57,1.57,0,0,1,1.09-2.08l1.35-.34a3.9,3.9,0,0,0,2.07-1.11,5.19,5.19,0,0,0,.45-2.76v-28c0-2.17-.38-2.88-.49-3s-.61-.68-2.18-1.1l-1.43-.32A1.57,1.57,0,0,1,312,85.2l.74-2.09a1.57,1.57,0,0,1,1.48-1h13.41a1.57,1.57,0,0,1,1.19.55l.81.94a1.57,1.57,0,0,1,.09,1.93l-.81,1.15A10.24,10.24,0,0,0,327,90.34a22,22,0,0,0-.55,5.49v23.53a8.89,8.89,0,0,0,.23,2.47c.09.28.17.31.22.33a5.3,5.3,0,0,0,1.89.22h5.33c2.27,0,3.16-.45,3.49-.72s1-1.1,1.6-3.48l.34-1.35a1.57,1.57,0,0,1,1.95-1.13l2.16.61a1.57,1.57,0,0,1,1.14,1.51v10.52a1.57,1.57,0,0,1-.9,1.42l-1.28.61A1.57,1.57,0,0,1,341.9,130.5Z"/><path d="M341.43,128.32a1.83,1.83,0,0,0-.94-.67,5.54,5.54,0,0,0-1.69-.2H314.47l-.74-2,1.35-.34a5.52,5.52,0,0,0,3-1.72,6.66,6.66,0,0,0,.74-3.67v-28a7.28,7.28,0,0,0-.77-3.94,5.27,5.27,0,0,0-3.07-1.72l-1.48-.34.74-2.09h13.41l.81.94-.81,1.15a11.58,11.58,0,0,0-2.16,4.21,23.4,23.4,0,0,0-.61,5.9v23.53a10.56,10.56,0,0,0,.3,2.93,2,2,0,0,0,1.11,1.31,6.87,6.87,0,0,0,2.49.34h5.33q3.17,0,4.48-1.08t2.12-4.31l.34-1.35,2.16.61v10.52l-1.28.61Z"/></g></g></svg>