<svg xmlns="http://www.w3.org/2000/svg" viewBox="0 0 182.01 34.96"><defs><style>.cls-1{fill:#fff;}</style></defs><title>Asset 1</title><g id="Layer_2" data-name="Layer 2"><g id="Layer_1-2" data-name="Layer 1"><path class="cls-1" d="M11.12,2.7q7.09,0,10.55,3.22t3.46,9.23A13.49,13.49,0,0,1,23.44,22a11.45,11.45,0,0,1-4.91,4.55,17,17,0,0,1-7.72,1.62q-.86,0-2.47-.05t-2.79-.05l-3.11,0q-1.53,0-2.43.09v-.72a6.34,6.34,0,0,0,1.73-.29,1.25,1.25,0,0,0,.77-.86,7.15,7.15,0,0,0,.2-1.94V6.52a7.12,7.12,0,0,0-.2-2,1.3,1.3,0,0,0-.79-.86A5.36,5.36,0,0,0,0,3.42V2.7l2.43.09q1.53.05,3,0l2.93-.07Zm0,.65A2.79,2.79,0,0,0,8.93,4a4.2,4.2,0,0,0-.5,2.48v18a4.08,4.08,0,0,0,.52,2.48,2.86,2.86,0,0,0,2.18.61,7.34,7.34,0,0,0,4.77-1.42A7.88,7.88,0,0,0,18.4,22a25.32,25.32,0,0,0,.76-6.66q0-6-1.87-9T11.09,3.35Z"/><path class="cls-1" d="M32.08,28.44a4.37,4.37,0,0,1-3.49-1.26,4.54,4.54,0,0,1-1.08-3.06,4.2,4.2,0,0,1,.7-2.52A5.6,5.6,0,0,1,30,20a13.41,13.41,0,0,1,2.36-1q1.24-.41,2.38-.83a6.84,6.84,0,0,0,1.84-1,1.66,1.66,0,0,0,.7-1.37V13A4.35,4.35,0,0,0,37,11.32a2.38,2.38,0,0,0-.94-1.13,3,3,0,0,0-1.64-.4A5.43,5.43,0,0,0,33,10a2.63,2.63,0,0,0-1.19.67,3.3,3.3,0,0,1,1.57,1.1,2.71,2.71,0,0,1,.56,1.67,2.42,2.42,0,0,1-.85,1.94,3,3,0,0,1-2,.72,2.39,2.39,0,0,1-2-.81,3,3,0,0,1-.67-2A2.77,2.77,0,0,1,29,11.59a5.81,5.81,0,0,1,1.46-1.3,8.86,8.86,0,0,1,2.43-.9,13.85,13.85,0,0,1,3.08-.32,12,12,0,0,1,3,.34,4.77,4.77,0,0,1,2.23,1.24,4,4,0,0,1,1.08,2,15.29,15.29,0,0,1,.25,3v9.79a3,3,0,0,0,.18,1.22.63.63,0,0,0,.61.36,1.39,1.39,0,0,0,.68-.18,3.56,3.56,0,0,0,.61-.43l.36.61a5.32,5.32,0,0,1-1.75,1,6.77,6.77,0,0,1-2.21.34q-2.16,0-2.86-.88a3.35,3.35,0,0,1-.74-2,6,6,0,0,1-2.21,2.2A6.31,6.31,0,0,1,32.08,28.44Zm2.77-2.3a2.63,2.63,0,0,0,1.28-.32,3.63,3.63,0,0,0,1.17-1.15V17.28a3.61,3.61,0,0,1-1.21,1.21q-.77.49-1.58,1A4.79,4.79,0,0,0,33.16,21a4.31,4.31,0,0,0-.54,2.3,3.11,3.11,0,0,0,.65,2.21A2.12,2.12,0,0,0,34.85,26.14Z"/><path class="cls-1" d="M53.46,9.18V24.84A3,3,0,0,0,54,26.89a2.41,2.41,0,0,0,1.78.54v.76l-2-.09Q52.38,28,51,28t-2.84.05L46,28.19v-.76a2.42,2.42,0,0,0,1.78-.54,3,3,0,0,0,.52-2.05V13.5a4.61,4.61,0,0,0-.49-2.39A2,2,0,0,0,46,10.33V9.58q1.15.11,2.23.11,1.51,0,2.83-.13A19.52,19.52,0,0,0,53.46,9.18ZM50.65.29A3.62,3.62,0,0,1,53,1a2.51,2.51,0,0,1,.88,2,2.51,2.51,0,0,1-.88,2,4.25,4.25,0,0,1-4.79,0,2.51,2.51,0,0,1-.88-2,2.51,2.51,0,0,1,.88-2A3.62,3.62,0,0,1,50.65.29Z"/><path class="cls-1" d="M64.65,0V24.84a3,3,0,0,0,.52,2.05,2.42,2.42,0,0,0,1.78.54v.76l-2.05-.09Q63.54,28,62.13,28t-2.83.05l-2.14.09v-.76a2.42,2.42,0,0,0,1.78-.54,3,3,0,0,0,.52-2.05V4.32A4.61,4.61,0,0,0,59,1.93a2,2,0,0,0-1.82-.77V.4Q58.32.5,59.4.5q1.48,0,2.81-.13A19.49,19.49,0,0,0,64.65,0Z"/><path class="cls-1" d="M86.11,9.58v.72a2.73,2.73,0,0,0-1.3.85,6.91,6.91,0,0,0-1.19,2.25L78.55,27.65l-1.33,2.52L69.37,12.35a3.46,3.46,0,0,0-1.21-1.71,2.33,2.33,0,0,0-1-.31V9.58q1.19.11,2.47.16t2.47.05q1.48,0,2.7-.07l2.3-.14v.76a9.61,9.61,0,0,0-1.35.09,1.1,1.1,0,0,0-.86.5q-.23.41.2,1.42l4.54,10.94-.32.22,2.66-7.45q1-2.92.32-4.27a2.75,2.75,0,0,0-2.41-1.49V9.58l1.8.07q1,0,1.69,0t1.51,0ZM78.55,27.65,77.18,31.5a5.85,5.85,0,0,1-1.58,2.56,3.5,3.5,0,0,1-1.3.67,6.51,6.51,0,0,1-1.84.23,5.94,5.94,0,0,1-1.78-.29,3.5,3.5,0,0,1-1.53-.94,2.31,2.31,0,0,1-.61-1.66,2.21,2.21,0,0,1,.79-1.78,3.59,3.59,0,0,1,4-.09,2,2,0,0,1,.76,1.69,2.36,2.36,0,0,1-.45,1.37,2.69,2.69,0,0,1-1.35,1,2.23,2.23,0,0,0,.43,0h.4a2.91,2.91,0,0,0,1.91-.68,4.94,4.94,0,0,0,1.37-2.16l1.26-3.71Z"/><path class="cls-1" d="M118.65,2.7v.72a3.51,3.51,0,0,0-1.73.59,2.31,2.31,0,0,0-.77,1.42,14.54,14.54,0,0,0-.2,2.74V28.26c-.29,0-.58,0-.88,0s-.62,0-1,0L98.49,8.46V22.28a16.26,16.26,0,0,0,.22,3,2.17,2.17,0,0,0,1,1.51,5.91,5.91,0,0,0,2.32.63v.72q-.68-.07-1.8-.09l-2.09,0-1.69,0q-.86,0-1.44.09v-.72a3.9,3.9,0,0,0,1.73-.61,2.25,2.25,0,0,0,.77-1.42,14.62,14.62,0,0,0,.2-2.72V6.52a7.12,7.12,0,0,0-.2-2,1.3,1.3,0,0,0-.79-.86A5.36,5.36,0,0,0,95,3.42V2.7l1.44.07q.86,0,1.69,0t1.66,0l1.44-.07,13.93,17.17V8.6a16.2,16.2,0,0,0-.22-3A2.23,2.23,0,0,0,114,4a5.4,5.4,0,0,0-2.32-.61V2.7l1.8.07c.74,0,1.44,0,2.09,0s1.15,0,1.71,0Z"/><path class="cls-1" d="M127.76,9.18V24.84a3,3,0,0,0,.52,2.05,2.42,2.42,0,0,0,1.78.54v.76l-2-.09q-1.37-.05-2.77-.05t-2.84.05l-2.16.09v-.76a2.42,2.42,0,0,0,1.78-.54,3,3,0,0,0,.52-2.05V13.5a4.61,4.61,0,0,0-.49-2.39,2,2,0,0,0-1.82-.77V9.58q1.15.11,2.23.11,1.51,0,2.83-.13A19.51,19.51,0,0,0,127.76,9.18ZM125,.29a3.61,3.61,0,0,1,2.39.74,2.51,2.51,0,0,1,.88,2,2.51,2.51,0,0,1-.88,2,4.25,4.25,0,0,1-4.79,0,2.51,2.51,0,0,1-.88-2,2.51,2.51,0,0,1,.88-2A3.61,3.61,0,0,1,125,.29Z"/><path class="cls-1" d="M145,9.07a6.77,6.77,0,0,1,2.47.38,3.63,3.63,0,0,1,1.49,1,4.32,4.32,0,0,1,.85,1.76,12.48,12.48,0,0,1,.27,2.92v9.68a3,3,0,0,0,.52,2.05,2.42,2.42,0,0,0,1.78.54v.76l-2.05-.09Q149,28,147.63,28T145,28.1l-2,.09v-.76a1.83,1.83,0,0,0,1.51-.54,3.46,3.46,0,0,0,.43-2.05V13.64a6,6,0,0,0-.18-1.57,2,2,0,0,0-.65-1,2.2,2.2,0,0,0-1.4-.38,3.23,3.23,0,0,0-2.54,1.19,4.41,4.41,0,0,0-1,3v10a3.36,3.36,0,0,0,.45,2.05,1.85,1.85,0,0,0,1.49.54v.76l-1.89-.09c-.83,0-1.69-.05-2.57-.05s-1.85,0-2.81.05l-2.16.09v-.76a2.42,2.42,0,0,0,1.78-.54,3,3,0,0,0,.52-2.05V13.5a4.61,4.61,0,0,0-.49-2.39,2,2,0,0,0-1.82-.77V9.58q1.15.11,2.23.11,1.51,0,2.83-.13a19.54,19.54,0,0,0,2.43-.38v3.24a5.38,5.38,0,0,1,2.45-2.59A7.77,7.77,0,0,1,145,9.07Z"/><path class="cls-1" d="M152,35v-.65a3.47,3.47,0,0,0,2.81-1.39,6.64,6.64,0,0,0,1-4.09V13.5a4.47,4.47,0,0,0-.5-2.39,2,2,0,0,0-1.8-.77V9.58q1.15.11,2.23.11,1.48,0,2.81-.13a19.49,19.49,0,0,0,2.45-.38V24.8a17.17,17.17,0,0,1-.59,4.93,7.41,7.41,0,0,1-2,3.28,6.64,6.64,0,0,1-2.47,1.4A12.4,12.4,0,0,1,152,35Zm6-34.67a3.61,3.61,0,0,1,2.39.74,2.51,2.51,0,0,1,.88,2,2.51,2.51,0,0,1-.88,2,4.25,4.25,0,0,1-4.79,0,2.51,2.51,0,0,1-.88-2,2.51,2.51,0,0,1,.88-2A3.62,3.62,0,0,1,158.07.29Z"/><path class="cls-1" d="M169.16,28.44a4.36,4.36,0,0,1-3.49-1.26,4.54,4.54,0,0,1-1.08-3.06,4.2,4.2,0,0,1,.7-2.52,5.61,5.61,0,0,1,1.82-1.6,13.43,13.43,0,0,1,2.36-1q1.24-.41,2.38-.83a6.87,6.87,0,0,0,1.84-1,1.66,1.66,0,0,0,.7-1.37V13a4.34,4.34,0,0,0-.31-1.67,2.38,2.38,0,0,0-.94-1.13,3,3,0,0,0-1.64-.4,5.43,5.43,0,0,0-1.44.2,2.64,2.64,0,0,0-1.19.67,3.3,3.3,0,0,1,1.57,1.1,2.71,2.71,0,0,1,.56,1.67,2.42,2.42,0,0,1-.85,1.94,3,3,0,0,1-2,.72,2.39,2.39,0,0,1-2-.81,3,3,0,0,1-.67-2,2.77,2.77,0,0,1,.52-1.73,5.8,5.8,0,0,1,1.46-1.3,8.85,8.85,0,0,1,2.43-.9A13.85,13.85,0,0,1,173,9.07a12,12,0,0,1,3,.34,4.78,4.78,0,0,1,2.23,1.24,4,4,0,0,1,1.08,2,15.33,15.33,0,0,1,.25,3v9.79a3,3,0,0,0,.18,1.22.63.63,0,0,0,.61.36,1.38,1.38,0,0,0,.68-.18,3.53,3.53,0,0,0,.61-.43l.36.61a5.32,5.32,0,0,1-1.75,1,6.77,6.77,0,0,1-2.21.34q-2.16,0-2.86-.88a3.35,3.35,0,0,1-.74-2,6,6,0,0,1-2.21,2.2A6.31,6.31,0,0,1,169.16,28.44Zm2.77-2.3a2.63,2.63,0,0,0,1.28-.32,3.62,3.62,0,0,0,1.17-1.15V17.28a3.61,3.61,0,0,1-1.21,1.21q-.77.49-1.58,1A4.78,4.78,0,0,0,170.24,21a4.3,4.3,0,0,0-.54,2.3,3.11,3.11,0,0,0,.65,2.21A2.12,2.12,0,0,0,171.93,26.14Z"/></g></g></svg>
