<?xml version="1.0" encoding="iso-8859-1"?>
<!-- Generator: Adobe Illustrator 17.1.0, SVG Export Plug-In . SVG Version: 6.00 Build 0)  -->
<!DOCTYPE svg PUBLIC "-//W3C//DTD SVG 1.1//EN" "http://www.w3.org/Graphics/SVG/1.1/DTD/svg11.dtd">
<svg version="1.1" id="Capa_1" xmlns="http://www.w3.org/2000/svg" xmlns:xlink="http://www.w3.org/1999/xlink" x="0px" y="0px"
	 viewBox="0 0 476.148 476.148" style="enable-background:new 0 0 476.148 476.148;" xml:space="preserve">
<path fill="white" d="M322.372,215.689C319.917,110.868,276.587,0,238.074,0s-81.844,110.867-84.298,215.688
	c-2.857,122.028,38.33,253.9,38.747,255.219c0.608,1.926,1.968,3.525,3.772,4.436c1.803,0.911,3.898,1.057,5.809,0.4l35.971-12.314
	l35.971,12.314c0.79,0.271,1.61,0.404,2.429,0.404c1.163,0,2.321-0.271,3.379-0.805c1.804-0.91,3.164-2.51,3.772-4.436
	C284.042,469.588,325.229,337.717,322.372,215.689z M271.52,459.023l-31.017-10.619c-1.574-0.539-3.284-0.539-4.858,0
	l-31.019,10.619c-8.457-29.14-38.271-139.76-35.854-242.984c1.131-48.287,11.19-100.01,27.601-141.907
	c12.172-31.079,24.894-49.197,34.202-56.004v398.973c0,4.143,3.358,7.5,7.5,7.5s7.5-3.357,7.5-7.5V18.128
	c9.307,6.807,22.029,24.926,34.202,56.005c16.41,41.897,26.469,93.621,27.6,141.908C309.791,319.196,279.977,429.868,271.52,459.023
	z"/>
</svg>
