<svg id="Vrstva_1" data-name="Vrstva 1" xmlns="http://www.w3.org/2000/svg" xmlns:xlink="http://www.w3.org/1999/xlink" viewBox="0 0 1299.65 516.05"><defs><style>.cls-1,.cls-3{fill:#515151;}.cls-1,.cls-2{fill-rule:evenodd;}.cls-2{fill:url(#GradientFill_1);}</style><linearGradient id="GradientFill_1" x1="72.76" y1="432.77" x2="337.48" y2="93.95" gradientUnits="userSpaceOnUse"><stop offset="0" stop-color="#58bcac"/><stop offset="0.3" stop-color="#55baa8"/><stop offset="1" stop-color="#009881"/></linearGradient></defs><title>Kreslicí plátno 1 kopie</title><path class="cls-1" d="M1147.14,216.11c-3.83,0-6.9.9-9.22,2.71a18.36,18.36,0,0,0-5.61,7.37,36.83,36.83,0,0,0-2.88,10.73,103.68,103.68,0,0,0-.78,13.05q0,10.86.65,18.75a48.84,48.84,0,0,0,2.62,13.19,16.63,16.63,0,0,0,5.43,7.88,15.35,15.35,0,0,0,9.27,2.59c7.63,0,12.67-3.32,15.08-10s3.66-16.07,3.66-28.31q0-18.62-3.66-28.31c-2.41-6.46-7.28-9.69-14.56-9.69Zm41.23-15h0Q1207,219.72,1207,254.36a93.07,93.07,0,0,1-4,28.18,61.26,61.26,0,0,1-11.63,21.59,50.51,50.51,0,0,1-18.75,13.7q-11.11,4.78-25.59,4.78t-25.47-4.91a52.18,52.18,0,0,1-18.61-13.83,59.55,59.55,0,0,1-11.51-21.58,102.87,102.87,0,0,1,0-56,62.15,62.15,0,0,1,11.38-21.58,50.1,50.1,0,0,1,18.61-14q11.11-4.92,25.6-4.91,25.59,0,41.36,15.25ZM1015.81,290h0q10.66,0,19-10.09V223.34q-10.66-6.21-16.93-6.21-17.71,0-17.71,38.78,0,34.13,15.64,34.13Zm67.24,23.5h0c-3.46,7.61-14.12,7.26-14.12,7.26q-18.87-.52-27.66-14.48-15.51,16.28-37.23,16.28T970.7,304.51q-11.63-18.09-11.63-49.64a91.86,91.86,0,0,1,4-28,66.5,66.5,0,0,1,11-21.33,49.2,49.2,0,0,1,16.42-13.56,44.15,44.15,0,0,1,20.28-4.79,54.2,54.2,0,0,1,24.05,5.69v-49l1.55-1.81h15.77q12.41,0,17.19,5.43t4.78,18.87V281.5q0,13.71,7.24,18.61s5.81,4.42,1.71,13.43ZM870.32,336.41h0c12.75,0,13,1.72,17.13-12.24l1-3.63q-22.5,0-26.89-16.28l-30-111.42q11.89-5.42,22.23-5.43T869,191.28q4.78,3.88,7.11,13.44L888,254.36q1.8,7,5.94,34.13a1.89,1.89,0,0,0,2.07,1.81L918.48,190q6.21-1.81,16.81-1.81A67.48,67.48,0,0,1,956,191l1.55,2.85-31.8,121.5c-5,18.61-8.63,32.2-16.9,42.19-9.48,11.38-16.67,13.24-36.31,13.24,0,0-16.51.68-17.74-16.11s15.56-18.29,15.56-18.29ZM741.39,187.66h0q23.78,1.82,33.09,23.53,9.83-23.28,32.31-23.27A89.93,89.93,0,0,1,823.86,190a80.74,80.74,0,0,1-2.71,19,68.22,68.22,0,0,1-7.37,18.75,65.13,65.13,0,0,0-13.18-2.59q-12.93,0-21.2,13.19v80.4a113,113,0,0,1-20,1.56,117.54,117.54,0,0,1-20.29-1.56v-83.5q0-19.39-9.82-26.89s-4.79-3.2-.34-13.21c4.37-9.83,12.49-7.47,12.49-7.47Zm-23.27,1.82h0a67.76,67.76,0,0,1,1.55,14.35,64.12,64.12,0,0,1-1.55,14.08l-30.76-.51v59.46q0,12.15,11.38,12.15h14.47a51.3,51.3,0,0,1,3.36,17.19q0,7.82-1,11.24A263.9,263.9,0,0,1,680.38,320q-32.58,0-32.58-36V217.65l-20.16.25a51.06,51.06,0,0,1-1.81-14,56.89,56.89,0,0,1,1.81-14.47l20.16.52V166.87q0-13.18,5-18.75t16.94-5.55h15.77l1.81,1.81V190l30.76-.52ZM617.56,233.42h0v53q0,17.07,6.2,25.6a34.07,34.07,0,0,1-23.53,8.79q-13.44,0-18.35-6.21T577,295.72V240.66q0-8.79-2.33-12.93t-9-4.14a23.07,23.07,0,0,0-8.78,2.07,36.65,36.65,0,0,0-10.08,6.72v86.34a94.49,94.49,0,0,1-9.56,1.16q-5.17.39-10.61.4c-3.61,0-7.15-.14-10.59-.4a94.48,94.48,0,0,1-9.57-1.16v-129l1.81-1.81h15.25q15.77,0,21.2,15.51,18.09-16,35.93-16,18.09,0,27.53,12.54t9.44,33.48Zm-245.08-67h0q0-11.11,6.33-17.58t17.45-6.47l89.45-.17a81,81,0,0,1,1.55,16.29,51.68,51.68,0,0,1-3.62,18.35H413.33l.25,18.61v18.1c4.49-.17,10.3-.26,17.5-.26h39.38a54,54,0,0,1,2.33,16.55,59.1,59.1,0,0,1-2.33,17.05H413.59v19.65l-.25,18.61v.25c7.88-.34,14.26-.51,19.08-.51h59.76c0,6.37-.78,14.73-.78,14.73q-3.1,19.91-26.37,19.91H396.27q-11.12,0-17.45-6.47t-6.33-17.58Z"/><path class="cls-2" d="M96.56,226.37c.93-59.82,51.92-101.18,109.81-101,61.51.22,96.25,43.77,96.38,87.61.13,41.16-28,81.11-84.59,80.05a78.61,78.61,0,0,1-28.52-5.72,9.7,9.7,0,0,0-10.54-1.25,9.39,9.39,0,0,0-12.47-8.56,9.09,9.09,0,0,0-8.7-11.92,9.25,9.25,0,0,0-2.17.26A8.78,8.78,0,0,0,158,260a8.91,8.91,0,1,0-8.9,8.85,9,9,0,0,0,2-.23,9,9,0,0,0-2.35,6.08,9.15,9.15,0,0,0,12,8.62,9.16,9.16,0,0,0-.5,3,9.41,9.41,0,0,0,13.46,8.41,9.58,9.58,0,0,0,7.14,9.14c11.49,5.43,24.42,9.17,38,9.17,71.78,0,106.47-49.87,106.54-100.9.08-55.72-41.11-112.5-120.36-112.74h-.41c-65.56,0-134.82,47.11-137.6,127.37-1.7,48.93,18.47,90.89,51.32,120.79l1.27,1.14,1.2,1.05.09.08.36.31.91.78.49.41.78.66.71.58.64.53.61.49.78.62.55.43.84.66.62.49.7.54.92.7.44.33.89.66.63.46.77.55.7.5.73.52.79.56.68.48.77.53.79.54.72.49.77.51.8.53.72.47.82.53.8.52.72.45.83.52.67.42,1,.63.56.34.94.56.77.46.92.54.48.28,1.21.7.23.13,1.34.75.43.24c2,1.14,4.12,2.25,6.23,3.33l1.67.84,0,0,1.66.81,3.18,1.52.24.12,1.52.7.17.08,1.68.75h0l1.63.71.1.05,1.52.64.27.11,1.41.58.37.15,1.4.56.33.13,1.54.6.17.07,1.5.57.32.12,1.41.51.37.14,1.4.5.4.15,1.43.49.25.09,1.58.52.15.05,1.62.52.16,0,1.6.5.19.06,3.39,1,.1,0a135.54,135.54,0,0,0,27.83,4.9h.16l17.94.08h.09v13.94a6,6,0,0,0,3,5.26,6.08,6.08,0,0,0,6.06.24l62.52-31.57a6.16,6.16,0,0,0,0-11l-62.52-31.56a6.09,6.09,0,0,0-6.06.24,6,6,0,0,0-3,5.26v14.13h0c-1-.09-18.46-.19-19.51-.3h-.08l-3-.35-.27,0-2.95-.41-.22,0-3-.48-.22,0-2.91-.54-.24,0-2.83-.6-.32-.07-2.78-.64-.33-.08-2.72-.7-.37-.1-2.7-.76-.34-.1-2.69-.82-.35-.11-2.61-.86-.43-.15-2.55-.91-.42-.15-2.5-1-.49-.19-2.4-1-.52-.22-2.39-1-.47-.21L174,345.3l-.52-.24-2.27-1.1-.57-.28-2.23-1.14-.57-.29-2.15-1.16-.62-.35-2.15-1.22-.52-.3-2.13-1.27-.6-.37-2-1.26-.67-.43L155,334.61l-.68-.45-1.85-1.29-.74-.52L150,331l-.68-.51-1.81-1.38-.65-.51-1.77-1.4-.7-.56-1.68-1.41-.71-.6-1.63-1.41-.72-.64-1.56-1.42-.73-.68-1.53-1.46-.68-.66-1.52-1.5-.7-.72-1.42-1.48-.74-.8-1.36-1.48-.7-.78-1.36-1.55-.66-.78-1.3-1.54-.72-.89-1.22-1.53-.68-.89-1.18-1.55-.69-.94-1.11-1.54-.7-1L118,297.88l-.64-1-1-1.6-.64-1-1-1.59L114,291.6,113.1,290l-.64-1.13-.89-1.59-.6-1.14-.82-1.57-.63-1.26-.75-1.52-.6-1.27-.71-1.53-.58-1.32-.66-1.52-.54-1.32-.64-1.59-.46-1.21-.64-1.71-.43-1.23-.6-1.72-.41-1.28-.54-1.7-.4-1.35-.49-1.67-.37-1.38-.43-1.65-.36-1.46-.38-1.63-.29-1.39-.36-1.73-.27-1.44-.31-1.68L98,247.43l-.23-1.53-.23-1.75-.19-1.44-.17-1.66L97,239.47l-.15-2-.09-1.23-.12-2.45,0-.83,0-1.94,0-1.38c0-1.1,0-2.19,0-3.3Zm47.24,8.06a8.6,8.6,0,1,1-8.66,8.61,8.63,8.63,0,0,1,8.66-8.61Zm-9.88-9.82a8.41,8.41,0,1,1,8.42,8.36,8.39,8.39,0,0,1-8.42-8.36Zm4-18.84a8.17,8.17,0,1,1,8.18,8.12,8.15,8.15,0,0,1-8.18-8.12Zm10.48-17.23a7.93,7.93,0,1,1,7.93,7.88,7.91,7.91,0,0,1-7.93-7.88ZM165,175.4a7.68,7.68,0,1,1,7.68,7.63A7.66,7.66,0,0,1,165,175.4Zm21-7.59a7.44,7.44,0,1,1,7.44,7.39A7.42,7.42,0,0,1,186,167.8Zm30.6-7.92a7.15,7.15,0,1,1-7.19,7.15,7.18,7.18,0,0,1,7.19-7.15Zm22.92,8.29a6.91,6.91,0,1,1-7,6.9,6.92,6.92,0,0,1,7-6.9ZM256.8,187a6.67,6.67,0,1,1-6.7,6.67,6.69,6.69,0,0,1,6.7-6.67Zm5.86,26.53A6.42,6.42,0,1,1,256.2,220a6.44,6.44,0,0,1,6.47-6.42Zm-8,25.11a6.18,6.18,0,1,1-6.22,6.18,6.2,6.2,0,0,1,6.22-6.18Zm-12.13,21.9a6,6,0,1,1-6-5.93,6,6,0,0,1,6,5.93Zm-24.59.59a4.86,4.86,0,1,1-4.85-4.83,4.84,4.84,0,0,1,4.85,4.83Zm-22.43-6.65a4.05,4.05,0,1,1,4.07-4A4.06,4.06,0,0,1,195.51,254.51Z"/><path class="cls-3" d="M406.41,351.08l.38.38v36.85a23.54,23.54,0,0,1-5.12.49,37.27,37.27,0,0,1-5.23-.32l-8.51-19.4q-1.52-3.31-3.09-7.64l-.16.05q.65,7.91.65,16.2v10.78a21.71,21.71,0,0,1-4.06.32,20.83,20.83,0,0,1-4-.32V351.62a21.75,21.75,0,0,1,5-.49,36.84,36.84,0,0,1,5.17.32l8.4,19.35q2.28,5.36,3.36,8.24l.22-.11q-.65-7.53-.65-16v-6.61a5.83,5.83,0,0,1,1.14-4,4.85,4.85,0,0,1,3.68-1.22Z"/><path class="cls-3" d="M433.61,363.81q3.9,3.9,3.9,11.16a19.52,19.52,0,0,1-.84,5.91,12.81,12.81,0,0,1-2.44,4.52,10.61,10.61,0,0,1-3.93,2.87,13.47,13.47,0,0,1-5.36,1,13,13,0,0,1-5.34-1,10.91,10.91,0,0,1-3.9-2.9,12.47,12.47,0,0,1-2.41-4.53,21.58,21.58,0,0,1,0-11.73,13,13,0,0,1,2.38-4.52,10.49,10.49,0,0,1,3.9-2.93,13.15,13.15,0,0,1,5.36-1A12,12,0,0,1,433.61,363.81ZM425,367a3.08,3.08,0,0,0-1.94.57,3.93,3.93,0,0,0-1.17,1.54,8,8,0,0,0-.6,2.25,21.61,21.61,0,0,0-.16,2.74q0,2.28.14,3.93a10.58,10.58,0,0,0,.55,2.76,3.46,3.46,0,0,0,1.15,1.65,3.19,3.19,0,0,0,1.94.54,3,3,0,0,0,3.17-2.09,18,18,0,0,0,.76-5.93A17.69,17.69,0,0,0,428,369,3,3,0,0,0,425,367Z"/><path class="cls-3" d="M458.27,384.89l-6.39-32.95a13.35,13.35,0,0,1,4.61-1,4.61,4.61,0,0,1,3.31,1,6.79,6.79,0,0,1,1.46,3.77l2.28,14q1,6.29,1.3,8.78a20.59,20.59,0,0,0,.35,2.6.43.43,0,0,0,.35.11l4.5-29a31.8,31.8,0,0,1,5.58-.38,30.83,30.83,0,0,1,5.53.38l4.12,28.34a1,1,0,0,0,.19.6.64.64,0,0,0,.41.11q.49-5.09,1.63-11.54l3-18.21a18,18,0,0,1,3.63-.32,14.68,14.68,0,0,1,4.39.6l.38.49-7.15,36.2a62.14,62.14,0,0,1-6.61.38,9.26,9.26,0,0,1-4.39-.76,4.14,4.14,0,0,1-1.68-3.14l-1.84-11.76q-1-6.39-1.57-12.57h-.38q-.6,5.26-1.79,12.57l-2.44,15.28a66.1,66.1,0,0,1-6.69.38,9,9,0,0,1-4.31-.76A4.44,4.44,0,0,1,458.27,384.89Z"/><path class="cls-3" d="M524.54,384.57a9.09,9.09,0,0,1-1,2.44,6.16,6.16,0,0,1-1.57,1.9,7.14,7.14,0,0,1-5.85-2.87,11.08,11.08,0,0,1-7.64,3.25,9.26,9.26,0,0,1-3.68-.68,8,8,0,0,1-2.65-1.81,7.45,7.45,0,0,1-1.63-2.63,9,9,0,0,1-.54-3.12,9.4,9.4,0,0,1,.84-4.09,8.2,8.2,0,0,1,2.3-2.93,10.21,10.21,0,0,1,3.41-1.76,14.22,14.22,0,0,1,4.17-.6q1.25,0,2.19,0t1.65.08v-1q0-3.45-3.52-3.46a31.78,31.78,0,0,0-8,1.79,10.8,10.8,0,0,1-2.06-5.91q1.3-.49,2.9-.92t3.28-.76q1.68-.33,3.31-.52a25.73,25.73,0,0,1,2.93-.19,12.38,12.38,0,0,1,3.66.54,8.81,8.81,0,0,1,3.09,1.65,7.84,7.84,0,0,1,2.11,2.87A10.26,10.26,0,0,1,523,370v11A3.94,3.94,0,0,0,524.54,384.57Zm-16.36-4.06q0,2.55,2.93,2.55a5.63,5.63,0,0,0,3.41-1.57v-4.34l-1.82-.08-1.11,0Q508.17,377,508.17,380.5Z"/><path class="cls-3" d="M539.11,367.66v20.81q-.92.16-2,.24t-2.22.08q-1.14,0-2.25-.08a20.21,20.21,0,0,1-2-.24V370.53q0-3.14-2.55-3.14h-.81a10,10,0,0,1-.33-2.87,12.2,12.2,0,0,1,.33-3l2.6-.19q1.19-.08,2.17-.08h1.19a5.56,5.56,0,0,1,4.34,1.73A6.76,6.76,0,0,1,539.11,367.66Zm-9.48-17.12a8.37,8.37,0,0,1,4.06-.87,7.57,7.57,0,0,1,4,.87,7.92,7.92,0,0,1,0,6.28,9,9,0,0,1-4.12.81,7.64,7.64,0,0,1-3.9-.81,7.92,7.92,0,0,1,0-6.28Z"/><path class="cls-3" d="M561.06,361.38a14.21,14.21,0,0,1,.33,3,13.46,13.46,0,0,1-.33,3l-6.45-.11v12.46q0,2.55,2.38,2.55h3a10.79,10.79,0,0,1,.7,3.61,9,9,0,0,1-.22,2.35,54.82,54.82,0,0,1-7.37.55q-6.83,0-6.83-7.55V367.28l-4.23.05a10.73,10.73,0,0,1-.38-2.93,11.94,11.94,0,0,1,.38-3l4.23.11v-3.14a5.82,5.82,0,0,1,1.06-3.93,4.61,4.61,0,0,1,3.55-1.17h3.31l.38.38v7.86Z"/><path class="cls-3" d="M576.34,367.66v20.81q-.92.16-2,.24t-2.22.08q-1.14,0-2.25-.08a20.21,20.21,0,0,1-2-.24V370.53q0-3.14-2.55-3.14h-.81a10,10,0,0,1-.33-2.87,12.2,12.2,0,0,1,.33-3l2.6-.19q1.19-.08,2.17-.08h1.19a5.56,5.56,0,0,1,4.34,1.73A6.76,6.76,0,0,1,576.34,367.66Zm-9.48-17.12a8.37,8.37,0,0,1,4.06-.87,7.57,7.57,0,0,1,4,.87,7.92,7.92,0,0,1,0,6.28,9,9,0,0,1-4.12.81,7.64,7.64,0,0,1-3.9-.81,7.92,7.92,0,0,1,0-6.28Z"/><path class="cls-3" d="M606,370.59V381.7a9.1,9.1,0,0,0,1.3,5.36,7.15,7.15,0,0,1-4.93,1.84q-2.82,0-3.85-1.3a6.31,6.31,0,0,1-1-4V372.11a5.74,5.74,0,0,0-.49-2.71,2,2,0,0,0-1.9-.87,4.81,4.81,0,0,0-1.84.43,7.68,7.68,0,0,0-2.11,1.41v18.1q-.92.16-2,.24t-2.22.08q-1.14,0-2.22-.08t-2-.24v-27l.38-.38h3.2a4.37,4.37,0,0,1,4.44,3.25q3.79-3.36,7.53-3.36a6.78,6.78,0,0,1,5.77,2.63A11.39,11.39,0,0,1,606,370.59Z"/><path class="cls-3" d="M628.85,363.16a3.53,3.53,0,0,1,6.75-.22,6.63,6.63,0,0,1,.95,2.39q-1.52,1-1.52,3.9v14.31a36.28,36.28,0,0,1-.79,8.26,12.66,12.66,0,0,1-2.38,5.2,8.37,8.37,0,0,1-4,2.68,19.42,19.42,0,0,1-5.74.76,27.91,27.91,0,0,1-10.19-1.79,10.52,10.52,0,0,1,.6-3.3,8.55,8.55,0,0,1,1.46-2.82,17.86,17.86,0,0,0,7.37,1.63q5.47,0,5.47-5.47V386.9a10.39,10.39,0,0,1-6.18,2.11,8.12,8.12,0,0,1-7.29-3.82q-2.46-3.82-2.46-10.38a19.47,19.47,0,0,1,.84-5.93,13.91,13.91,0,0,1,2.3-4.47,10.21,10.21,0,0,1,3.39-2.82,8.92,8.92,0,0,1,4.09-1A11,11,0,0,1,628.85,363.16Zm-2.06,17.18v-11.6a5.43,5.43,0,0,0-3.6-1.84q-3.71,0-3.71,8.13,0,7.15,3.22,7.15A5.71,5.71,0,0,0,626.79,380.34Z"/><path class="cls-3" d="M663.09,367.66v20.81q-.92.16-2,.24t-2.22.08q-1.14,0-2.25-.08a20.2,20.2,0,0,1-2-.24V370.53q0-3.14-2.55-3.14h-.81a10,10,0,0,1-.32-2.87,12.24,12.24,0,0,1,.32-3l2.6-.19c.79-.05,1.52-.08,2.17-.08h1.19a5.56,5.56,0,0,1,4.34,1.73A6.76,6.76,0,0,1,663.09,367.66Zm-9.48-17.12a8.37,8.37,0,0,1,4.06-.87,7.57,7.57,0,0,1,4,.87,7.93,7.93,0,0,1,0,6.28,9,9,0,0,1-4.12.81,7.64,7.64,0,0,1-3.9-.81,7.92,7.92,0,0,1,0-6.28Z"/><path class="cls-3" d="M692.79,370.59V381.7a9.1,9.1,0,0,0,1.3,5.36,7.15,7.15,0,0,1-4.93,1.84q-2.82,0-3.85-1.3a6.31,6.31,0,0,1-1-4V372.11a5.74,5.74,0,0,0-.49-2.71,2,2,0,0,0-1.9-.87,4.82,4.82,0,0,0-1.84.43,7.67,7.67,0,0,0-2.11,1.41v18.1c-.62.11-1.28.19-2,.24s-1.46.08-2.22.08-1.5,0-2.22-.08-1.39-.14-2-.24v-27l.38-.38h3.2a4.37,4.37,0,0,1,4.44,3.25q3.79-3.36,7.53-3.36a6.78,6.78,0,0,1,5.77,2.63A11.4,11.4,0,0,1,692.79,370.59Z"/><path class="cls-3" d="M725.59,381.15H735a21.78,21.78,0,0,1-.27,3.71,4.22,4.22,0,0,1-1.73,2.66,6.19,6.19,0,0,1-3.85,1.11H716.9a4.68,4.68,0,0,1-5-5V351.46l.38-.38h3.18q5.06,0,5.06,5.53v24.76Q722.87,381.15,725.59,381.15Z"/><path class="cls-3" d="M749.09,367.66v20.81c-.62.11-1.28.19-2,.24s-1.46.08-2.22.08-1.51,0-2.25-.08a20.15,20.15,0,0,1-2-.24V370.53q0-3.14-2.55-3.14h-.81a10,10,0,0,1-.32-2.87,12.24,12.24,0,0,1,.32-3l2.6-.19q1.19-.08,2.17-.08h1.19a5.56,5.56,0,0,1,4.34,1.73A6.76,6.76,0,0,1,749.09,367.66Zm-9.48-17.12a8.37,8.37,0,0,1,4.06-.87,7.56,7.56,0,0,1,4,.87,7.92,7.92,0,0,1,0,6.28,9,9,0,0,1-4.12.81,7.64,7.64,0,0,1-3.9-.81,7.92,7.92,0,0,1,0-6.28Z"/><path class="cls-3" d="M778.78,370.59V381.7a9.1,9.1,0,0,0,1.3,5.36,7.15,7.15,0,0,1-4.93,1.84q-2.82,0-3.85-1.3a6.31,6.31,0,0,1-1-4V372.11a5.74,5.74,0,0,0-.49-2.71,2,2,0,0,0-1.9-.87A4.81,4.81,0,0,0,766,369a7.67,7.67,0,0,0-2.11,1.41v18.1q-.92.16-2,.24t-2.22.08q-1.14,0-2.22-.08t-2-.24v-27l.38-.38h3.2a4.37,4.37,0,0,1,4.44,3.25q3.79-3.36,7.53-3.36a6.78,6.78,0,0,1,5.77,2.63A11.4,11.4,0,0,1,778.78,370.59Z"/><path class="cls-3" d="M806.2,377.69H792.11a6.08,6.08,0,0,0,1.24,3.75,4.63,4.63,0,0,0,3.72,1.34,14.39,14.39,0,0,0,3-.37,27.81,27.81,0,0,0,3.91-1.2,8.63,8.63,0,0,1,2.21,5,17.83,17.83,0,0,1-10.62,3.09,13.38,13.38,0,0,1-5.72-1.08,9.64,9.64,0,0,1-3.74-3,12.16,12.16,0,0,1-2-4.61,26.5,26.5,0,0,1-.6-5.8,20.41,20.41,0,0,1,.73-5.61,12.8,12.8,0,0,1,2.22-4.47,10.34,10.34,0,0,1,3.79-3,12.56,12.56,0,0,1,5.39-1.08,12.11,12.11,0,0,1,4.69.87,10.14,10.14,0,0,1,5.8,6,13.13,13.13,0,0,1,.79,4.61A19.16,19.16,0,0,1,806.2,377.69Zm-14.15-5.85h7.1v-.6a5.75,5.75,0,0,0-.89-3.31,3,3,0,0,0-2.66-1.3,2.88,2.88,0,0,0-2.55,1.22A8.14,8.14,0,0,0,792.06,371.83Z"/><path class="cls-3" d="M809.89,386.63a9.27,9.27,0,0,1,.73-3.09,8.41,8.41,0,0,1,1.6-2.66,16.77,16.77,0,0,0,7.53,2.28,4.36,4.36,0,0,0,2.33-.52,1.57,1.57,0,0,0,.81-1.38q0-1.63-2.49-2.44l-3-1.14q-6.77-2.49-6.77-8.13a8.12,8.12,0,0,1,2.85-6.53,11.47,11.47,0,0,1,7.67-2.41,23.08,23.08,0,0,1,5.26.68,21.94,21.94,0,0,1,4.72,1.6,7.75,7.75,0,0,1-.6,3.33,5.65,5.65,0,0,1-1.73,2.57,19.33,19.33,0,0,0-7.59-2.06,2.48,2.48,0,0,0-1.65.49,1.57,1.57,0,0,0-.57,1.25q0,1.3,2.06,2.06l3.36,1.19q7.2,2.55,7.21,8.72a7.83,7.83,0,0,1-3,6.45q-3,2.38-8.51,2.38A20.53,20.53,0,0,1,809.89,386.63Z"/></svg>